%TF.GenerationSoftware,KiCad,Pcbnew,(6.0.8)*%
%TF.CreationDate,2022-12-14T21:59:04-06:00*%
%TF.ProjectId,Closet Light with timmer,436c6f73-6574-4204-9c69-676874207769,rev?*%
%TF.SameCoordinates,Original*%
%TF.FileFunction,Copper,L2,Bot*%
%TF.FilePolarity,Positive*%
%FSLAX46Y46*%
G04 Gerber Fmt 4.6, Leading zero omitted, Abs format (unit mm)*
G04 Created by KiCad (PCBNEW (6.0.8)) date 2022-12-14 21:59:04*
%MOMM*%
%LPD*%
G01*
G04 APERTURE LIST*
%TA.AperFunction,ComponentPad*%
%ADD10C,2.000000*%
%TD*%
%TA.AperFunction,ComponentPad*%
%ADD11R,2.400000X2.400000*%
%TD*%
%TA.AperFunction,ComponentPad*%
%ADD12C,2.400000*%
%TD*%
%TA.AperFunction,ComponentPad*%
%ADD13R,1.905000X2.000000*%
%TD*%
%TA.AperFunction,ComponentPad*%
%ADD14O,1.905000X2.000000*%
%TD*%
%TA.AperFunction,ComponentPad*%
%ADD15R,1.600000X1.600000*%
%TD*%
%TA.AperFunction,ComponentPad*%
%ADD16O,1.600000X1.600000*%
%TD*%
%TA.AperFunction,ComponentPad*%
%ADD17C,1.600000*%
%TD*%
%TA.AperFunction,ComponentPad*%
%ADD18C,2.600000*%
%TD*%
%TA.AperFunction,ConnectorPad*%
%ADD19C,3.800000*%
%TD*%
%TA.AperFunction,ComponentPad*%
%ADD20C,1.440000*%
%TD*%
%TA.AperFunction,ViaPad*%
%ADD21C,0.800000*%
%TD*%
%TA.AperFunction,Conductor*%
%ADD22C,0.250000*%
%TD*%
G04 APERTURE END LIST*
D10*
%TO.P,SW2,1,1*%
%TO.N,GND*%
X39750000Y-55250000D03*
X39750000Y-48750000D03*
%TO.P,SW2,2,2*%
%TO.N,/START*%
X44250000Y-48750000D03*
X44250000Y-55250000D03*
%TD*%
D11*
%TO.P,J1,1,Pin_1*%
%TO.N,GND*%
X40700000Y-39500000D03*
D12*
%TO.P,J1,2,Pin_2*%
%TO.N,+12V*%
X40700000Y-34500000D03*
%TD*%
D13*
%TO.P,Q1,1,G*%
%TO.N,/Gate*%
X82460000Y-35695000D03*
D14*
%TO.P,Q1,2,D*%
%TO.N,/Drain*%
X85000000Y-35695000D03*
%TO.P,Q1,3,S*%
%TO.N,GND*%
X87540000Y-35695000D03*
%TD*%
D15*
%TO.P,U1,1,GND*%
%TO.N,GND*%
X69200000Y-48200000D03*
D16*
%TO.P,U1,2,TR*%
%TO.N,/START*%
X69200000Y-50740000D03*
%TO.P,U1,3,Q*%
%TO.N,Net-(R4-Pad2)*%
X69200000Y-53280000D03*
%TO.P,U1,4,R*%
%TO.N,/RST*%
X69200000Y-55820000D03*
%TO.P,U1,5,CV*%
%TO.N,Net-(C2-Pad2)*%
X76820000Y-55820000D03*
%TO.P,U1,6,THR*%
%TO.N,Net-(C3-Pad1)*%
X76820000Y-53280000D03*
%TO.P,U1,7,DIS*%
X76820000Y-50740000D03*
%TO.P,U1,8,VCC*%
%TO.N,+12V*%
X76820000Y-48200000D03*
%TD*%
D17*
%TO.P,R5,1*%
%TO.N,GND*%
X86000000Y-48810000D03*
D16*
%TO.P,R5,2*%
%TO.N,/Gate*%
X86000000Y-41190000D03*
%TD*%
D17*
%TO.P,C2,1*%
%TO.N,GND*%
X89500000Y-53000000D03*
%TO.P,C2,2*%
%TO.N,Net-(C2-Pad2)*%
X84500000Y-53000000D03*
%TD*%
D11*
%TO.P,J2,1,Pin_1*%
%TO.N,/START*%
X101000000Y-35000000D03*
D12*
%TO.P,J2,2,Pin_2*%
%TO.N,/RST*%
X101000000Y-40000000D03*
%TD*%
D18*
%TO.P,H3,1*%
%TO.N,N/C*%
X107000000Y-25000000D03*
D19*
X107000000Y-25000000D03*
%TD*%
D18*
%TO.P,H1,1*%
%TO.N,N/C*%
X107000000Y-58500000D03*
D19*
X107000000Y-58500000D03*
%TD*%
D17*
%TO.P,R2,1*%
%TO.N,/START*%
X49000000Y-48190000D03*
D16*
%TO.P,R2,2*%
%TO.N,+12V*%
X49000000Y-55810000D03*
%TD*%
D17*
%TO.P,C1,1*%
%TO.N,/START*%
X48500000Y-44000000D03*
%TO.P,C1,2*%
%TO.N,GND*%
X53500000Y-44000000D03*
%TD*%
D10*
%TO.P,SW1,1,1*%
%TO.N,GND*%
X54000000Y-55250000D03*
X54000000Y-48750000D03*
%TO.P,SW1,2,2*%
%TO.N,/RST*%
X58500000Y-55250000D03*
X58500000Y-48750000D03*
%TD*%
D20*
%TO.P,RV1,1,1*%
%TO.N,Net-(C3-Pad1)*%
X68460000Y-34345000D03*
%TO.P,RV1,2,2*%
%TO.N,+12V*%
X71000000Y-39425000D03*
%TO.P,RV1,3,3*%
%TO.N,unconnected-(RV1-Pad3)*%
X73540000Y-34345000D03*
%TD*%
D18*
%TO.P,H4,1*%
%TO.N,N/C*%
X33000000Y-58500000D03*
D19*
X33000000Y-58500000D03*
%TD*%
D17*
%TO.P,R4,1*%
%TO.N,/Gate*%
X80500000Y-41190000D03*
D16*
%TO.P,R4,2*%
%TO.N,Net-(R4-Pad2)*%
X80500000Y-48810000D03*
%TD*%
D15*
%TO.P,C3,1*%
%TO.N,Net-(C3-Pad1)*%
X59000000Y-36000000D03*
D17*
%TO.P,C3,2*%
%TO.N,GND*%
X54000000Y-36000000D03*
%TD*%
D18*
%TO.P,H2,1*%
%TO.N,N/C*%
X33000000Y-25000000D03*
D19*
X33000000Y-25000000D03*
%TD*%
D11*
%TO.P,J3,1,Pin_1*%
%TO.N,+12V*%
X101050000Y-47750000D03*
D12*
%TO.P,J3,2,Pin_2*%
%TO.N,/Drain*%
X101050000Y-52750000D03*
%TD*%
D17*
%TO.P,R1,1*%
%TO.N,/RST*%
X63500000Y-52810000D03*
D16*
%TO.P,R1,2*%
%TO.N,+12V*%
X63500000Y-45190000D03*
%TD*%
D21*
%TO.N,/START*%
X50000000Y-46000000D03*
X60000000Y-46500000D03*
%TD*%
D22*
%TO.N,/START*%
X50500000Y-46500000D02*
X50000000Y-46000000D01*
X60000000Y-46500000D02*
X50500000Y-46500000D01*
%TD*%
%TA.AperFunction,Conductor*%
%TO.N,GND*%
G36*
X106157792Y-22528502D02*
G01*
X106204285Y-22582158D01*
X106214389Y-22652432D01*
X106184895Y-22717012D01*
X106136055Y-22751652D01*
X105976157Y-22814960D01*
X105976152Y-22814962D01*
X105972483Y-22816415D01*
X105706910Y-22962416D01*
X105461729Y-23140550D01*
X105240808Y-23348008D01*
X105047630Y-23581520D01*
X104885242Y-23837402D01*
X104756206Y-24111619D01*
X104662555Y-24399846D01*
X104605767Y-24697538D01*
X104586738Y-25000000D01*
X104605767Y-25302462D01*
X104662555Y-25600154D01*
X104756206Y-25888381D01*
X104885242Y-26162598D01*
X105047630Y-26418480D01*
X105240808Y-26651992D01*
X105461729Y-26859450D01*
X105706910Y-27037584D01*
X105972483Y-27183585D01*
X105976152Y-27185038D01*
X105976157Y-27185040D01*
X106250591Y-27293696D01*
X106254261Y-27295149D01*
X106547800Y-27370516D01*
X106848470Y-27408500D01*
X107151530Y-27408500D01*
X107452200Y-27370516D01*
X107745739Y-27295149D01*
X107749409Y-27293696D01*
X108023843Y-27185040D01*
X108023848Y-27185038D01*
X108027517Y-27183585D01*
X108293090Y-27037584D01*
X108538271Y-26859450D01*
X108759192Y-26651992D01*
X108952370Y-26418480D01*
X109114758Y-26162598D01*
X109243794Y-25888381D01*
X109245668Y-25882614D01*
X109246004Y-25882123D01*
X109246475Y-25880933D01*
X109246745Y-25881040D01*
X109285743Y-25824009D01*
X109351140Y-25796374D01*
X109421097Y-25808482D01*
X109473402Y-25856490D01*
X109491500Y-25921553D01*
X109491500Y-57578447D01*
X109471498Y-57646568D01*
X109417842Y-57693061D01*
X109347568Y-57703165D01*
X109282988Y-57673671D01*
X109246719Y-57618971D01*
X109246475Y-57619067D01*
X109246019Y-57617915D01*
X109245668Y-57617386D01*
X109245021Y-57615394D01*
X109245019Y-57615388D01*
X109243794Y-57611619D01*
X109114758Y-57337402D01*
X108952370Y-57081520D01*
X108929839Y-57054284D01*
X108851715Y-56959849D01*
X108759192Y-56848008D01*
X108538271Y-56640550D01*
X108293090Y-56462416D01*
X108027517Y-56316415D01*
X108023848Y-56314962D01*
X108023843Y-56314960D01*
X107749409Y-56206304D01*
X107749408Y-56206304D01*
X107745739Y-56204851D01*
X107452200Y-56129484D01*
X107151530Y-56091500D01*
X106848470Y-56091500D01*
X106547800Y-56129484D01*
X106254261Y-56204851D01*
X106250592Y-56206304D01*
X106250591Y-56206304D01*
X105976157Y-56314960D01*
X105976152Y-56314962D01*
X105972483Y-56316415D01*
X105706910Y-56462416D01*
X105461729Y-56640550D01*
X105240808Y-56848008D01*
X105148285Y-56959849D01*
X105070162Y-57054284D01*
X105047630Y-57081520D01*
X104885242Y-57337402D01*
X104756206Y-57611619D01*
X104662555Y-57899846D01*
X104605767Y-58197538D01*
X104586738Y-58500000D01*
X104605767Y-58802462D01*
X104662555Y-59100154D01*
X104756206Y-59388381D01*
X104885242Y-59662598D01*
X105047630Y-59918480D01*
X105240808Y-60151992D01*
X105461729Y-60359450D01*
X105706910Y-60537584D01*
X105972483Y-60683585D01*
X105976152Y-60685038D01*
X105976157Y-60685040D01*
X106136055Y-60748348D01*
X106192029Y-60792023D01*
X106215505Y-60859026D01*
X106199029Y-60928084D01*
X106147833Y-60977273D01*
X106089671Y-60991500D01*
X33910329Y-60991500D01*
X33842208Y-60971498D01*
X33795715Y-60917842D01*
X33785611Y-60847568D01*
X33815105Y-60782988D01*
X33863945Y-60748348D01*
X34023843Y-60685040D01*
X34023848Y-60685038D01*
X34027517Y-60683585D01*
X34293090Y-60537584D01*
X34538271Y-60359450D01*
X34759192Y-60151992D01*
X34952370Y-59918480D01*
X35114758Y-59662598D01*
X35243794Y-59388381D01*
X35337445Y-59100154D01*
X35394233Y-58802462D01*
X35413262Y-58500000D01*
X35394233Y-58197538D01*
X35337445Y-57899846D01*
X35243794Y-57611619D01*
X35114758Y-57337402D01*
X34952370Y-57081520D01*
X34929839Y-57054284D01*
X34851715Y-56959849D01*
X34759192Y-56848008D01*
X34538271Y-56640550D01*
X34320967Y-56482670D01*
X38882160Y-56482670D01*
X38887887Y-56490320D01*
X39059042Y-56595205D01*
X39067837Y-56599687D01*
X39277988Y-56686734D01*
X39287373Y-56689783D01*
X39508554Y-56742885D01*
X39518301Y-56744428D01*
X39745070Y-56762275D01*
X39754930Y-56762275D01*
X39981699Y-56744428D01*
X39991446Y-56742885D01*
X40212627Y-56689783D01*
X40222012Y-56686734D01*
X40432163Y-56599687D01*
X40440958Y-56595205D01*
X40608445Y-56492568D01*
X40617907Y-56482110D01*
X40614124Y-56473334D01*
X39762812Y-55622022D01*
X39748868Y-55614408D01*
X39747035Y-55614539D01*
X39740420Y-55618790D01*
X38888920Y-56470290D01*
X38882160Y-56482670D01*
X34320967Y-56482670D01*
X34293090Y-56462416D01*
X34027517Y-56316415D01*
X34023848Y-56314962D01*
X34023843Y-56314960D01*
X33749409Y-56206304D01*
X33749408Y-56206304D01*
X33745739Y-56204851D01*
X33452200Y-56129484D01*
X33151530Y-56091500D01*
X32848470Y-56091500D01*
X32547800Y-56129484D01*
X32254261Y-56204851D01*
X32250592Y-56206304D01*
X32250591Y-56206304D01*
X31976157Y-56314960D01*
X31976152Y-56314962D01*
X31972483Y-56316415D01*
X31706910Y-56462416D01*
X31461729Y-56640550D01*
X31240808Y-56848008D01*
X31148285Y-56959849D01*
X31070162Y-57054284D01*
X31047630Y-57081520D01*
X30885242Y-57337402D01*
X30756206Y-57611619D01*
X30754981Y-57615388D01*
X30754979Y-57615394D01*
X30754332Y-57617386D01*
X30753996Y-57617877D01*
X30753525Y-57619067D01*
X30753255Y-57618960D01*
X30714257Y-57675991D01*
X30648860Y-57703626D01*
X30578903Y-57691518D01*
X30526598Y-57643510D01*
X30508500Y-57578447D01*
X30508500Y-55254930D01*
X38237725Y-55254930D01*
X38255572Y-55481699D01*
X38257115Y-55491446D01*
X38310217Y-55712627D01*
X38313266Y-55722012D01*
X38400313Y-55932163D01*
X38404795Y-55940958D01*
X38507432Y-56108445D01*
X38517890Y-56117907D01*
X38526666Y-56114124D01*
X39377978Y-55262812D01*
X39384356Y-55251132D01*
X40114408Y-55251132D01*
X40114539Y-55252965D01*
X40118790Y-55259580D01*
X40970290Y-56111080D01*
X40982670Y-56117840D01*
X40990320Y-56112113D01*
X41095205Y-55940958D01*
X41099687Y-55932163D01*
X41186734Y-55722012D01*
X41189783Y-55712627D01*
X41242885Y-55491446D01*
X41244428Y-55481699D01*
X41262275Y-55254930D01*
X41262275Y-55250000D01*
X42736835Y-55250000D01*
X42755465Y-55486711D01*
X42756619Y-55491518D01*
X42756620Y-55491524D01*
X42780722Y-55591913D01*
X42810895Y-55717594D01*
X42812788Y-55722165D01*
X42812789Y-55722167D01*
X42899772Y-55932163D01*
X42901760Y-55936963D01*
X42904346Y-55941183D01*
X43023241Y-56135202D01*
X43023245Y-56135208D01*
X43025824Y-56139416D01*
X43180031Y-56319969D01*
X43360584Y-56474176D01*
X43364792Y-56476755D01*
X43364798Y-56476759D01*
X43558084Y-56595205D01*
X43563037Y-56598240D01*
X43567607Y-56600133D01*
X43567611Y-56600135D01*
X43777833Y-56687211D01*
X43782406Y-56689105D01*
X43862609Y-56708360D01*
X44008476Y-56743380D01*
X44008482Y-56743381D01*
X44013289Y-56744535D01*
X44250000Y-56763165D01*
X44486711Y-56744535D01*
X44491518Y-56743381D01*
X44491524Y-56743380D01*
X44637391Y-56708360D01*
X44717594Y-56689105D01*
X44722167Y-56687211D01*
X44932389Y-56600135D01*
X44932393Y-56600133D01*
X44936963Y-56598240D01*
X44941916Y-56595205D01*
X45135202Y-56476759D01*
X45135208Y-56476755D01*
X45139416Y-56474176D01*
X45319969Y-56319969D01*
X45474176Y-56139416D01*
X45476755Y-56135208D01*
X45476759Y-56135202D01*
X45595654Y-55941183D01*
X45598240Y-55936963D01*
X45600229Y-55932163D01*
X45650830Y-55810000D01*
X47686502Y-55810000D01*
X47706457Y-56038087D01*
X47707881Y-56043400D01*
X47707881Y-56043402D01*
X47751142Y-56204851D01*
X47765716Y-56259243D01*
X47768039Y-56264224D01*
X47768039Y-56264225D01*
X47860151Y-56461762D01*
X47860154Y-56461767D01*
X47862477Y-56466749D01*
X47872636Y-56481257D01*
X47952738Y-56595654D01*
X47993802Y-56654300D01*
X48155700Y-56816198D01*
X48160208Y-56819355D01*
X48160211Y-56819357D01*
X48201129Y-56848008D01*
X48343251Y-56947523D01*
X48348233Y-56949846D01*
X48348238Y-56949849D01*
X48545775Y-57041961D01*
X48550757Y-57044284D01*
X48556065Y-57045706D01*
X48556067Y-57045707D01*
X48766598Y-57102119D01*
X48766600Y-57102119D01*
X48771913Y-57103543D01*
X49000000Y-57123498D01*
X49228087Y-57103543D01*
X49233400Y-57102119D01*
X49233402Y-57102119D01*
X49443933Y-57045707D01*
X49443935Y-57045706D01*
X49449243Y-57044284D01*
X49454225Y-57041961D01*
X49651762Y-56949849D01*
X49651767Y-56949846D01*
X49656749Y-56947523D01*
X49798871Y-56848008D01*
X49839789Y-56819357D01*
X49839792Y-56819355D01*
X49844300Y-56816198D01*
X50006198Y-56654300D01*
X50047263Y-56595654D01*
X50126375Y-56482670D01*
X53132160Y-56482670D01*
X53137887Y-56490320D01*
X53309042Y-56595205D01*
X53317837Y-56599687D01*
X53527988Y-56686734D01*
X53537373Y-56689783D01*
X53758554Y-56742885D01*
X53768301Y-56744428D01*
X53995070Y-56762275D01*
X54004930Y-56762275D01*
X54231699Y-56744428D01*
X54241446Y-56742885D01*
X54462627Y-56689783D01*
X54472012Y-56686734D01*
X54682163Y-56599687D01*
X54690958Y-56595205D01*
X54858445Y-56492568D01*
X54867907Y-56482110D01*
X54864124Y-56473334D01*
X54012812Y-55622022D01*
X53998868Y-55614408D01*
X53997035Y-55614539D01*
X53990420Y-55618790D01*
X53138920Y-56470290D01*
X53132160Y-56482670D01*
X50126375Y-56482670D01*
X50127364Y-56481257D01*
X50137523Y-56466749D01*
X50139846Y-56461767D01*
X50139849Y-56461762D01*
X50231961Y-56264225D01*
X50231961Y-56264224D01*
X50234284Y-56259243D01*
X50248859Y-56204851D01*
X50292119Y-56043402D01*
X50292119Y-56043400D01*
X50293543Y-56038087D01*
X50313498Y-55810000D01*
X50293543Y-55581913D01*
X50268034Y-55486711D01*
X50235707Y-55366067D01*
X50235706Y-55366065D01*
X50234284Y-55360757D01*
X50187105Y-55259580D01*
X50184937Y-55254930D01*
X52487725Y-55254930D01*
X52505572Y-55481699D01*
X52507115Y-55491446D01*
X52560217Y-55712627D01*
X52563266Y-55722012D01*
X52650313Y-55932163D01*
X52654795Y-55940958D01*
X52757432Y-56108445D01*
X52767890Y-56117907D01*
X52776666Y-56114124D01*
X53627978Y-55262812D01*
X53634356Y-55251132D01*
X54364408Y-55251132D01*
X54364539Y-55252965D01*
X54368790Y-55259580D01*
X55220290Y-56111080D01*
X55232670Y-56117840D01*
X55240320Y-56112113D01*
X55345205Y-55940958D01*
X55349687Y-55932163D01*
X55436734Y-55722012D01*
X55439783Y-55712627D01*
X55492885Y-55491446D01*
X55494428Y-55481699D01*
X55512275Y-55254930D01*
X55512275Y-55250000D01*
X56986835Y-55250000D01*
X57005465Y-55486711D01*
X57006619Y-55491518D01*
X57006620Y-55491524D01*
X57030722Y-55591913D01*
X57060895Y-55717594D01*
X57062788Y-55722165D01*
X57062789Y-55722167D01*
X57149772Y-55932163D01*
X57151760Y-55936963D01*
X57154346Y-55941183D01*
X57273241Y-56135202D01*
X57273245Y-56135208D01*
X57275824Y-56139416D01*
X57430031Y-56319969D01*
X57610584Y-56474176D01*
X57614792Y-56476755D01*
X57614798Y-56476759D01*
X57808084Y-56595205D01*
X57813037Y-56598240D01*
X57817607Y-56600133D01*
X57817611Y-56600135D01*
X58027833Y-56687211D01*
X58032406Y-56689105D01*
X58112609Y-56708360D01*
X58258476Y-56743380D01*
X58258482Y-56743381D01*
X58263289Y-56744535D01*
X58500000Y-56763165D01*
X58736711Y-56744535D01*
X58741518Y-56743381D01*
X58741524Y-56743380D01*
X58887391Y-56708360D01*
X58967594Y-56689105D01*
X58972167Y-56687211D01*
X59182389Y-56600135D01*
X59182393Y-56600133D01*
X59186963Y-56598240D01*
X59191916Y-56595205D01*
X59385202Y-56476759D01*
X59385208Y-56476755D01*
X59389416Y-56474176D01*
X59569969Y-56319969D01*
X59724176Y-56139416D01*
X59726755Y-56135208D01*
X59726759Y-56135202D01*
X59845654Y-55941183D01*
X59848240Y-55936963D01*
X59850229Y-55932163D01*
X59896688Y-55820000D01*
X67886502Y-55820000D01*
X67906457Y-56048087D01*
X67907881Y-56053400D01*
X67907881Y-56053402D01*
X67961614Y-56253933D01*
X67965716Y-56269243D01*
X67968039Y-56274224D01*
X67968039Y-56274225D01*
X68060151Y-56471762D01*
X68060154Y-56471767D01*
X68062477Y-56476749D01*
X68065634Y-56481257D01*
X68189529Y-56658197D01*
X68193802Y-56664300D01*
X68355700Y-56826198D01*
X68360208Y-56829355D01*
X68360211Y-56829357D01*
X68438389Y-56884098D01*
X68543251Y-56957523D01*
X68548233Y-56959846D01*
X68548238Y-56959849D01*
X68732363Y-57045707D01*
X68750757Y-57054284D01*
X68756065Y-57055706D01*
X68756067Y-57055707D01*
X68966598Y-57112119D01*
X68966600Y-57112119D01*
X68971913Y-57113543D01*
X69200000Y-57133498D01*
X69428087Y-57113543D01*
X69433400Y-57112119D01*
X69433402Y-57112119D01*
X69643933Y-57055707D01*
X69643935Y-57055706D01*
X69649243Y-57054284D01*
X69667637Y-57045707D01*
X69851762Y-56959849D01*
X69851767Y-56959846D01*
X69856749Y-56957523D01*
X69961611Y-56884098D01*
X70039789Y-56829357D01*
X70039792Y-56829355D01*
X70044300Y-56826198D01*
X70206198Y-56664300D01*
X70210472Y-56658197D01*
X70334366Y-56481257D01*
X70337523Y-56476749D01*
X70339846Y-56471767D01*
X70339849Y-56471762D01*
X70431961Y-56274225D01*
X70431961Y-56274224D01*
X70434284Y-56269243D01*
X70438387Y-56253933D01*
X70492119Y-56053402D01*
X70492119Y-56053400D01*
X70493543Y-56048087D01*
X70513498Y-55820000D01*
X75506502Y-55820000D01*
X75526457Y-56048087D01*
X75527881Y-56053400D01*
X75527881Y-56053402D01*
X75581614Y-56253933D01*
X75585716Y-56269243D01*
X75588039Y-56274224D01*
X75588039Y-56274225D01*
X75680151Y-56471762D01*
X75680154Y-56471767D01*
X75682477Y-56476749D01*
X75685634Y-56481257D01*
X75809529Y-56658197D01*
X75813802Y-56664300D01*
X75975700Y-56826198D01*
X75980208Y-56829355D01*
X75980211Y-56829357D01*
X76058389Y-56884098D01*
X76163251Y-56957523D01*
X76168233Y-56959846D01*
X76168238Y-56959849D01*
X76352363Y-57045707D01*
X76370757Y-57054284D01*
X76376065Y-57055706D01*
X76376067Y-57055707D01*
X76586598Y-57112119D01*
X76586600Y-57112119D01*
X76591913Y-57113543D01*
X76820000Y-57133498D01*
X77048087Y-57113543D01*
X77053400Y-57112119D01*
X77053402Y-57112119D01*
X77263933Y-57055707D01*
X77263935Y-57055706D01*
X77269243Y-57054284D01*
X77287637Y-57045707D01*
X77471762Y-56959849D01*
X77471767Y-56959846D01*
X77476749Y-56957523D01*
X77581611Y-56884098D01*
X77659789Y-56829357D01*
X77659792Y-56829355D01*
X77664300Y-56826198D01*
X77826198Y-56664300D01*
X77830472Y-56658197D01*
X77954366Y-56481257D01*
X77957523Y-56476749D01*
X77959846Y-56471767D01*
X77959849Y-56471762D01*
X78051961Y-56274225D01*
X78051961Y-56274224D01*
X78054284Y-56269243D01*
X78058387Y-56253933D01*
X78112119Y-56053402D01*
X78112119Y-56053400D01*
X78113543Y-56048087D01*
X78133498Y-55820000D01*
X78113543Y-55591913D01*
X78112119Y-55586598D01*
X78055707Y-55376067D01*
X78055706Y-55376065D01*
X78054284Y-55370757D01*
X78002442Y-55259580D01*
X77959849Y-55168238D01*
X77959846Y-55168233D01*
X77957523Y-55163251D01*
X77826198Y-54975700D01*
X77664300Y-54813802D01*
X77659792Y-54810645D01*
X77659789Y-54810643D01*
X77581611Y-54755902D01*
X77476749Y-54682477D01*
X77471767Y-54680154D01*
X77471762Y-54680151D01*
X77437543Y-54664195D01*
X77384258Y-54617278D01*
X77364797Y-54549001D01*
X77385339Y-54481041D01*
X77437543Y-54435805D01*
X77471762Y-54419849D01*
X77471767Y-54419846D01*
X77476749Y-54417523D01*
X77581611Y-54344098D01*
X77659789Y-54289357D01*
X77659792Y-54289355D01*
X77664300Y-54286198D01*
X77826198Y-54124300D01*
X77840733Y-54103543D01*
X77911623Y-54002301D01*
X77957523Y-53936749D01*
X77959846Y-53931767D01*
X77959849Y-53931762D01*
X78051961Y-53734225D01*
X78051961Y-53734224D01*
X78054284Y-53729243D01*
X78058624Y-53713048D01*
X78112119Y-53513402D01*
X78112119Y-53513400D01*
X78113543Y-53508087D01*
X78133498Y-53280000D01*
X78113543Y-53051913D01*
X78112119Y-53046598D01*
X78099633Y-53000000D01*
X83186502Y-53000000D01*
X83206457Y-53228087D01*
X83207881Y-53233400D01*
X83207881Y-53233402D01*
X83263896Y-53442449D01*
X83265716Y-53449243D01*
X83268039Y-53454224D01*
X83268039Y-53454225D01*
X83360151Y-53651762D01*
X83360154Y-53651767D01*
X83362477Y-53656749D01*
X83418554Y-53736835D01*
X83476337Y-53819357D01*
X83493802Y-53844300D01*
X83655700Y-54006198D01*
X83660208Y-54009355D01*
X83660211Y-54009357D01*
X83717554Y-54049509D01*
X83843251Y-54137523D01*
X83848233Y-54139846D01*
X83848238Y-54139849D01*
X84044765Y-54231490D01*
X84050757Y-54234284D01*
X84056065Y-54235706D01*
X84056067Y-54235707D01*
X84266598Y-54292119D01*
X84266600Y-54292119D01*
X84271913Y-54293543D01*
X84500000Y-54313498D01*
X84728087Y-54293543D01*
X84733400Y-54292119D01*
X84733402Y-54292119D01*
X84943933Y-54235707D01*
X84943935Y-54235706D01*
X84949243Y-54234284D01*
X84955235Y-54231490D01*
X85151762Y-54139849D01*
X85151767Y-54139846D01*
X85156749Y-54137523D01*
X85230243Y-54086062D01*
X88778493Y-54086062D01*
X88787789Y-54098077D01*
X88838994Y-54133931D01*
X88848489Y-54139414D01*
X89045947Y-54231490D01*
X89056239Y-54235236D01*
X89266688Y-54291625D01*
X89277481Y-54293528D01*
X89494525Y-54312517D01*
X89505475Y-54312517D01*
X89722519Y-54293528D01*
X89733312Y-54291625D01*
X89943761Y-54235236D01*
X89954053Y-54231490D01*
X90151511Y-54139414D01*
X90161006Y-54133931D01*
X90213048Y-54097491D01*
X90221424Y-54087012D01*
X90214356Y-54073566D01*
X89512812Y-53372022D01*
X89498868Y-53364408D01*
X89497035Y-53364539D01*
X89490420Y-53368790D01*
X88784923Y-54074287D01*
X88778493Y-54086062D01*
X85230243Y-54086062D01*
X85282446Y-54049509D01*
X85339789Y-54009357D01*
X85339792Y-54009355D01*
X85344300Y-54006198D01*
X85506198Y-53844300D01*
X85523664Y-53819357D01*
X85581446Y-53736835D01*
X85637523Y-53656749D01*
X85639846Y-53651767D01*
X85639849Y-53651762D01*
X85731961Y-53454225D01*
X85731961Y-53454224D01*
X85734284Y-53449243D01*
X85736105Y-53442449D01*
X85792119Y-53233402D01*
X85792119Y-53233400D01*
X85793543Y-53228087D01*
X85813019Y-53005475D01*
X88187483Y-53005475D01*
X88206472Y-53222519D01*
X88208375Y-53233312D01*
X88264764Y-53443761D01*
X88268510Y-53454053D01*
X88360586Y-53651511D01*
X88366069Y-53661006D01*
X88402509Y-53713048D01*
X88412988Y-53721424D01*
X88426434Y-53714356D01*
X89127978Y-53012812D01*
X89134356Y-53001132D01*
X89864408Y-53001132D01*
X89864539Y-53002965D01*
X89868790Y-53009580D01*
X90574287Y-53715077D01*
X90586062Y-53721507D01*
X90598077Y-53712211D01*
X90633931Y-53661006D01*
X90639414Y-53651511D01*
X90731490Y-53454053D01*
X90735236Y-53443761D01*
X90791625Y-53233312D01*
X90793528Y-53222519D01*
X90812517Y-53005475D01*
X90812517Y-52994525D01*
X90793528Y-52777481D01*
X90791625Y-52766688D01*
X90775136Y-52705151D01*
X99337296Y-52705151D01*
X99337520Y-52709817D01*
X99337520Y-52709822D01*
X99340252Y-52766688D01*
X99349480Y-52958798D01*
X99399021Y-53207857D01*
X99400600Y-53212255D01*
X99400602Y-53212262D01*
X99456802Y-53368790D01*
X99484831Y-53446858D01*
X99605025Y-53670551D01*
X99607820Y-53674294D01*
X99607822Y-53674297D01*
X99754171Y-53870282D01*
X99754176Y-53870288D01*
X99756963Y-53874020D01*
X99760272Y-53877300D01*
X99760277Y-53877306D01*
X99926376Y-54041961D01*
X99937307Y-54052797D01*
X99941069Y-54055555D01*
X99941072Y-54055558D01*
X100056031Y-54139849D01*
X100142094Y-54202953D01*
X100146229Y-54205129D01*
X100146233Y-54205131D01*
X100204349Y-54235707D01*
X100366827Y-54321191D01*
X100606568Y-54404912D01*
X100856050Y-54452278D01*
X100976532Y-54457011D01*
X101105125Y-54462064D01*
X101105130Y-54462064D01*
X101109793Y-54462247D01*
X101208774Y-54451407D01*
X101357569Y-54435112D01*
X101357575Y-54435111D01*
X101362222Y-54434602D01*
X101418258Y-54419849D01*
X101603273Y-54371138D01*
X101607793Y-54369948D01*
X101740300Y-54313019D01*
X101836807Y-54271557D01*
X101836810Y-54271555D01*
X101841110Y-54269708D01*
X101845090Y-54267245D01*
X101845094Y-54267243D01*
X102053064Y-54138547D01*
X102053066Y-54138545D01*
X102057047Y-54136082D01*
X102097166Y-54102119D01*
X102247289Y-53975031D01*
X102247291Y-53975029D01*
X102250862Y-53972006D01*
X102418295Y-53781084D01*
X102433713Y-53757115D01*
X102553141Y-53571442D01*
X102555669Y-53567512D01*
X102659967Y-53335980D01*
X102728896Y-53091575D01*
X102760943Y-52839667D01*
X102761038Y-52836067D01*
X102763208Y-52753160D01*
X102763291Y-52750000D01*
X102754779Y-52635461D01*
X102744818Y-52501411D01*
X102744817Y-52501407D01*
X102744472Y-52496759D01*
X102731677Y-52440211D01*
X102689459Y-52253639D01*
X102688428Y-52249082D01*
X102652114Y-52155700D01*
X102598084Y-52016762D01*
X102598083Y-52016760D01*
X102596391Y-52012409D01*
X102574601Y-51974284D01*
X102472702Y-51795997D01*
X102472700Y-51795995D01*
X102470383Y-51791940D01*
X102313171Y-51592517D01*
X102128209Y-51418523D01*
X102084483Y-51388189D01*
X101923393Y-51276437D01*
X101923390Y-51276435D01*
X101919561Y-51273779D01*
X101915384Y-51271719D01*
X101915377Y-51271715D01*
X101695996Y-51163528D01*
X101695992Y-51163527D01*
X101691810Y-51161464D01*
X101449960Y-51084047D01*
X101445355Y-51083297D01*
X101203935Y-51043980D01*
X101203934Y-51043980D01*
X101199323Y-51043229D01*
X101072364Y-51041567D01*
X100950083Y-51039966D01*
X100950080Y-51039966D01*
X100945406Y-51039905D01*
X100693787Y-51074149D01*
X100449993Y-51145208D01*
X100219380Y-51251522D01*
X100215471Y-51254085D01*
X100010928Y-51388189D01*
X100010923Y-51388193D01*
X100007015Y-51390755D01*
X99912288Y-51475302D01*
X99866178Y-51516457D01*
X99817562Y-51559848D01*
X99655183Y-51755087D01*
X99523447Y-51972182D01*
X99521638Y-51976496D01*
X99521637Y-51976498D01*
X99446492Y-52155700D01*
X99425246Y-52206365D01*
X99362738Y-52452490D01*
X99337296Y-52705151D01*
X90775136Y-52705151D01*
X90735236Y-52556239D01*
X90731490Y-52545947D01*
X90639414Y-52348489D01*
X90633931Y-52338994D01*
X90597491Y-52286952D01*
X90587012Y-52278576D01*
X90573566Y-52285644D01*
X89872022Y-52987188D01*
X89864408Y-53001132D01*
X89134356Y-53001132D01*
X89135592Y-52998868D01*
X89135461Y-52997035D01*
X89131210Y-52990420D01*
X88425713Y-52284923D01*
X88413938Y-52278493D01*
X88401923Y-52287789D01*
X88366069Y-52338994D01*
X88360586Y-52348489D01*
X88268510Y-52545947D01*
X88264764Y-52556239D01*
X88208375Y-52766688D01*
X88206472Y-52777481D01*
X88187483Y-52994525D01*
X88187483Y-53005475D01*
X85813019Y-53005475D01*
X85813498Y-53000000D01*
X85793543Y-52771913D01*
X85788518Y-52753160D01*
X85735707Y-52556067D01*
X85735706Y-52556065D01*
X85734284Y-52550757D01*
X85711274Y-52501411D01*
X85639849Y-52348238D01*
X85639846Y-52348233D01*
X85637523Y-52343251D01*
X85506198Y-52155700D01*
X85344300Y-51993802D01*
X85339792Y-51990645D01*
X85339789Y-51990643D01*
X85228886Y-51912988D01*
X88778576Y-51912988D01*
X88785644Y-51926434D01*
X89487188Y-52627978D01*
X89501132Y-52635592D01*
X89502965Y-52635461D01*
X89509580Y-52631210D01*
X90215077Y-51925713D01*
X90221507Y-51913938D01*
X90212211Y-51901923D01*
X90161006Y-51866069D01*
X90151511Y-51860586D01*
X89954053Y-51768510D01*
X89943761Y-51764764D01*
X89733312Y-51708375D01*
X89722519Y-51706472D01*
X89505475Y-51687483D01*
X89494525Y-51687483D01*
X89277481Y-51706472D01*
X89266688Y-51708375D01*
X89056239Y-51764764D01*
X89045947Y-51768510D01*
X88848489Y-51860586D01*
X88838994Y-51866069D01*
X88786952Y-51902509D01*
X88778576Y-51912988D01*
X85228886Y-51912988D01*
X85213920Y-51902509D01*
X85156749Y-51862477D01*
X85151767Y-51860154D01*
X85151762Y-51860151D01*
X84954225Y-51768039D01*
X84954224Y-51768039D01*
X84949243Y-51765716D01*
X84943935Y-51764294D01*
X84943933Y-51764293D01*
X84733402Y-51707881D01*
X84733400Y-51707881D01*
X84728087Y-51706457D01*
X84500000Y-51686502D01*
X84271913Y-51706457D01*
X84266600Y-51707881D01*
X84266598Y-51707881D01*
X84056067Y-51764293D01*
X84056065Y-51764294D01*
X84050757Y-51765716D01*
X84045776Y-51768039D01*
X84045775Y-51768039D01*
X83848238Y-51860151D01*
X83848233Y-51860154D01*
X83843251Y-51862477D01*
X83786080Y-51902509D01*
X83660211Y-51990643D01*
X83660208Y-51990645D01*
X83655700Y-51993802D01*
X83493802Y-52155700D01*
X83362477Y-52343251D01*
X83360154Y-52348233D01*
X83360151Y-52348238D01*
X83288726Y-52501411D01*
X83265716Y-52550757D01*
X83264294Y-52556065D01*
X83264293Y-52556067D01*
X83211482Y-52753160D01*
X83206457Y-52771913D01*
X83186502Y-53000000D01*
X78099633Y-53000000D01*
X78055707Y-52836067D01*
X78055706Y-52836065D01*
X78054284Y-52830757D01*
X78026845Y-52771913D01*
X77959849Y-52628238D01*
X77959846Y-52628233D01*
X77957523Y-52623251D01*
X77884098Y-52518389D01*
X77829357Y-52440211D01*
X77829355Y-52440208D01*
X77826198Y-52435700D01*
X77664300Y-52273802D01*
X77659792Y-52270645D01*
X77659789Y-52270643D01*
X77561828Y-52202050D01*
X77476749Y-52142477D01*
X77471767Y-52140154D01*
X77471762Y-52140151D01*
X77437543Y-52124195D01*
X77384258Y-52077278D01*
X77364797Y-52009001D01*
X77385339Y-51941041D01*
X77437543Y-51895805D01*
X77471762Y-51879849D01*
X77471767Y-51879846D01*
X77476749Y-51877523D01*
X77604212Y-51788272D01*
X77659789Y-51749357D01*
X77659792Y-51749355D01*
X77664300Y-51746198D01*
X77826198Y-51584300D01*
X77840800Y-51563447D01*
X77887675Y-51496502D01*
X77957523Y-51396749D01*
X77959846Y-51391767D01*
X77959849Y-51391762D01*
X78051961Y-51194225D01*
X78051961Y-51194224D01*
X78054284Y-51189243D01*
X78061175Y-51163528D01*
X78112119Y-50973402D01*
X78112119Y-50973400D01*
X78113543Y-50968087D01*
X78133498Y-50740000D01*
X78113543Y-50511913D01*
X78054284Y-50290757D01*
X78041003Y-50262275D01*
X77959849Y-50088238D01*
X77959846Y-50088233D01*
X77957523Y-50083251D01*
X77862485Y-49947523D01*
X77829357Y-49900211D01*
X77829355Y-49900208D01*
X77826198Y-49895700D01*
X77664300Y-49733802D01*
X77659792Y-49730645D01*
X77659789Y-49730643D01*
X77581045Y-49675506D01*
X77476749Y-49602477D01*
X77471767Y-49600154D01*
X77471762Y-49600151D01*
X77437543Y-49584195D01*
X77384258Y-49537278D01*
X77364797Y-49469001D01*
X77385339Y-49401041D01*
X77437543Y-49355805D01*
X77471762Y-49339849D01*
X77471767Y-49339846D01*
X77476749Y-49337523D01*
X77641494Y-49222167D01*
X77659789Y-49209357D01*
X77659792Y-49209355D01*
X77664300Y-49206198D01*
X77826198Y-49044300D01*
X77830472Y-49038197D01*
X77954366Y-48861257D01*
X77957523Y-48856749D01*
X77959846Y-48851767D01*
X77959849Y-48851762D01*
X77979323Y-48810000D01*
X79186502Y-48810000D01*
X79206457Y-49038087D01*
X79207881Y-49043400D01*
X79207881Y-49043402D01*
X79251503Y-49206198D01*
X79265716Y-49259243D01*
X79268039Y-49264224D01*
X79268039Y-49264225D01*
X79360151Y-49461762D01*
X79360154Y-49461767D01*
X79362477Y-49466749D01*
X79389636Y-49505536D01*
X79459726Y-49605634D01*
X79493802Y-49654300D01*
X79655700Y-49816198D01*
X79660208Y-49819355D01*
X79660211Y-49819357D01*
X79665667Y-49823177D01*
X79843251Y-49947523D01*
X79848233Y-49949846D01*
X79848238Y-49949849D01*
X80044765Y-50041490D01*
X80050757Y-50044284D01*
X80056065Y-50045706D01*
X80056067Y-50045707D01*
X80266598Y-50102119D01*
X80266600Y-50102119D01*
X80271913Y-50103543D01*
X80500000Y-50123498D01*
X80728087Y-50103543D01*
X80733400Y-50102119D01*
X80733402Y-50102119D01*
X80943933Y-50045707D01*
X80943935Y-50045706D01*
X80949243Y-50044284D01*
X80955235Y-50041490D01*
X81151762Y-49949849D01*
X81151767Y-49949846D01*
X81156749Y-49947523D01*
X81230243Y-49896062D01*
X85278493Y-49896062D01*
X85287789Y-49908077D01*
X85338994Y-49943931D01*
X85348489Y-49949414D01*
X85545947Y-50041490D01*
X85556239Y-50045236D01*
X85766688Y-50101625D01*
X85777481Y-50103528D01*
X85994525Y-50122517D01*
X86005475Y-50122517D01*
X86222519Y-50103528D01*
X86233312Y-50101625D01*
X86443761Y-50045236D01*
X86454053Y-50041490D01*
X86651511Y-49949414D01*
X86661006Y-49943931D01*
X86713048Y-49907491D01*
X86721424Y-49897012D01*
X86714356Y-49883566D01*
X86012812Y-49182022D01*
X85998868Y-49174408D01*
X85997035Y-49174539D01*
X85990420Y-49178790D01*
X85284923Y-49884287D01*
X85278493Y-49896062D01*
X81230243Y-49896062D01*
X81334333Y-49823177D01*
X81339789Y-49819357D01*
X81339792Y-49819355D01*
X81344300Y-49816198D01*
X81506198Y-49654300D01*
X81540275Y-49605634D01*
X81610364Y-49505536D01*
X81637523Y-49466749D01*
X81639846Y-49461767D01*
X81639849Y-49461762D01*
X81731961Y-49264225D01*
X81731961Y-49264224D01*
X81734284Y-49259243D01*
X81748498Y-49206198D01*
X81792119Y-49043402D01*
X81792119Y-49043400D01*
X81793543Y-49038087D01*
X81813019Y-48815475D01*
X84687483Y-48815475D01*
X84706472Y-49032519D01*
X84708375Y-49043312D01*
X84764764Y-49253761D01*
X84768510Y-49264053D01*
X84860586Y-49461511D01*
X84866069Y-49471006D01*
X84902509Y-49523048D01*
X84912988Y-49531424D01*
X84926434Y-49524356D01*
X85627978Y-48822812D01*
X85634356Y-48811132D01*
X86364408Y-48811132D01*
X86364539Y-48812965D01*
X86368790Y-48819580D01*
X87074287Y-49525077D01*
X87086062Y-49531507D01*
X87098077Y-49522211D01*
X87133931Y-49471006D01*
X87139414Y-49461511D01*
X87231490Y-49264053D01*
X87235236Y-49253761D01*
X87291625Y-49043312D01*
X87293528Y-49032519D01*
X87296536Y-48998134D01*
X99341500Y-48998134D01*
X99348255Y-49060316D01*
X99399385Y-49196705D01*
X99486739Y-49313261D01*
X99603295Y-49400615D01*
X99739684Y-49451745D01*
X99801866Y-49458500D01*
X102298134Y-49458500D01*
X102360316Y-49451745D01*
X102496705Y-49400615D01*
X102613261Y-49313261D01*
X102700615Y-49196705D01*
X102751745Y-49060316D01*
X102758500Y-48998134D01*
X102758500Y-46501866D01*
X102751745Y-46439684D01*
X102700615Y-46303295D01*
X102613261Y-46186739D01*
X102496705Y-46099385D01*
X102360316Y-46048255D01*
X102298134Y-46041500D01*
X99801866Y-46041500D01*
X99739684Y-46048255D01*
X99603295Y-46099385D01*
X99486739Y-46186739D01*
X99399385Y-46303295D01*
X99348255Y-46439684D01*
X99341500Y-46501866D01*
X99341500Y-48998134D01*
X87296536Y-48998134D01*
X87312517Y-48815475D01*
X87312517Y-48804525D01*
X87293528Y-48587481D01*
X87291625Y-48576688D01*
X87235236Y-48366239D01*
X87231490Y-48355947D01*
X87139414Y-48158489D01*
X87133931Y-48148994D01*
X87097491Y-48096952D01*
X87087012Y-48088576D01*
X87073566Y-48095644D01*
X86372022Y-48797188D01*
X86364408Y-48811132D01*
X85634356Y-48811132D01*
X85635592Y-48808868D01*
X85635461Y-48807035D01*
X85631210Y-48800420D01*
X84925713Y-48094923D01*
X84913938Y-48088493D01*
X84901923Y-48097789D01*
X84866069Y-48148994D01*
X84860586Y-48158489D01*
X84768510Y-48355947D01*
X84764764Y-48366239D01*
X84708375Y-48576688D01*
X84706472Y-48587481D01*
X84687483Y-48804525D01*
X84687483Y-48815475D01*
X81813019Y-48815475D01*
X81813498Y-48810000D01*
X81793543Y-48581913D01*
X81775155Y-48513289D01*
X81735707Y-48366067D01*
X81735706Y-48366065D01*
X81734284Y-48360757D01*
X81700065Y-48287373D01*
X81639849Y-48158238D01*
X81639846Y-48158233D01*
X81637523Y-48153251D01*
X81514386Y-47977393D01*
X81509357Y-47970211D01*
X81509355Y-47970208D01*
X81506198Y-47965700D01*
X81344300Y-47803802D01*
X81339792Y-47800645D01*
X81339789Y-47800643D01*
X81228886Y-47722988D01*
X85278576Y-47722988D01*
X85285644Y-47736434D01*
X85987188Y-48437978D01*
X86001132Y-48445592D01*
X86002965Y-48445461D01*
X86009580Y-48441210D01*
X86715077Y-47735713D01*
X86721507Y-47723938D01*
X86712211Y-47711923D01*
X86661006Y-47676069D01*
X86651511Y-47670586D01*
X86454053Y-47578510D01*
X86443761Y-47574764D01*
X86233312Y-47518375D01*
X86222519Y-47516472D01*
X86005475Y-47497483D01*
X85994525Y-47497483D01*
X85777481Y-47516472D01*
X85766688Y-47518375D01*
X85556239Y-47574764D01*
X85545947Y-47578510D01*
X85348489Y-47670586D01*
X85338994Y-47676069D01*
X85286952Y-47712509D01*
X85278576Y-47722988D01*
X81228886Y-47722988D01*
X81213920Y-47712509D01*
X81156749Y-47672477D01*
X81151767Y-47670154D01*
X81151762Y-47670151D01*
X80954225Y-47578039D01*
X80954224Y-47578039D01*
X80949243Y-47575716D01*
X80943935Y-47574294D01*
X80943933Y-47574293D01*
X80733402Y-47517881D01*
X80733400Y-47517881D01*
X80728087Y-47516457D01*
X80500000Y-47496502D01*
X80271913Y-47516457D01*
X80266600Y-47517881D01*
X80266598Y-47517881D01*
X80056067Y-47574293D01*
X80056065Y-47574294D01*
X80050757Y-47575716D01*
X80045776Y-47578039D01*
X80045775Y-47578039D01*
X79848238Y-47670151D01*
X79848233Y-47670154D01*
X79843251Y-47672477D01*
X79786080Y-47712509D01*
X79660211Y-47800643D01*
X79660208Y-47800645D01*
X79655700Y-47803802D01*
X79493802Y-47965700D01*
X79490645Y-47970208D01*
X79490643Y-47970211D01*
X79485614Y-47977393D01*
X79362477Y-48153251D01*
X79360154Y-48158233D01*
X79360151Y-48158238D01*
X79299935Y-48287373D01*
X79265716Y-48360757D01*
X79264294Y-48366065D01*
X79264293Y-48366067D01*
X79224845Y-48513289D01*
X79206457Y-48581913D01*
X79186502Y-48810000D01*
X77979323Y-48810000D01*
X78051961Y-48654225D01*
X78051961Y-48654224D01*
X78054284Y-48649243D01*
X78058387Y-48633933D01*
X78112119Y-48433402D01*
X78112119Y-48433400D01*
X78113543Y-48428087D01*
X78133498Y-48200000D01*
X78113543Y-47971913D01*
X78111878Y-47965700D01*
X78055707Y-47756067D01*
X78055706Y-47756065D01*
X78054284Y-47750757D01*
X78021304Y-47680031D01*
X77959849Y-47548238D01*
X77959846Y-47548233D01*
X77957523Y-47543251D01*
X77863169Y-47408500D01*
X77829357Y-47360211D01*
X77829355Y-47360208D01*
X77826198Y-47355700D01*
X77664300Y-47193802D01*
X77659792Y-47190645D01*
X77659789Y-47190643D01*
X77566535Y-47125346D01*
X77476749Y-47062477D01*
X77471767Y-47060154D01*
X77471762Y-47060151D01*
X77274225Y-46968039D01*
X77274224Y-46968039D01*
X77269243Y-46965716D01*
X77263935Y-46964294D01*
X77263933Y-46964293D01*
X77053402Y-46907881D01*
X77053400Y-46907881D01*
X77048087Y-46906457D01*
X76820000Y-46886502D01*
X76591913Y-46906457D01*
X76586600Y-46907881D01*
X76586598Y-46907881D01*
X76376067Y-46964293D01*
X76376065Y-46964294D01*
X76370757Y-46965716D01*
X76365776Y-46968039D01*
X76365775Y-46968039D01*
X76168238Y-47060151D01*
X76168233Y-47060154D01*
X76163251Y-47062477D01*
X76073465Y-47125346D01*
X75980211Y-47190643D01*
X75980208Y-47190645D01*
X75975700Y-47193802D01*
X75813802Y-47355700D01*
X75810645Y-47360208D01*
X75810643Y-47360211D01*
X75776831Y-47408500D01*
X75682477Y-47543251D01*
X75680154Y-47548233D01*
X75680151Y-47548238D01*
X75618696Y-47680031D01*
X75585716Y-47750757D01*
X75584294Y-47756065D01*
X75584293Y-47756067D01*
X75528122Y-47965700D01*
X75526457Y-47971913D01*
X75506502Y-48200000D01*
X75526457Y-48428087D01*
X75527881Y-48433400D01*
X75527881Y-48433402D01*
X75581614Y-48633933D01*
X75585716Y-48649243D01*
X75588039Y-48654224D01*
X75588039Y-48654225D01*
X75680151Y-48851762D01*
X75680154Y-48851767D01*
X75682477Y-48856749D01*
X75685634Y-48861257D01*
X75809529Y-49038197D01*
X75813802Y-49044300D01*
X75975700Y-49206198D01*
X75980208Y-49209355D01*
X75980211Y-49209357D01*
X75998506Y-49222167D01*
X76163251Y-49337523D01*
X76168233Y-49339846D01*
X76168238Y-49339849D01*
X76202457Y-49355805D01*
X76255742Y-49402722D01*
X76275203Y-49470999D01*
X76254661Y-49538959D01*
X76202457Y-49584195D01*
X76168238Y-49600151D01*
X76168233Y-49600154D01*
X76163251Y-49602477D01*
X76058955Y-49675506D01*
X75980211Y-49730643D01*
X75980208Y-49730645D01*
X75975700Y-49733802D01*
X75813802Y-49895700D01*
X75810645Y-49900208D01*
X75810643Y-49900211D01*
X75777515Y-49947523D01*
X75682477Y-50083251D01*
X75680154Y-50088233D01*
X75680151Y-50088238D01*
X75598997Y-50262275D01*
X75585716Y-50290757D01*
X75526457Y-50511913D01*
X75506502Y-50740000D01*
X75526457Y-50968087D01*
X75527881Y-50973400D01*
X75527881Y-50973402D01*
X75578826Y-51163528D01*
X75585716Y-51189243D01*
X75588039Y-51194224D01*
X75588039Y-51194225D01*
X75680151Y-51391762D01*
X75680154Y-51391767D01*
X75682477Y-51396749D01*
X75752325Y-51496502D01*
X75799201Y-51563447D01*
X75813802Y-51584300D01*
X75975700Y-51746198D01*
X75980208Y-51749355D01*
X75980211Y-51749357D01*
X76035788Y-51788272D01*
X76163251Y-51877523D01*
X76168233Y-51879846D01*
X76168238Y-51879849D01*
X76202457Y-51895805D01*
X76255742Y-51942722D01*
X76275203Y-52010999D01*
X76254661Y-52078959D01*
X76202457Y-52124195D01*
X76168238Y-52140151D01*
X76168233Y-52140154D01*
X76163251Y-52142477D01*
X76078172Y-52202050D01*
X75980211Y-52270643D01*
X75980208Y-52270645D01*
X75975700Y-52273802D01*
X75813802Y-52435700D01*
X75810645Y-52440208D01*
X75810643Y-52440211D01*
X75755902Y-52518389D01*
X75682477Y-52623251D01*
X75680154Y-52628233D01*
X75680151Y-52628238D01*
X75613155Y-52771913D01*
X75585716Y-52830757D01*
X75584294Y-52836065D01*
X75584293Y-52836067D01*
X75527881Y-53046598D01*
X75526457Y-53051913D01*
X75506502Y-53280000D01*
X75526457Y-53508087D01*
X75527881Y-53513400D01*
X75527881Y-53513402D01*
X75581377Y-53713048D01*
X75585716Y-53729243D01*
X75588039Y-53734224D01*
X75588039Y-53734225D01*
X75680151Y-53931762D01*
X75680154Y-53931767D01*
X75682477Y-53936749D01*
X75728377Y-54002301D01*
X75799268Y-54103543D01*
X75813802Y-54124300D01*
X75975700Y-54286198D01*
X75980208Y-54289355D01*
X75980211Y-54289357D01*
X76058389Y-54344098D01*
X76163251Y-54417523D01*
X76168233Y-54419846D01*
X76168238Y-54419849D01*
X76202457Y-54435805D01*
X76255742Y-54482722D01*
X76275203Y-54550999D01*
X76254661Y-54618959D01*
X76202457Y-54664195D01*
X76168238Y-54680151D01*
X76168233Y-54680154D01*
X76163251Y-54682477D01*
X76058389Y-54755902D01*
X75980211Y-54810643D01*
X75980208Y-54810645D01*
X75975700Y-54813802D01*
X75813802Y-54975700D01*
X75682477Y-55163251D01*
X75680154Y-55168233D01*
X75680151Y-55168238D01*
X75637558Y-55259580D01*
X75585716Y-55370757D01*
X75584294Y-55376065D01*
X75584293Y-55376067D01*
X75527881Y-55586598D01*
X75526457Y-55591913D01*
X75506502Y-55820000D01*
X70513498Y-55820000D01*
X70493543Y-55591913D01*
X70492119Y-55586598D01*
X70435707Y-55376067D01*
X70435706Y-55376065D01*
X70434284Y-55370757D01*
X70382442Y-55259580D01*
X70339849Y-55168238D01*
X70339846Y-55168233D01*
X70337523Y-55163251D01*
X70206198Y-54975700D01*
X70044300Y-54813802D01*
X70039792Y-54810645D01*
X70039789Y-54810643D01*
X69961611Y-54755902D01*
X69856749Y-54682477D01*
X69851767Y-54680154D01*
X69851762Y-54680151D01*
X69817543Y-54664195D01*
X69764258Y-54617278D01*
X69744797Y-54549001D01*
X69765339Y-54481041D01*
X69817543Y-54435805D01*
X69851762Y-54419849D01*
X69851767Y-54419846D01*
X69856749Y-54417523D01*
X69961611Y-54344098D01*
X70039789Y-54289357D01*
X70039792Y-54289355D01*
X70044300Y-54286198D01*
X70206198Y-54124300D01*
X70220733Y-54103543D01*
X70291623Y-54002301D01*
X70337523Y-53936749D01*
X70339846Y-53931767D01*
X70339849Y-53931762D01*
X70431961Y-53734225D01*
X70431961Y-53734224D01*
X70434284Y-53729243D01*
X70438624Y-53713048D01*
X70492119Y-53513402D01*
X70492119Y-53513400D01*
X70493543Y-53508087D01*
X70513498Y-53280000D01*
X70493543Y-53051913D01*
X70492119Y-53046598D01*
X70435707Y-52836067D01*
X70435706Y-52836065D01*
X70434284Y-52830757D01*
X70406845Y-52771913D01*
X70339849Y-52628238D01*
X70339846Y-52628233D01*
X70337523Y-52623251D01*
X70264098Y-52518389D01*
X70209357Y-52440211D01*
X70209355Y-52440208D01*
X70206198Y-52435700D01*
X70044300Y-52273802D01*
X70039792Y-52270645D01*
X70039789Y-52270643D01*
X69941828Y-52202050D01*
X69856749Y-52142477D01*
X69851767Y-52140154D01*
X69851762Y-52140151D01*
X69817543Y-52124195D01*
X69764258Y-52077278D01*
X69744797Y-52009001D01*
X69765339Y-51941041D01*
X69817543Y-51895805D01*
X69851762Y-51879849D01*
X69851767Y-51879846D01*
X69856749Y-51877523D01*
X69984212Y-51788272D01*
X70039789Y-51749357D01*
X70039792Y-51749355D01*
X70044300Y-51746198D01*
X70206198Y-51584300D01*
X70220800Y-51563447D01*
X70267675Y-51496502D01*
X70337523Y-51396749D01*
X70339846Y-51391767D01*
X70339849Y-51391762D01*
X70431961Y-51194225D01*
X70431961Y-51194224D01*
X70434284Y-51189243D01*
X70441175Y-51163528D01*
X70492119Y-50973402D01*
X70492119Y-50973400D01*
X70493543Y-50968087D01*
X70513498Y-50740000D01*
X70493543Y-50511913D01*
X70434284Y-50290757D01*
X70421003Y-50262275D01*
X70339849Y-50088238D01*
X70339846Y-50088233D01*
X70337523Y-50083251D01*
X70242485Y-49947523D01*
X70209357Y-49900211D01*
X70209355Y-49900208D01*
X70206198Y-49895700D01*
X70044300Y-49733802D01*
X70039789Y-49730643D01*
X70035576Y-49727108D01*
X70036388Y-49726140D01*
X69995910Y-49675506D01*
X69988596Y-49604887D01*
X70020624Y-49541524D01*
X70081823Y-49505536D01*
X70098901Y-49502480D01*
X70102352Y-49502105D01*
X70117604Y-49498479D01*
X70238054Y-49453324D01*
X70253649Y-49444786D01*
X70355724Y-49368285D01*
X70368285Y-49355724D01*
X70444786Y-49253649D01*
X70453324Y-49238054D01*
X70498478Y-49117606D01*
X70502105Y-49102351D01*
X70507631Y-49051486D01*
X70508000Y-49044672D01*
X70508000Y-48472115D01*
X70503525Y-48456876D01*
X70502135Y-48455671D01*
X70494452Y-48454000D01*
X67910116Y-48454000D01*
X67894877Y-48458475D01*
X67893672Y-48459865D01*
X67892001Y-48467548D01*
X67892001Y-49044669D01*
X67892371Y-49051490D01*
X67897895Y-49102352D01*
X67901521Y-49117604D01*
X67946676Y-49238054D01*
X67955214Y-49253649D01*
X68031715Y-49355724D01*
X68044276Y-49368285D01*
X68146351Y-49444786D01*
X68161946Y-49453324D01*
X68282394Y-49498478D01*
X68297643Y-49502104D01*
X68301096Y-49502479D01*
X68303606Y-49503522D01*
X68305331Y-49503932D01*
X68305265Y-49504211D01*
X68366659Y-49529719D01*
X68407088Y-49588080D01*
X68409546Y-49659034D01*
X68373253Y-49720054D01*
X68361760Y-49729344D01*
X68360214Y-49730641D01*
X68355700Y-49733802D01*
X68193802Y-49895700D01*
X68190645Y-49900208D01*
X68190643Y-49900211D01*
X68157515Y-49947523D01*
X68062477Y-50083251D01*
X68060154Y-50088233D01*
X68060151Y-50088238D01*
X67978997Y-50262275D01*
X67965716Y-50290757D01*
X67906457Y-50511913D01*
X67886502Y-50740000D01*
X67906457Y-50968087D01*
X67907881Y-50973400D01*
X67907881Y-50973402D01*
X67958826Y-51163528D01*
X67965716Y-51189243D01*
X67968039Y-51194224D01*
X67968039Y-51194225D01*
X68060151Y-51391762D01*
X68060154Y-51391767D01*
X68062477Y-51396749D01*
X68132325Y-51496502D01*
X68179201Y-51563447D01*
X68193802Y-51584300D01*
X68355700Y-51746198D01*
X68360208Y-51749355D01*
X68360211Y-51749357D01*
X68415788Y-51788272D01*
X68543251Y-51877523D01*
X68548233Y-51879846D01*
X68548238Y-51879849D01*
X68582457Y-51895805D01*
X68635742Y-51942722D01*
X68655203Y-52010999D01*
X68634661Y-52078959D01*
X68582457Y-52124195D01*
X68548238Y-52140151D01*
X68548233Y-52140154D01*
X68543251Y-52142477D01*
X68458172Y-52202050D01*
X68360211Y-52270643D01*
X68360208Y-52270645D01*
X68355700Y-52273802D01*
X68193802Y-52435700D01*
X68190645Y-52440208D01*
X68190643Y-52440211D01*
X68135902Y-52518389D01*
X68062477Y-52623251D01*
X68060154Y-52628233D01*
X68060151Y-52628238D01*
X67993155Y-52771913D01*
X67965716Y-52830757D01*
X67964294Y-52836065D01*
X67964293Y-52836067D01*
X67907881Y-53046598D01*
X67906457Y-53051913D01*
X67886502Y-53280000D01*
X67906457Y-53508087D01*
X67907881Y-53513400D01*
X67907881Y-53513402D01*
X67961377Y-53713048D01*
X67965716Y-53729243D01*
X67968039Y-53734224D01*
X67968039Y-53734225D01*
X68060151Y-53931762D01*
X68060154Y-53931767D01*
X68062477Y-53936749D01*
X68108377Y-54002301D01*
X68179268Y-54103543D01*
X68193802Y-54124300D01*
X68355700Y-54286198D01*
X68360208Y-54289355D01*
X68360211Y-54289357D01*
X68438389Y-54344098D01*
X68543251Y-54417523D01*
X68548233Y-54419846D01*
X68548238Y-54419849D01*
X68582457Y-54435805D01*
X68635742Y-54482722D01*
X68655203Y-54550999D01*
X68634661Y-54618959D01*
X68582457Y-54664195D01*
X68548238Y-54680151D01*
X68548233Y-54680154D01*
X68543251Y-54682477D01*
X68438389Y-54755902D01*
X68360211Y-54810643D01*
X68360208Y-54810645D01*
X68355700Y-54813802D01*
X68193802Y-54975700D01*
X68062477Y-55163251D01*
X68060154Y-55168233D01*
X68060151Y-55168238D01*
X68017558Y-55259580D01*
X67965716Y-55370757D01*
X67964294Y-55376065D01*
X67964293Y-55376067D01*
X67907881Y-55586598D01*
X67906457Y-55591913D01*
X67886502Y-55820000D01*
X59896688Y-55820000D01*
X59937211Y-55722167D01*
X59937212Y-55722165D01*
X59939105Y-55717594D01*
X59969278Y-55591913D01*
X59993380Y-55491524D01*
X59993381Y-55491518D01*
X59994535Y-55486711D01*
X60013165Y-55250000D01*
X59994535Y-55013289D01*
X59982175Y-54961803D01*
X59940260Y-54787218D01*
X59939105Y-54782406D01*
X59899021Y-54685634D01*
X59850135Y-54567611D01*
X59850133Y-54567607D01*
X59848240Y-54563037D01*
X59797993Y-54481041D01*
X59726759Y-54364798D01*
X59726755Y-54364792D01*
X59724176Y-54360584D01*
X59569969Y-54180031D01*
X59389416Y-54025824D01*
X59385208Y-54023245D01*
X59385202Y-54023241D01*
X59191183Y-53904346D01*
X59186963Y-53901760D01*
X59182393Y-53899867D01*
X59182389Y-53899865D01*
X58972167Y-53812789D01*
X58972165Y-53812788D01*
X58967594Y-53810895D01*
X58858055Y-53784597D01*
X58741524Y-53756620D01*
X58741518Y-53756619D01*
X58736711Y-53755465D01*
X58500000Y-53736835D01*
X58263289Y-53755465D01*
X58258482Y-53756619D01*
X58258476Y-53756620D01*
X58141945Y-53784597D01*
X58032406Y-53810895D01*
X58027835Y-53812788D01*
X58027833Y-53812789D01*
X57817611Y-53899865D01*
X57817607Y-53899867D01*
X57813037Y-53901760D01*
X57808817Y-53904346D01*
X57614798Y-54023241D01*
X57614792Y-54023245D01*
X57610584Y-54025824D01*
X57430031Y-54180031D01*
X57275824Y-54360584D01*
X57273245Y-54364792D01*
X57273241Y-54364798D01*
X57202007Y-54481041D01*
X57151760Y-54563037D01*
X57149867Y-54567607D01*
X57149865Y-54567611D01*
X57100979Y-54685634D01*
X57060895Y-54782406D01*
X57059740Y-54787218D01*
X57017826Y-54961803D01*
X57005465Y-55013289D01*
X56986835Y-55250000D01*
X55512275Y-55250000D01*
X55512275Y-55245070D01*
X55494428Y-55018301D01*
X55492885Y-55008554D01*
X55439783Y-54787373D01*
X55436734Y-54777988D01*
X55349687Y-54567837D01*
X55345205Y-54559042D01*
X55242568Y-54391555D01*
X55232110Y-54382093D01*
X55223334Y-54385876D01*
X54372022Y-55237188D01*
X54364408Y-55251132D01*
X53634356Y-55251132D01*
X53635592Y-55248868D01*
X53635461Y-55247035D01*
X53631210Y-55240420D01*
X52779710Y-54388920D01*
X52767330Y-54382160D01*
X52759680Y-54387887D01*
X52654795Y-54559042D01*
X52650313Y-54567837D01*
X52563266Y-54777988D01*
X52560217Y-54787373D01*
X52507115Y-55008554D01*
X52505572Y-55018301D01*
X52487725Y-55245070D01*
X52487725Y-55254930D01*
X50184937Y-55254930D01*
X50139849Y-55158238D01*
X50139846Y-55158233D01*
X50137523Y-55153251D01*
X50013200Y-54975700D01*
X50009357Y-54970211D01*
X50009355Y-54970208D01*
X50006198Y-54965700D01*
X49844300Y-54803802D01*
X49839792Y-54800645D01*
X49839789Y-54800643D01*
X49671030Y-54682477D01*
X49656749Y-54672477D01*
X49651767Y-54670154D01*
X49651762Y-54670151D01*
X49454225Y-54578039D01*
X49454224Y-54578039D01*
X49449243Y-54575716D01*
X49443935Y-54574294D01*
X49443933Y-54574293D01*
X49233402Y-54517881D01*
X49233400Y-54517881D01*
X49228087Y-54516457D01*
X49000000Y-54496502D01*
X48771913Y-54516457D01*
X48766600Y-54517881D01*
X48766598Y-54517881D01*
X48556067Y-54574293D01*
X48556065Y-54574294D01*
X48550757Y-54575716D01*
X48545776Y-54578039D01*
X48545775Y-54578039D01*
X48348238Y-54670151D01*
X48348233Y-54670154D01*
X48343251Y-54672477D01*
X48328970Y-54682477D01*
X48160211Y-54800643D01*
X48160208Y-54800645D01*
X48155700Y-54803802D01*
X47993802Y-54965700D01*
X47990645Y-54970208D01*
X47990643Y-54970211D01*
X47986800Y-54975700D01*
X47862477Y-55153251D01*
X47860154Y-55158233D01*
X47860151Y-55158238D01*
X47812895Y-55259580D01*
X47765716Y-55360757D01*
X47764294Y-55366065D01*
X47764293Y-55366067D01*
X47731966Y-55486711D01*
X47706457Y-55581913D01*
X47686502Y-55810000D01*
X45650830Y-55810000D01*
X45687211Y-55722167D01*
X45687212Y-55722165D01*
X45689105Y-55717594D01*
X45719278Y-55591913D01*
X45743380Y-55491524D01*
X45743381Y-55491518D01*
X45744535Y-55486711D01*
X45763165Y-55250000D01*
X45744535Y-55013289D01*
X45732175Y-54961803D01*
X45690260Y-54787218D01*
X45689105Y-54782406D01*
X45649021Y-54685634D01*
X45600135Y-54567611D01*
X45600133Y-54567607D01*
X45598240Y-54563037D01*
X45547993Y-54481041D01*
X45476759Y-54364798D01*
X45476755Y-54364792D01*
X45474176Y-54360584D01*
X45319969Y-54180031D01*
X45139416Y-54025824D01*
X45135208Y-54023245D01*
X45135202Y-54023241D01*
X45126470Y-54017890D01*
X53132093Y-54017890D01*
X53135876Y-54026666D01*
X53987188Y-54877978D01*
X54001132Y-54885592D01*
X54002965Y-54885461D01*
X54009580Y-54881210D01*
X54861080Y-54029710D01*
X54867840Y-54017330D01*
X54862113Y-54009680D01*
X54690958Y-53904795D01*
X54682163Y-53900313D01*
X54472012Y-53813266D01*
X54462627Y-53810217D01*
X54241446Y-53757115D01*
X54231699Y-53755572D01*
X54004930Y-53737725D01*
X53995070Y-53737725D01*
X53768301Y-53755572D01*
X53758554Y-53757115D01*
X53537373Y-53810217D01*
X53527988Y-53813266D01*
X53317837Y-53900313D01*
X53309042Y-53904795D01*
X53141555Y-54007432D01*
X53132093Y-54017890D01*
X45126470Y-54017890D01*
X44941183Y-53904346D01*
X44936963Y-53901760D01*
X44932393Y-53899867D01*
X44932389Y-53899865D01*
X44722167Y-53812789D01*
X44722165Y-53812788D01*
X44717594Y-53810895D01*
X44608055Y-53784597D01*
X44491524Y-53756620D01*
X44491518Y-53756619D01*
X44486711Y-53755465D01*
X44250000Y-53736835D01*
X44013289Y-53755465D01*
X44008482Y-53756619D01*
X44008476Y-53756620D01*
X43891945Y-53784597D01*
X43782406Y-53810895D01*
X43777835Y-53812788D01*
X43777833Y-53812789D01*
X43567611Y-53899865D01*
X43567607Y-53899867D01*
X43563037Y-53901760D01*
X43558817Y-53904346D01*
X43364798Y-54023241D01*
X43364792Y-54023245D01*
X43360584Y-54025824D01*
X43180031Y-54180031D01*
X43025824Y-54360584D01*
X43023245Y-54364792D01*
X43023241Y-54364798D01*
X42952007Y-54481041D01*
X42901760Y-54563037D01*
X42899867Y-54567607D01*
X42899865Y-54567611D01*
X42850979Y-54685634D01*
X42810895Y-54782406D01*
X42809740Y-54787218D01*
X42767826Y-54961803D01*
X42755465Y-55013289D01*
X42736835Y-55250000D01*
X41262275Y-55250000D01*
X41262275Y-55245070D01*
X41244428Y-55018301D01*
X41242885Y-55008554D01*
X41189783Y-54787373D01*
X41186734Y-54777988D01*
X41099687Y-54567837D01*
X41095205Y-54559042D01*
X40992568Y-54391555D01*
X40982110Y-54382093D01*
X40973334Y-54385876D01*
X40122022Y-55237188D01*
X40114408Y-55251132D01*
X39384356Y-55251132D01*
X39385592Y-55248868D01*
X39385461Y-55247035D01*
X39381210Y-55240420D01*
X38529710Y-54388920D01*
X38517330Y-54382160D01*
X38509680Y-54387887D01*
X38404795Y-54559042D01*
X38400313Y-54567837D01*
X38313266Y-54777988D01*
X38310217Y-54787373D01*
X38257115Y-55008554D01*
X38255572Y-55018301D01*
X38237725Y-55245070D01*
X38237725Y-55254930D01*
X30508500Y-55254930D01*
X30508500Y-54017890D01*
X38882093Y-54017890D01*
X38885876Y-54026666D01*
X39737188Y-54877978D01*
X39751132Y-54885592D01*
X39752965Y-54885461D01*
X39759580Y-54881210D01*
X40611080Y-54029710D01*
X40617840Y-54017330D01*
X40612113Y-54009680D01*
X40440958Y-53904795D01*
X40432163Y-53900313D01*
X40222012Y-53813266D01*
X40212627Y-53810217D01*
X39991446Y-53757115D01*
X39981699Y-53755572D01*
X39754930Y-53737725D01*
X39745070Y-53737725D01*
X39518301Y-53755572D01*
X39508554Y-53757115D01*
X39287373Y-53810217D01*
X39277988Y-53813266D01*
X39067837Y-53900313D01*
X39059042Y-53904795D01*
X38891555Y-54007432D01*
X38882093Y-54017890D01*
X30508500Y-54017890D01*
X30508500Y-52810000D01*
X62186502Y-52810000D01*
X62206457Y-53038087D01*
X62207881Y-53043400D01*
X62207881Y-53043402D01*
X62208738Y-53046598D01*
X62265716Y-53259243D01*
X62268039Y-53264224D01*
X62268039Y-53264225D01*
X62360151Y-53461762D01*
X62360154Y-53461767D01*
X62362477Y-53466749D01*
X62493802Y-53654300D01*
X62655700Y-53816198D01*
X62660208Y-53819355D01*
X62660211Y-53819357D01*
X62701399Y-53848197D01*
X62843251Y-53947523D01*
X62848233Y-53949846D01*
X62848238Y-53949849D01*
X63045775Y-54041961D01*
X63050757Y-54044284D01*
X63056065Y-54045706D01*
X63056067Y-54045707D01*
X63266598Y-54102119D01*
X63266600Y-54102119D01*
X63271913Y-54103543D01*
X63500000Y-54123498D01*
X63728087Y-54103543D01*
X63733400Y-54102119D01*
X63733402Y-54102119D01*
X63943933Y-54045707D01*
X63943935Y-54045706D01*
X63949243Y-54044284D01*
X63954225Y-54041961D01*
X64151762Y-53949849D01*
X64151767Y-53949846D01*
X64156749Y-53947523D01*
X64298601Y-53848197D01*
X64339789Y-53819357D01*
X64339792Y-53819355D01*
X64344300Y-53816198D01*
X64506198Y-53654300D01*
X64637523Y-53466749D01*
X64639846Y-53461767D01*
X64639849Y-53461762D01*
X64731961Y-53264225D01*
X64731961Y-53264224D01*
X64734284Y-53259243D01*
X64791263Y-53046598D01*
X64792119Y-53043402D01*
X64792119Y-53043400D01*
X64793543Y-53038087D01*
X64813498Y-52810000D01*
X64793543Y-52581913D01*
X64783860Y-52545775D01*
X64735707Y-52366067D01*
X64735706Y-52366065D01*
X64734284Y-52360757D01*
X64731961Y-52355775D01*
X64639849Y-52158238D01*
X64639846Y-52158233D01*
X64637523Y-52153251D01*
X64528604Y-51997699D01*
X64509357Y-51970211D01*
X64509355Y-51970208D01*
X64506198Y-51965700D01*
X64344300Y-51803802D01*
X64339792Y-51800645D01*
X64339789Y-51800643D01*
X64256468Y-51742301D01*
X64156749Y-51672477D01*
X64151767Y-51670154D01*
X64151762Y-51670151D01*
X63954225Y-51578039D01*
X63954224Y-51578039D01*
X63949243Y-51575716D01*
X63943935Y-51574294D01*
X63943933Y-51574293D01*
X63733402Y-51517881D01*
X63733400Y-51517881D01*
X63728087Y-51516457D01*
X63500000Y-51496502D01*
X63271913Y-51516457D01*
X63266600Y-51517881D01*
X63266598Y-51517881D01*
X63056067Y-51574293D01*
X63056065Y-51574294D01*
X63050757Y-51575716D01*
X63045776Y-51578039D01*
X63045775Y-51578039D01*
X62848238Y-51670151D01*
X62848233Y-51670154D01*
X62843251Y-51672477D01*
X62743532Y-51742301D01*
X62660211Y-51800643D01*
X62660208Y-51800645D01*
X62655700Y-51803802D01*
X62493802Y-51965700D01*
X62490645Y-51970208D01*
X62490643Y-51970211D01*
X62471396Y-51997699D01*
X62362477Y-52153251D01*
X62360154Y-52158233D01*
X62360151Y-52158238D01*
X62268039Y-52355775D01*
X62265716Y-52360757D01*
X62264294Y-52366065D01*
X62264293Y-52366067D01*
X62216140Y-52545775D01*
X62206457Y-52581913D01*
X62186502Y-52810000D01*
X30508500Y-52810000D01*
X30508500Y-49982670D01*
X38882160Y-49982670D01*
X38887887Y-49990320D01*
X39059042Y-50095205D01*
X39067837Y-50099687D01*
X39277988Y-50186734D01*
X39287373Y-50189783D01*
X39508554Y-50242885D01*
X39518301Y-50244428D01*
X39745070Y-50262275D01*
X39754930Y-50262275D01*
X39981699Y-50244428D01*
X39991446Y-50242885D01*
X40212627Y-50189783D01*
X40222012Y-50186734D01*
X40432163Y-50099687D01*
X40440958Y-50095205D01*
X40608445Y-49992568D01*
X40617907Y-49982110D01*
X40614124Y-49973334D01*
X39762812Y-49122022D01*
X39748868Y-49114408D01*
X39747035Y-49114539D01*
X39740420Y-49118790D01*
X38888920Y-49970290D01*
X38882160Y-49982670D01*
X30508500Y-49982670D01*
X30508500Y-48754930D01*
X38237725Y-48754930D01*
X38255572Y-48981699D01*
X38257115Y-48991446D01*
X38310217Y-49212627D01*
X38313266Y-49222012D01*
X38400313Y-49432163D01*
X38404795Y-49440958D01*
X38507432Y-49608445D01*
X38517890Y-49617907D01*
X38526666Y-49614124D01*
X39377978Y-48762812D01*
X39384356Y-48751132D01*
X40114408Y-48751132D01*
X40114539Y-48752965D01*
X40118790Y-48759580D01*
X40970290Y-49611080D01*
X40982670Y-49617840D01*
X40990320Y-49612113D01*
X41095205Y-49440958D01*
X41099687Y-49432163D01*
X41186734Y-49222012D01*
X41189783Y-49212627D01*
X41242885Y-48991446D01*
X41244428Y-48981699D01*
X41262275Y-48754930D01*
X41262275Y-48750000D01*
X42736835Y-48750000D01*
X42755465Y-48986711D01*
X42756619Y-48991518D01*
X42756620Y-48991524D01*
X42769075Y-49043402D01*
X42810895Y-49217594D01*
X42812788Y-49222165D01*
X42812789Y-49222167D01*
X42899772Y-49432163D01*
X42901760Y-49436963D01*
X42904346Y-49441183D01*
X43023241Y-49635202D01*
X43023245Y-49635208D01*
X43025824Y-49639416D01*
X43180031Y-49819969D01*
X43360584Y-49974176D01*
X43364792Y-49976755D01*
X43364798Y-49976759D01*
X43477311Y-50045707D01*
X43563037Y-50098240D01*
X43567607Y-50100133D01*
X43567611Y-50100135D01*
X43777833Y-50187211D01*
X43782406Y-50189105D01*
X43862609Y-50208360D01*
X44008476Y-50243380D01*
X44008482Y-50243381D01*
X44013289Y-50244535D01*
X44250000Y-50263165D01*
X44486711Y-50244535D01*
X44491518Y-50243381D01*
X44491524Y-50243380D01*
X44637391Y-50208360D01*
X44717594Y-50189105D01*
X44722167Y-50187211D01*
X44932389Y-50100135D01*
X44932393Y-50100133D01*
X44936963Y-50098240D01*
X45022689Y-50045707D01*
X45125556Y-49982670D01*
X53132160Y-49982670D01*
X53137887Y-49990320D01*
X53309042Y-50095205D01*
X53317837Y-50099687D01*
X53527988Y-50186734D01*
X53537373Y-50189783D01*
X53758554Y-50242885D01*
X53768301Y-50244428D01*
X53995070Y-50262275D01*
X54004930Y-50262275D01*
X54231699Y-50244428D01*
X54241446Y-50242885D01*
X54462627Y-50189783D01*
X54472012Y-50186734D01*
X54682163Y-50099687D01*
X54690958Y-50095205D01*
X54858445Y-49992568D01*
X54867907Y-49982110D01*
X54864124Y-49973334D01*
X54012812Y-49122022D01*
X53998868Y-49114408D01*
X53997035Y-49114539D01*
X53990420Y-49118790D01*
X53138920Y-49970290D01*
X53132160Y-49982670D01*
X45125556Y-49982670D01*
X45135202Y-49976759D01*
X45135208Y-49976755D01*
X45139416Y-49974176D01*
X45319969Y-49819969D01*
X45474176Y-49639416D01*
X45476755Y-49635208D01*
X45476759Y-49635202D01*
X45595654Y-49441183D01*
X45598240Y-49436963D01*
X45600229Y-49432163D01*
X45687211Y-49222167D01*
X45687212Y-49222165D01*
X45689105Y-49217594D01*
X45730925Y-49043402D01*
X45743380Y-48991524D01*
X45743381Y-48991518D01*
X45744535Y-48986711D01*
X45763165Y-48750000D01*
X45744535Y-48513289D01*
X45731376Y-48458475D01*
X45690260Y-48287218D01*
X45689105Y-48282406D01*
X45687211Y-48277833D01*
X45650830Y-48190000D01*
X47686502Y-48190000D01*
X47706457Y-48418087D01*
X47707881Y-48423400D01*
X47707881Y-48423402D01*
X47733289Y-48518223D01*
X47765716Y-48639243D01*
X47768039Y-48644224D01*
X47768039Y-48644225D01*
X47860151Y-48841762D01*
X47860154Y-48841767D01*
X47862477Y-48846749D01*
X47872636Y-48861257D01*
X47966086Y-48994717D01*
X47993802Y-49034300D01*
X48155700Y-49196198D01*
X48160208Y-49199355D01*
X48160211Y-49199357D01*
X48192566Y-49222012D01*
X48343251Y-49327523D01*
X48348233Y-49329846D01*
X48348238Y-49329849D01*
X48545775Y-49421961D01*
X48550757Y-49424284D01*
X48556065Y-49425706D01*
X48556067Y-49425707D01*
X48766598Y-49482119D01*
X48766600Y-49482119D01*
X48771913Y-49483543D01*
X49000000Y-49503498D01*
X49228087Y-49483543D01*
X49233400Y-49482119D01*
X49233402Y-49482119D01*
X49443933Y-49425707D01*
X49443935Y-49425706D01*
X49449243Y-49424284D01*
X49454225Y-49421961D01*
X49651762Y-49329849D01*
X49651767Y-49329846D01*
X49656749Y-49327523D01*
X49807434Y-49222012D01*
X49839789Y-49199357D01*
X49839792Y-49199355D01*
X49844300Y-49196198D01*
X50006198Y-49034300D01*
X50033915Y-48994717D01*
X50127364Y-48861257D01*
X50137523Y-48846749D01*
X50139846Y-48841767D01*
X50139849Y-48841762D01*
X50180339Y-48754930D01*
X52487725Y-48754930D01*
X52505572Y-48981699D01*
X52507115Y-48991446D01*
X52560217Y-49212627D01*
X52563266Y-49222012D01*
X52650313Y-49432163D01*
X52654795Y-49440958D01*
X52757432Y-49608445D01*
X52767890Y-49617907D01*
X52776666Y-49614124D01*
X53627978Y-48762812D01*
X53634356Y-48751132D01*
X54364408Y-48751132D01*
X54364539Y-48752965D01*
X54368790Y-48759580D01*
X55220290Y-49611080D01*
X55232670Y-49617840D01*
X55240320Y-49612113D01*
X55345205Y-49440958D01*
X55349687Y-49432163D01*
X55436734Y-49222012D01*
X55439783Y-49212627D01*
X55492885Y-48991446D01*
X55494428Y-48981699D01*
X55512275Y-48754930D01*
X55512275Y-48745070D01*
X55494428Y-48518301D01*
X55492885Y-48508554D01*
X55439783Y-48287373D01*
X55436734Y-48277988D01*
X55349687Y-48067837D01*
X55345205Y-48059042D01*
X55242568Y-47891555D01*
X55232110Y-47882093D01*
X55223334Y-47885876D01*
X54372022Y-48737188D01*
X54364408Y-48751132D01*
X53634356Y-48751132D01*
X53635592Y-48748868D01*
X53635461Y-48747035D01*
X53631210Y-48740420D01*
X52779710Y-47888920D01*
X52767330Y-47882160D01*
X52759680Y-47887887D01*
X52654795Y-48059042D01*
X52650313Y-48067837D01*
X52563266Y-48277988D01*
X52560217Y-48287373D01*
X52507115Y-48508554D01*
X52505572Y-48518301D01*
X52487725Y-48745070D01*
X52487725Y-48754930D01*
X50180339Y-48754930D01*
X50231961Y-48644225D01*
X50231961Y-48644224D01*
X50234284Y-48639243D01*
X50266712Y-48518223D01*
X50292119Y-48423402D01*
X50292119Y-48423400D01*
X50293543Y-48418087D01*
X50313498Y-48190000D01*
X50293543Y-47961913D01*
X50289279Y-47946000D01*
X50235707Y-47746067D01*
X50235706Y-47746065D01*
X50234284Y-47740757D01*
X50205967Y-47680031D01*
X50139849Y-47538238D01*
X50139846Y-47538233D01*
X50137523Y-47533251D01*
X50050171Y-47408500D01*
X50009357Y-47350211D01*
X50009355Y-47350208D01*
X50006198Y-47345700D01*
X49844300Y-47183802D01*
X49839792Y-47180645D01*
X49839789Y-47180643D01*
X49760817Y-47125346D01*
X49716489Y-47069888D01*
X49709180Y-46999269D01*
X49741211Y-46935909D01*
X49802412Y-46899924D01*
X49859286Y-46898887D01*
X49898049Y-46907127D01*
X49898058Y-46907128D01*
X49904513Y-46908500D01*
X49959691Y-46908500D01*
X50027812Y-46928502D01*
X50045942Y-46942648D01*
X50057651Y-46953643D01*
X50060495Y-46956400D01*
X50080230Y-46976135D01*
X50083427Y-46978615D01*
X50092447Y-46986318D01*
X50124679Y-47016586D01*
X50131625Y-47020405D01*
X50131628Y-47020407D01*
X50142434Y-47026348D01*
X50158953Y-47037199D01*
X50174959Y-47049614D01*
X50182228Y-47052759D01*
X50182232Y-47052762D01*
X50215537Y-47067174D01*
X50226187Y-47072391D01*
X50264940Y-47093695D01*
X50272615Y-47095666D01*
X50272616Y-47095666D01*
X50284562Y-47098733D01*
X50303267Y-47105137D01*
X50321855Y-47113181D01*
X50329678Y-47114420D01*
X50329688Y-47114423D01*
X50365524Y-47120099D01*
X50377144Y-47122505D01*
X50412289Y-47131528D01*
X50419970Y-47133500D01*
X50440224Y-47133500D01*
X50459934Y-47135051D01*
X50479943Y-47138220D01*
X50487835Y-47137474D01*
X50523961Y-47134059D01*
X50535819Y-47133500D01*
X53328536Y-47133500D01*
X53396657Y-47153502D01*
X53443150Y-47207158D01*
X53453254Y-47277432D01*
X53423760Y-47342012D01*
X53376754Y-47375909D01*
X53317837Y-47400313D01*
X53309042Y-47404795D01*
X53141555Y-47507432D01*
X53132093Y-47517890D01*
X53135876Y-47526666D01*
X53987188Y-48377978D01*
X54001132Y-48385592D01*
X54002965Y-48385461D01*
X54009580Y-48381210D01*
X54861080Y-47529710D01*
X54867840Y-47517330D01*
X54862113Y-47509680D01*
X54690958Y-47404795D01*
X54682163Y-47400313D01*
X54623246Y-47375909D01*
X54567965Y-47331361D01*
X54545544Y-47263997D01*
X54563102Y-47195206D01*
X54615064Y-47146828D01*
X54671464Y-47133500D01*
X57827229Y-47133500D01*
X57895350Y-47153502D01*
X57941843Y-47207158D01*
X57951947Y-47277432D01*
X57922453Y-47342012D01*
X57875447Y-47375909D01*
X57817611Y-47399865D01*
X57817607Y-47399867D01*
X57813037Y-47401760D01*
X57808817Y-47404346D01*
X57614798Y-47523241D01*
X57614792Y-47523245D01*
X57610584Y-47525824D01*
X57430031Y-47680031D01*
X57275824Y-47860584D01*
X57273245Y-47864792D01*
X57273241Y-47864798D01*
X57213729Y-47961913D01*
X57151760Y-48063037D01*
X57149867Y-48067607D01*
X57149865Y-48067611D01*
X57062789Y-48277833D01*
X57060895Y-48282406D01*
X57059740Y-48287218D01*
X57018625Y-48458475D01*
X57005465Y-48513289D01*
X56986835Y-48750000D01*
X57005465Y-48986711D01*
X57006619Y-48991518D01*
X57006620Y-48991524D01*
X57019075Y-49043402D01*
X57060895Y-49217594D01*
X57062788Y-49222165D01*
X57062789Y-49222167D01*
X57149772Y-49432163D01*
X57151760Y-49436963D01*
X57154346Y-49441183D01*
X57273241Y-49635202D01*
X57273245Y-49635208D01*
X57275824Y-49639416D01*
X57430031Y-49819969D01*
X57610584Y-49974176D01*
X57614792Y-49976755D01*
X57614798Y-49976759D01*
X57727311Y-50045707D01*
X57813037Y-50098240D01*
X57817607Y-50100133D01*
X57817611Y-50100135D01*
X58027833Y-50187211D01*
X58032406Y-50189105D01*
X58112609Y-50208360D01*
X58258476Y-50243380D01*
X58258482Y-50243381D01*
X58263289Y-50244535D01*
X58500000Y-50263165D01*
X58736711Y-50244535D01*
X58741518Y-50243381D01*
X58741524Y-50243380D01*
X58887391Y-50208360D01*
X58967594Y-50189105D01*
X58972167Y-50187211D01*
X59182389Y-50100135D01*
X59182393Y-50100133D01*
X59186963Y-50098240D01*
X59272689Y-50045707D01*
X59385202Y-49976759D01*
X59385208Y-49976755D01*
X59389416Y-49974176D01*
X59569969Y-49819969D01*
X59724176Y-49639416D01*
X59726755Y-49635208D01*
X59726759Y-49635202D01*
X59845654Y-49441183D01*
X59848240Y-49436963D01*
X59850229Y-49432163D01*
X59937211Y-49222167D01*
X59937212Y-49222165D01*
X59939105Y-49217594D01*
X59980925Y-49043402D01*
X59993380Y-48991524D01*
X59993381Y-48991518D01*
X59994535Y-48986711D01*
X60013165Y-48750000D01*
X59994535Y-48513289D01*
X59981376Y-48458475D01*
X59940260Y-48287218D01*
X59939105Y-48282406D01*
X59937211Y-48277833D01*
X59850135Y-48067611D01*
X59850133Y-48067607D01*
X59848240Y-48063037D01*
X59786271Y-47961913D01*
X59765419Y-47927885D01*
X67892000Y-47927885D01*
X67896475Y-47943124D01*
X67897865Y-47944329D01*
X67905548Y-47946000D01*
X68927885Y-47946000D01*
X68943124Y-47941525D01*
X68944329Y-47940135D01*
X68946000Y-47932452D01*
X68946000Y-47927885D01*
X69454000Y-47927885D01*
X69458475Y-47943124D01*
X69459865Y-47944329D01*
X69467548Y-47946000D01*
X70489884Y-47946000D01*
X70505123Y-47941525D01*
X70506328Y-47940135D01*
X70507999Y-47932452D01*
X70507999Y-47355331D01*
X70507629Y-47348510D01*
X70502105Y-47297648D01*
X70498479Y-47282396D01*
X70453324Y-47161946D01*
X70444786Y-47146351D01*
X70368285Y-47044276D01*
X70355724Y-47031715D01*
X70253649Y-46955214D01*
X70238054Y-46946676D01*
X70117606Y-46901522D01*
X70102351Y-46897895D01*
X70051486Y-46892369D01*
X70044672Y-46892000D01*
X69472115Y-46892000D01*
X69456876Y-46896475D01*
X69455671Y-46897865D01*
X69454000Y-46905548D01*
X69454000Y-47927885D01*
X68946000Y-47927885D01*
X68946000Y-46910116D01*
X68941525Y-46894877D01*
X68940135Y-46893672D01*
X68932452Y-46892001D01*
X68355331Y-46892001D01*
X68348510Y-46892371D01*
X68297648Y-46897895D01*
X68282396Y-46901521D01*
X68161946Y-46946676D01*
X68146351Y-46955214D01*
X68044276Y-47031715D01*
X68031715Y-47044276D01*
X67955214Y-47146351D01*
X67946676Y-47161946D01*
X67901522Y-47282394D01*
X67897895Y-47297649D01*
X67892369Y-47348514D01*
X67892000Y-47355328D01*
X67892000Y-47927885D01*
X59765419Y-47927885D01*
X59726759Y-47864798D01*
X59726755Y-47864792D01*
X59724176Y-47860584D01*
X59569969Y-47680031D01*
X59389416Y-47525824D01*
X59385208Y-47523245D01*
X59385202Y-47523241D01*
X59191183Y-47404346D01*
X59186963Y-47401760D01*
X59182393Y-47399867D01*
X59182389Y-47399865D01*
X59124553Y-47375909D01*
X59069272Y-47331361D01*
X59046851Y-47263997D01*
X59064409Y-47195206D01*
X59116371Y-47146828D01*
X59172771Y-47133500D01*
X59291800Y-47133500D01*
X59359921Y-47153502D01*
X59379147Y-47169843D01*
X59379420Y-47169540D01*
X59384332Y-47173963D01*
X59388747Y-47178866D01*
X59543248Y-47291118D01*
X59549276Y-47293802D01*
X59549278Y-47293803D01*
X59687473Y-47355331D01*
X59717712Y-47368794D01*
X59811113Y-47388647D01*
X59898056Y-47407128D01*
X59898061Y-47407128D01*
X59904513Y-47408500D01*
X60095487Y-47408500D01*
X60101939Y-47407128D01*
X60101944Y-47407128D01*
X60188888Y-47388647D01*
X60282288Y-47368794D01*
X60312527Y-47355331D01*
X60450722Y-47293803D01*
X60450724Y-47293802D01*
X60456752Y-47291118D01*
X60611253Y-47178866D01*
X60647851Y-47138220D01*
X60734621Y-47041852D01*
X60734622Y-47041851D01*
X60739040Y-47036944D01*
X60814377Y-46906457D01*
X60831223Y-46877279D01*
X60831224Y-46877278D01*
X60834527Y-46871556D01*
X60893542Y-46689928D01*
X60913504Y-46500000D01*
X60895376Y-46327523D01*
X60894232Y-46316635D01*
X60894232Y-46316633D01*
X60893542Y-46310072D01*
X60834527Y-46128444D01*
X60739040Y-45963056D01*
X60611253Y-45821134D01*
X60456752Y-45708882D01*
X60450724Y-45706198D01*
X60450722Y-45706197D01*
X60288319Y-45633891D01*
X60288318Y-45633891D01*
X60282288Y-45631206D01*
X60188888Y-45611353D01*
X60101944Y-45592872D01*
X60101939Y-45592872D01*
X60095487Y-45591500D01*
X59904513Y-45591500D01*
X59898061Y-45592872D01*
X59898056Y-45592872D01*
X59811112Y-45611353D01*
X59717712Y-45631206D01*
X59711682Y-45633891D01*
X59711681Y-45633891D01*
X59549278Y-45706197D01*
X59549276Y-45706198D01*
X59543248Y-45708882D01*
X59388747Y-45821134D01*
X59384332Y-45826037D01*
X59379420Y-45830460D01*
X59378295Y-45829211D01*
X59324986Y-45862051D01*
X59291800Y-45866500D01*
X51003421Y-45866500D01*
X50935300Y-45846498D01*
X50888807Y-45792842D01*
X50883588Y-45779437D01*
X50859791Y-45706197D01*
X50834527Y-45628444D01*
X50813990Y-45592872D01*
X50742341Y-45468774D01*
X50739040Y-45463056D01*
X50703336Y-45423402D01*
X50615675Y-45326045D01*
X50615674Y-45326044D01*
X50611253Y-45321134D01*
X50491715Y-45234284D01*
X50462094Y-45212763D01*
X50462093Y-45212762D01*
X50456752Y-45208882D01*
X50450724Y-45206198D01*
X50450722Y-45206197D01*
X50288319Y-45133891D01*
X50288318Y-45133891D01*
X50282288Y-45131206D01*
X50188887Y-45111353D01*
X50101944Y-45092872D01*
X50101939Y-45092872D01*
X50095487Y-45091500D01*
X49904513Y-45091500D01*
X49898061Y-45092872D01*
X49898056Y-45092872D01*
X49811113Y-45111353D01*
X49717712Y-45131206D01*
X49711682Y-45133891D01*
X49711681Y-45133891D01*
X49549278Y-45206197D01*
X49549276Y-45206198D01*
X49543248Y-45208882D01*
X49537907Y-45212762D01*
X49537906Y-45212763D01*
X49508285Y-45234284D01*
X49388747Y-45321134D01*
X49384326Y-45326044D01*
X49384325Y-45326045D01*
X49296665Y-45423402D01*
X49260960Y-45463056D01*
X49257659Y-45468774D01*
X49186011Y-45592872D01*
X49165473Y-45628444D01*
X49106458Y-45810072D01*
X49105768Y-45816633D01*
X49105768Y-45816635D01*
X49102603Y-45846749D01*
X49086496Y-46000000D01*
X49106458Y-46189928D01*
X49165473Y-46371556D01*
X49260960Y-46536944D01*
X49388747Y-46678866D01*
X49407095Y-46692197D01*
X49450448Y-46748416D01*
X49456525Y-46819152D01*
X49423394Y-46881944D01*
X49361575Y-46916857D01*
X49300423Y-46915839D01*
X49233402Y-46897881D01*
X49233400Y-46897881D01*
X49228087Y-46896457D01*
X49000000Y-46876502D01*
X48771913Y-46896457D01*
X48766600Y-46897881D01*
X48766598Y-46897881D01*
X48556067Y-46954293D01*
X48556065Y-46954294D01*
X48550757Y-46955716D01*
X48545776Y-46958039D01*
X48545775Y-46958039D01*
X48348238Y-47050151D01*
X48348233Y-47050154D01*
X48343251Y-47052477D01*
X48328970Y-47062477D01*
X48160211Y-47180643D01*
X48160208Y-47180645D01*
X48155700Y-47183802D01*
X47993802Y-47345700D01*
X47990645Y-47350208D01*
X47990643Y-47350211D01*
X47949829Y-47408500D01*
X47862477Y-47533251D01*
X47860154Y-47538233D01*
X47860151Y-47538238D01*
X47794033Y-47680031D01*
X47765716Y-47740757D01*
X47764294Y-47746065D01*
X47764293Y-47746067D01*
X47710721Y-47946000D01*
X47706457Y-47961913D01*
X47686502Y-48190000D01*
X45650830Y-48190000D01*
X45600135Y-48067611D01*
X45600133Y-48067607D01*
X45598240Y-48063037D01*
X45536271Y-47961913D01*
X45476759Y-47864798D01*
X45476755Y-47864792D01*
X45474176Y-47860584D01*
X45319969Y-47680031D01*
X45139416Y-47525824D01*
X45135208Y-47523245D01*
X45135202Y-47523241D01*
X44941183Y-47404346D01*
X44936963Y-47401760D01*
X44932393Y-47399867D01*
X44932389Y-47399865D01*
X44722167Y-47312789D01*
X44722165Y-47312788D01*
X44717594Y-47310895D01*
X44598879Y-47282394D01*
X44491524Y-47256620D01*
X44491518Y-47256619D01*
X44486711Y-47255465D01*
X44250000Y-47236835D01*
X44013289Y-47255465D01*
X44008482Y-47256619D01*
X44008476Y-47256620D01*
X43901121Y-47282394D01*
X43782406Y-47310895D01*
X43777835Y-47312788D01*
X43777833Y-47312789D01*
X43567611Y-47399865D01*
X43567607Y-47399867D01*
X43563037Y-47401760D01*
X43558817Y-47404346D01*
X43364798Y-47523241D01*
X43364792Y-47523245D01*
X43360584Y-47525824D01*
X43180031Y-47680031D01*
X43025824Y-47860584D01*
X43023245Y-47864792D01*
X43023241Y-47864798D01*
X42963729Y-47961913D01*
X42901760Y-48063037D01*
X42899867Y-48067607D01*
X42899865Y-48067611D01*
X42812789Y-48277833D01*
X42810895Y-48282406D01*
X42809740Y-48287218D01*
X42768625Y-48458475D01*
X42755465Y-48513289D01*
X42736835Y-48750000D01*
X41262275Y-48750000D01*
X41262275Y-48745070D01*
X41244428Y-48518301D01*
X41242885Y-48508554D01*
X41189783Y-48287373D01*
X41186734Y-48277988D01*
X41099687Y-48067837D01*
X41095205Y-48059042D01*
X40992568Y-47891555D01*
X40982110Y-47882093D01*
X40973334Y-47885876D01*
X40122022Y-48737188D01*
X40114408Y-48751132D01*
X39384356Y-48751132D01*
X39385592Y-48748868D01*
X39385461Y-48747035D01*
X39381210Y-48740420D01*
X38529710Y-47888920D01*
X38517330Y-47882160D01*
X38509680Y-47887887D01*
X38404795Y-48059042D01*
X38400313Y-48067837D01*
X38313266Y-48277988D01*
X38310217Y-48287373D01*
X38257115Y-48508554D01*
X38255572Y-48518301D01*
X38237725Y-48745070D01*
X38237725Y-48754930D01*
X30508500Y-48754930D01*
X30508500Y-47517890D01*
X38882093Y-47517890D01*
X38885876Y-47526666D01*
X39737188Y-48377978D01*
X39751132Y-48385592D01*
X39752965Y-48385461D01*
X39759580Y-48381210D01*
X40611080Y-47529710D01*
X40617840Y-47517330D01*
X40612113Y-47509680D01*
X40440958Y-47404795D01*
X40432163Y-47400313D01*
X40222012Y-47313266D01*
X40212627Y-47310217D01*
X39991446Y-47257115D01*
X39981699Y-47255572D01*
X39754930Y-47237725D01*
X39745070Y-47237725D01*
X39518301Y-47255572D01*
X39508554Y-47257115D01*
X39287373Y-47310217D01*
X39277988Y-47313266D01*
X39067837Y-47400313D01*
X39059042Y-47404795D01*
X38891555Y-47507432D01*
X38882093Y-47517890D01*
X30508500Y-47517890D01*
X30508500Y-44000000D01*
X47186502Y-44000000D01*
X47206457Y-44228087D01*
X47207881Y-44233400D01*
X47207881Y-44233402D01*
X47245025Y-44372022D01*
X47265716Y-44449243D01*
X47268039Y-44454224D01*
X47268039Y-44454225D01*
X47360151Y-44651762D01*
X47360154Y-44651767D01*
X47362477Y-44656749D01*
X47493802Y-44844300D01*
X47655700Y-45006198D01*
X47660208Y-45009355D01*
X47660211Y-45009357D01*
X47738389Y-45064098D01*
X47843251Y-45137523D01*
X47848233Y-45139846D01*
X47848238Y-45139849D01*
X48044765Y-45231490D01*
X48050757Y-45234284D01*
X48056065Y-45235706D01*
X48056067Y-45235707D01*
X48266598Y-45292119D01*
X48266600Y-45292119D01*
X48271913Y-45293543D01*
X48500000Y-45313498D01*
X48728087Y-45293543D01*
X48733400Y-45292119D01*
X48733402Y-45292119D01*
X48943933Y-45235707D01*
X48943935Y-45235706D01*
X48949243Y-45234284D01*
X48955235Y-45231490D01*
X49151762Y-45139849D01*
X49151767Y-45139846D01*
X49156749Y-45137523D01*
X49230243Y-45086062D01*
X52778493Y-45086062D01*
X52787789Y-45098077D01*
X52838994Y-45133931D01*
X52848489Y-45139414D01*
X53045947Y-45231490D01*
X53056239Y-45235236D01*
X53266688Y-45291625D01*
X53277481Y-45293528D01*
X53494525Y-45312517D01*
X53505475Y-45312517D01*
X53722519Y-45293528D01*
X53733312Y-45291625D01*
X53943761Y-45235236D01*
X53954053Y-45231490D01*
X54043029Y-45190000D01*
X62186502Y-45190000D01*
X62206457Y-45418087D01*
X62207881Y-45423400D01*
X62207881Y-45423402D01*
X62220039Y-45468774D01*
X62265716Y-45639243D01*
X62268039Y-45644224D01*
X62268039Y-45644225D01*
X62360151Y-45841762D01*
X62360154Y-45841767D01*
X62362477Y-45846749D01*
X62365634Y-45851257D01*
X62474382Y-46006565D01*
X62493802Y-46034300D01*
X62655700Y-46196198D01*
X62660208Y-46199355D01*
X62660211Y-46199357D01*
X62738389Y-46254098D01*
X62843251Y-46327523D01*
X62848233Y-46329846D01*
X62848238Y-46329849D01*
X63045775Y-46421961D01*
X63050757Y-46424284D01*
X63056065Y-46425706D01*
X63056067Y-46425707D01*
X63266598Y-46482119D01*
X63266600Y-46482119D01*
X63271913Y-46483543D01*
X63500000Y-46503498D01*
X63728087Y-46483543D01*
X63733400Y-46482119D01*
X63733402Y-46482119D01*
X63943933Y-46425707D01*
X63943935Y-46425706D01*
X63949243Y-46424284D01*
X63954225Y-46421961D01*
X64151762Y-46329849D01*
X64151767Y-46329846D01*
X64156749Y-46327523D01*
X64261611Y-46254098D01*
X64339789Y-46199357D01*
X64339792Y-46199355D01*
X64344300Y-46196198D01*
X64506198Y-46034300D01*
X64525619Y-46006565D01*
X64634366Y-45851257D01*
X64637523Y-45846749D01*
X64639846Y-45841767D01*
X64639849Y-45841762D01*
X64731961Y-45644225D01*
X64731961Y-45644224D01*
X64734284Y-45639243D01*
X64779962Y-45468774D01*
X64792119Y-45423402D01*
X64792119Y-45423400D01*
X64793543Y-45418087D01*
X64813498Y-45190000D01*
X64793543Y-44961913D01*
X64734284Y-44740757D01*
X64695111Y-44656749D01*
X64639849Y-44538238D01*
X64639846Y-44538233D01*
X64637523Y-44533251D01*
X64522366Y-44368790D01*
X64509357Y-44350211D01*
X64509355Y-44350208D01*
X64506198Y-44345700D01*
X64344300Y-44183802D01*
X64339792Y-44180645D01*
X64339789Y-44180643D01*
X64261611Y-44125902D01*
X64156749Y-44052477D01*
X64151767Y-44050154D01*
X64151762Y-44050151D01*
X63954225Y-43958039D01*
X63954224Y-43958039D01*
X63949243Y-43955716D01*
X63943935Y-43954294D01*
X63943933Y-43954293D01*
X63733402Y-43897881D01*
X63733400Y-43897881D01*
X63728087Y-43896457D01*
X63500000Y-43876502D01*
X63271913Y-43896457D01*
X63266600Y-43897881D01*
X63266598Y-43897881D01*
X63056067Y-43954293D01*
X63056065Y-43954294D01*
X63050757Y-43955716D01*
X63045776Y-43958039D01*
X63045775Y-43958039D01*
X62848238Y-44050151D01*
X62848233Y-44050154D01*
X62843251Y-44052477D01*
X62738389Y-44125902D01*
X62660211Y-44180643D01*
X62660208Y-44180645D01*
X62655700Y-44183802D01*
X62493802Y-44345700D01*
X62490645Y-44350208D01*
X62490643Y-44350211D01*
X62477634Y-44368790D01*
X62362477Y-44533251D01*
X62360154Y-44538233D01*
X62360151Y-44538238D01*
X62304889Y-44656749D01*
X62265716Y-44740757D01*
X62206457Y-44961913D01*
X62186502Y-45190000D01*
X54043029Y-45190000D01*
X54151511Y-45139414D01*
X54161006Y-45133931D01*
X54213048Y-45097491D01*
X54221424Y-45087012D01*
X54214356Y-45073566D01*
X53512812Y-44372022D01*
X53498868Y-44364408D01*
X53497035Y-44364539D01*
X53490420Y-44368790D01*
X52784923Y-45074287D01*
X52778493Y-45086062D01*
X49230243Y-45086062D01*
X49261611Y-45064098D01*
X49339789Y-45009357D01*
X49339792Y-45009355D01*
X49344300Y-45006198D01*
X49506198Y-44844300D01*
X49637523Y-44656749D01*
X49639846Y-44651767D01*
X49639849Y-44651762D01*
X49731961Y-44454225D01*
X49731961Y-44454224D01*
X49734284Y-44449243D01*
X49754976Y-44372022D01*
X49792119Y-44233402D01*
X49792119Y-44233400D01*
X49793543Y-44228087D01*
X49813019Y-44005475D01*
X52187483Y-44005475D01*
X52206472Y-44222519D01*
X52208375Y-44233312D01*
X52264764Y-44443761D01*
X52268510Y-44454053D01*
X52360586Y-44651511D01*
X52366069Y-44661006D01*
X52402509Y-44713048D01*
X52412988Y-44721424D01*
X52426434Y-44714356D01*
X53127978Y-44012812D01*
X53134356Y-44001132D01*
X53864408Y-44001132D01*
X53864539Y-44002965D01*
X53868790Y-44009580D01*
X54574287Y-44715077D01*
X54586062Y-44721507D01*
X54598077Y-44712211D01*
X54633931Y-44661006D01*
X54639414Y-44651511D01*
X54731490Y-44454053D01*
X54735236Y-44443761D01*
X54791625Y-44233312D01*
X54793528Y-44222519D01*
X54812517Y-44005475D01*
X54812517Y-43994525D01*
X54793528Y-43777481D01*
X54791625Y-43766688D01*
X54735236Y-43556239D01*
X54731490Y-43545947D01*
X54639414Y-43348489D01*
X54633931Y-43338994D01*
X54597491Y-43286952D01*
X54587012Y-43278576D01*
X54573566Y-43285644D01*
X53872022Y-43987188D01*
X53864408Y-44001132D01*
X53134356Y-44001132D01*
X53135592Y-43998868D01*
X53135461Y-43997035D01*
X53131210Y-43990420D01*
X52425713Y-43284923D01*
X52413938Y-43278493D01*
X52401923Y-43287789D01*
X52366069Y-43338994D01*
X52360586Y-43348489D01*
X52268510Y-43545947D01*
X52264764Y-43556239D01*
X52208375Y-43766688D01*
X52206472Y-43777481D01*
X52187483Y-43994525D01*
X52187483Y-44005475D01*
X49813019Y-44005475D01*
X49813498Y-44000000D01*
X49793543Y-43771913D01*
X49756981Y-43635461D01*
X49735707Y-43556067D01*
X49735706Y-43556065D01*
X49734284Y-43550757D01*
X49639966Y-43348489D01*
X49639849Y-43348238D01*
X49639846Y-43348233D01*
X49637523Y-43343251D01*
X49506198Y-43155700D01*
X49344300Y-42993802D01*
X49339792Y-42990645D01*
X49339789Y-42990643D01*
X49228886Y-42912988D01*
X52778576Y-42912988D01*
X52785644Y-42926434D01*
X53487188Y-43627978D01*
X53501132Y-43635592D01*
X53502965Y-43635461D01*
X53509580Y-43631210D01*
X54215077Y-42925713D01*
X54221507Y-42913938D01*
X54212211Y-42901923D01*
X54161006Y-42866069D01*
X54151511Y-42860586D01*
X53954053Y-42768510D01*
X53943761Y-42764764D01*
X53733312Y-42708375D01*
X53722519Y-42706472D01*
X53505475Y-42687483D01*
X53494525Y-42687483D01*
X53277481Y-42706472D01*
X53266688Y-42708375D01*
X53056239Y-42764764D01*
X53045947Y-42768510D01*
X52848489Y-42860586D01*
X52838994Y-42866069D01*
X52786952Y-42902509D01*
X52778576Y-42912988D01*
X49228886Y-42912988D01*
X49213920Y-42902509D01*
X49156749Y-42862477D01*
X49151767Y-42860154D01*
X49151762Y-42860151D01*
X48954225Y-42768039D01*
X48954224Y-42768039D01*
X48949243Y-42765716D01*
X48943935Y-42764294D01*
X48943933Y-42764293D01*
X48733402Y-42707881D01*
X48733400Y-42707881D01*
X48728087Y-42706457D01*
X48500000Y-42686502D01*
X48271913Y-42706457D01*
X48266600Y-42707881D01*
X48266598Y-42707881D01*
X48056067Y-42764293D01*
X48056065Y-42764294D01*
X48050757Y-42765716D01*
X48045776Y-42768039D01*
X48045775Y-42768039D01*
X47848238Y-42860151D01*
X47848233Y-42860154D01*
X47843251Y-42862477D01*
X47786080Y-42902509D01*
X47660211Y-42990643D01*
X47660208Y-42990645D01*
X47655700Y-42993802D01*
X47493802Y-43155700D01*
X47362477Y-43343251D01*
X47360154Y-43348233D01*
X47360151Y-43348238D01*
X47360034Y-43348489D01*
X47265716Y-43550757D01*
X47264294Y-43556065D01*
X47264293Y-43556067D01*
X47243019Y-43635461D01*
X47206457Y-43771913D01*
X47186502Y-44000000D01*
X30508500Y-44000000D01*
X30508500Y-40744669D01*
X38992001Y-40744669D01*
X38992371Y-40751490D01*
X38997895Y-40802352D01*
X39001521Y-40817604D01*
X39046676Y-40938054D01*
X39055214Y-40953649D01*
X39131715Y-41055724D01*
X39144276Y-41068285D01*
X39246351Y-41144786D01*
X39261946Y-41153324D01*
X39382394Y-41198478D01*
X39397649Y-41202105D01*
X39448514Y-41207631D01*
X39455328Y-41208000D01*
X40427885Y-41208000D01*
X40443124Y-41203525D01*
X40444329Y-41202135D01*
X40446000Y-41194452D01*
X40446000Y-41189884D01*
X40954000Y-41189884D01*
X40958475Y-41205123D01*
X40959865Y-41206328D01*
X40967548Y-41207999D01*
X41944669Y-41207999D01*
X41951490Y-41207629D01*
X42002352Y-41202105D01*
X42017604Y-41198479D01*
X42040222Y-41190000D01*
X79186502Y-41190000D01*
X79206457Y-41418087D01*
X79265716Y-41639243D01*
X79268039Y-41644224D01*
X79268039Y-41644225D01*
X79360151Y-41841762D01*
X79360154Y-41841767D01*
X79362477Y-41846749D01*
X79493802Y-42034300D01*
X79655700Y-42196198D01*
X79660208Y-42199355D01*
X79660211Y-42199357D01*
X79738389Y-42254098D01*
X79843251Y-42327523D01*
X79848233Y-42329846D01*
X79848238Y-42329849D01*
X80045775Y-42421961D01*
X80050757Y-42424284D01*
X80056065Y-42425706D01*
X80056067Y-42425707D01*
X80266598Y-42482119D01*
X80266600Y-42482119D01*
X80271913Y-42483543D01*
X80500000Y-42503498D01*
X80728087Y-42483543D01*
X80733400Y-42482119D01*
X80733402Y-42482119D01*
X80943933Y-42425707D01*
X80943935Y-42425706D01*
X80949243Y-42424284D01*
X80954225Y-42421961D01*
X81151762Y-42329849D01*
X81151767Y-42329846D01*
X81156749Y-42327523D01*
X81261611Y-42254098D01*
X81339789Y-42199357D01*
X81339792Y-42199355D01*
X81344300Y-42196198D01*
X81506198Y-42034300D01*
X81637523Y-41846749D01*
X81639846Y-41841767D01*
X81639849Y-41841762D01*
X81731961Y-41644225D01*
X81731961Y-41644224D01*
X81734284Y-41639243D01*
X81793543Y-41418087D01*
X81813498Y-41190000D01*
X84686502Y-41190000D01*
X84706457Y-41418087D01*
X84765716Y-41639243D01*
X84768039Y-41644224D01*
X84768039Y-41644225D01*
X84860151Y-41841762D01*
X84860154Y-41841767D01*
X84862477Y-41846749D01*
X84993802Y-42034300D01*
X85155700Y-42196198D01*
X85160208Y-42199355D01*
X85160211Y-42199357D01*
X85238389Y-42254098D01*
X85343251Y-42327523D01*
X85348233Y-42329846D01*
X85348238Y-42329849D01*
X85545775Y-42421961D01*
X85550757Y-42424284D01*
X85556065Y-42425706D01*
X85556067Y-42425707D01*
X85766598Y-42482119D01*
X85766600Y-42482119D01*
X85771913Y-42483543D01*
X86000000Y-42503498D01*
X86228087Y-42483543D01*
X86233400Y-42482119D01*
X86233402Y-42482119D01*
X86443933Y-42425707D01*
X86443935Y-42425706D01*
X86449243Y-42424284D01*
X86454225Y-42421961D01*
X86651762Y-42329849D01*
X86651767Y-42329846D01*
X86656749Y-42327523D01*
X86761611Y-42254098D01*
X86839789Y-42199357D01*
X86839792Y-42199355D01*
X86844300Y-42196198D01*
X87006198Y-42034300D01*
X87137523Y-41846749D01*
X87139846Y-41841767D01*
X87139849Y-41841762D01*
X87231961Y-41644225D01*
X87231961Y-41644224D01*
X87234284Y-41639243D01*
X87293543Y-41418087D01*
X87313498Y-41190000D01*
X87293543Y-40961913D01*
X87253709Y-40813251D01*
X87235707Y-40746067D01*
X87235706Y-40746065D01*
X87234284Y-40740757D01*
X87161768Y-40585245D01*
X87139849Y-40538238D01*
X87139846Y-40538233D01*
X87137523Y-40533251D01*
X87022990Y-40369681D01*
X87009357Y-40350211D01*
X87009355Y-40350208D01*
X87006198Y-40345700D01*
X86844300Y-40183802D01*
X86839792Y-40180645D01*
X86839789Y-40180643D01*
X86714333Y-40092798D01*
X86656749Y-40052477D01*
X86651767Y-40050154D01*
X86651762Y-40050151D01*
X86454225Y-39958039D01*
X86454224Y-39958039D01*
X86449243Y-39955716D01*
X86447134Y-39955151D01*
X99287296Y-39955151D01*
X99299480Y-40208798D01*
X99349021Y-40457857D01*
X99350600Y-40462255D01*
X99350602Y-40462262D01*
X99393413Y-40581499D01*
X99434831Y-40696858D01*
X99555025Y-40920551D01*
X99557820Y-40924294D01*
X99557822Y-40924297D01*
X99704171Y-41120282D01*
X99704176Y-41120288D01*
X99706963Y-41124020D01*
X99710272Y-41127300D01*
X99710277Y-41127306D01*
X99808859Y-41225031D01*
X99887307Y-41302797D01*
X99891069Y-41305555D01*
X99891072Y-41305558D01*
X100088323Y-41450188D01*
X100092094Y-41452953D01*
X100096229Y-41455129D01*
X100096233Y-41455131D01*
X100214289Y-41517243D01*
X100316827Y-41571191D01*
X100451160Y-41618102D01*
X100511699Y-41639243D01*
X100556568Y-41654912D01*
X100806050Y-41702278D01*
X100926532Y-41707011D01*
X101055125Y-41712064D01*
X101055130Y-41712064D01*
X101059793Y-41712247D01*
X101158774Y-41701407D01*
X101307569Y-41685112D01*
X101307575Y-41685111D01*
X101312222Y-41684602D01*
X101421680Y-41655784D01*
X101553273Y-41621138D01*
X101557793Y-41619948D01*
X101676353Y-41569011D01*
X101786807Y-41521557D01*
X101786810Y-41521555D01*
X101791110Y-41519708D01*
X101795090Y-41517245D01*
X101795094Y-41517243D01*
X102003064Y-41388547D01*
X102003066Y-41388545D01*
X102007047Y-41386082D01*
X102105428Y-41302797D01*
X102197289Y-41225031D01*
X102197291Y-41225029D01*
X102200862Y-41222006D01*
X102368295Y-41031084D01*
X102409263Y-40967393D01*
X102503141Y-40821442D01*
X102505669Y-40817512D01*
X102609967Y-40585980D01*
X102678896Y-40341575D01*
X102694162Y-40221576D01*
X102710545Y-40092798D01*
X102710545Y-40092792D01*
X102710943Y-40089667D01*
X102713291Y-40000000D01*
X102705702Y-39897881D01*
X102694818Y-39751411D01*
X102694817Y-39751407D01*
X102694472Y-39746759D01*
X102638428Y-39499082D01*
X102546391Y-39262409D01*
X102537013Y-39246000D01*
X102422702Y-39045997D01*
X102422700Y-39045995D01*
X102420383Y-39041940D01*
X102263171Y-38842517D01*
X102078209Y-38668523D01*
X102026021Y-38632319D01*
X101873393Y-38526437D01*
X101873390Y-38526435D01*
X101869561Y-38523779D01*
X101865384Y-38521719D01*
X101865377Y-38521715D01*
X101645996Y-38413528D01*
X101645992Y-38413527D01*
X101641810Y-38411464D01*
X101399960Y-38334047D01*
X101395355Y-38333297D01*
X101153935Y-38293980D01*
X101153934Y-38293980D01*
X101149323Y-38293229D01*
X101022365Y-38291567D01*
X100900083Y-38289966D01*
X100900080Y-38289966D01*
X100895406Y-38289905D01*
X100643787Y-38324149D01*
X100399993Y-38395208D01*
X100169380Y-38501522D01*
X100165471Y-38504085D01*
X99960928Y-38638189D01*
X99960923Y-38638193D01*
X99957015Y-38640755D01*
X99767562Y-38809848D01*
X99605183Y-39005087D01*
X99473447Y-39222182D01*
X99471638Y-39226496D01*
X99471637Y-39226498D01*
X99386103Y-39430475D01*
X99375246Y-39456365D01*
X99312738Y-39702490D01*
X99287296Y-39955151D01*
X86447134Y-39955151D01*
X86443935Y-39954294D01*
X86443933Y-39954293D01*
X86233402Y-39897881D01*
X86233400Y-39897881D01*
X86228087Y-39896457D01*
X86000000Y-39876502D01*
X85771913Y-39896457D01*
X85766600Y-39897881D01*
X85766598Y-39897881D01*
X85556067Y-39954293D01*
X85556065Y-39954294D01*
X85550757Y-39955716D01*
X85545776Y-39958039D01*
X85545775Y-39958039D01*
X85348238Y-40050151D01*
X85348233Y-40050154D01*
X85343251Y-40052477D01*
X85285667Y-40092798D01*
X85160211Y-40180643D01*
X85160208Y-40180645D01*
X85155700Y-40183802D01*
X84993802Y-40345700D01*
X84990645Y-40350208D01*
X84990643Y-40350211D01*
X84977010Y-40369681D01*
X84862477Y-40533251D01*
X84860154Y-40538233D01*
X84860151Y-40538238D01*
X84838232Y-40585245D01*
X84765716Y-40740757D01*
X84764294Y-40746065D01*
X84764293Y-40746067D01*
X84746291Y-40813251D01*
X84706457Y-40961913D01*
X84686502Y-41190000D01*
X81813498Y-41190000D01*
X81793543Y-40961913D01*
X81753709Y-40813251D01*
X81735707Y-40746067D01*
X81735706Y-40746065D01*
X81734284Y-40740757D01*
X81661768Y-40585245D01*
X81639849Y-40538238D01*
X81639846Y-40538233D01*
X81637523Y-40533251D01*
X81522990Y-40369681D01*
X81509357Y-40350211D01*
X81509355Y-40350208D01*
X81506198Y-40345700D01*
X81344300Y-40183802D01*
X81339792Y-40180645D01*
X81339789Y-40180643D01*
X81214333Y-40092798D01*
X81156749Y-40052477D01*
X81151767Y-40050154D01*
X81151762Y-40050151D01*
X80954225Y-39958039D01*
X80954224Y-39958039D01*
X80949243Y-39955716D01*
X80943935Y-39954294D01*
X80943933Y-39954293D01*
X80733402Y-39897881D01*
X80733400Y-39897881D01*
X80728087Y-39896457D01*
X80500000Y-39876502D01*
X80271913Y-39896457D01*
X80266600Y-39897881D01*
X80266598Y-39897881D01*
X80056067Y-39954293D01*
X80056065Y-39954294D01*
X80050757Y-39955716D01*
X80045776Y-39958039D01*
X80045775Y-39958039D01*
X79848238Y-40050151D01*
X79848233Y-40050154D01*
X79843251Y-40052477D01*
X79785667Y-40092798D01*
X79660211Y-40180643D01*
X79660208Y-40180645D01*
X79655700Y-40183802D01*
X79493802Y-40345700D01*
X79490645Y-40350208D01*
X79490643Y-40350211D01*
X79477010Y-40369681D01*
X79362477Y-40533251D01*
X79360154Y-40538233D01*
X79360151Y-40538238D01*
X79338232Y-40585245D01*
X79265716Y-40740757D01*
X79264294Y-40746065D01*
X79264293Y-40746067D01*
X79246291Y-40813251D01*
X79206457Y-40961913D01*
X79186502Y-41190000D01*
X42040222Y-41190000D01*
X42138054Y-41153324D01*
X42153649Y-41144786D01*
X42255724Y-41068285D01*
X42268285Y-41055724D01*
X42344786Y-40953649D01*
X42353324Y-40938054D01*
X42398478Y-40817606D01*
X42402105Y-40802351D01*
X42407631Y-40751486D01*
X42408000Y-40744672D01*
X42408000Y-39772115D01*
X42403525Y-39756876D01*
X42402135Y-39755671D01*
X42394452Y-39754000D01*
X40972115Y-39754000D01*
X40956876Y-39758475D01*
X40955671Y-39759865D01*
X40954000Y-39767548D01*
X40954000Y-41189884D01*
X40446000Y-41189884D01*
X40446000Y-39772115D01*
X40441525Y-39756876D01*
X40440135Y-39755671D01*
X40432452Y-39754000D01*
X39010116Y-39754000D01*
X38994877Y-39758475D01*
X38993672Y-39759865D01*
X38992001Y-39767548D01*
X38992001Y-40744669D01*
X30508500Y-40744669D01*
X30508500Y-39425000D01*
X69766807Y-39425000D01*
X69785542Y-39639142D01*
X69786966Y-39644455D01*
X69786966Y-39644457D01*
X69819949Y-39767548D01*
X69841178Y-39846777D01*
X69843500Y-39851757D01*
X69843501Y-39851759D01*
X69893061Y-39958039D01*
X69932024Y-40041596D01*
X70055319Y-40217681D01*
X70207319Y-40369681D01*
X70383403Y-40492976D01*
X70388381Y-40495297D01*
X70388384Y-40495299D01*
X70573179Y-40581470D01*
X70578223Y-40583822D01*
X70583531Y-40585244D01*
X70583533Y-40585245D01*
X70780543Y-40638034D01*
X70780545Y-40638034D01*
X70785858Y-40639458D01*
X71000000Y-40658193D01*
X71214142Y-40639458D01*
X71219455Y-40638034D01*
X71219457Y-40638034D01*
X71416467Y-40585245D01*
X71416469Y-40585244D01*
X71421777Y-40583822D01*
X71426821Y-40581470D01*
X71611616Y-40495299D01*
X71611619Y-40495297D01*
X71616597Y-40492976D01*
X71792681Y-40369681D01*
X71944681Y-40217681D01*
X72067976Y-40041596D01*
X72106940Y-39958039D01*
X72156499Y-39851759D01*
X72156500Y-39851757D01*
X72158822Y-39846777D01*
X72180052Y-39767548D01*
X72213034Y-39644457D01*
X72213034Y-39644455D01*
X72214458Y-39639142D01*
X72233193Y-39425000D01*
X72214458Y-39210858D01*
X72213034Y-39205543D01*
X72160245Y-39008533D01*
X72160244Y-39008531D01*
X72158822Y-39003223D01*
X72085594Y-38846185D01*
X72070299Y-38813385D01*
X72070297Y-38813382D01*
X72067976Y-38808404D01*
X71944681Y-38632319D01*
X71792681Y-38480319D01*
X71616597Y-38357024D01*
X71611619Y-38354703D01*
X71611616Y-38354701D01*
X71426759Y-38268501D01*
X71426758Y-38268500D01*
X71421777Y-38266178D01*
X71416469Y-38264756D01*
X71416467Y-38264755D01*
X71219457Y-38211966D01*
X71219455Y-38211966D01*
X71214142Y-38210542D01*
X71000000Y-38191807D01*
X70785858Y-38210542D01*
X70780545Y-38211966D01*
X70780543Y-38211966D01*
X70583533Y-38264755D01*
X70583531Y-38264756D01*
X70578223Y-38266178D01*
X70573243Y-38268500D01*
X70573241Y-38268501D01*
X70388385Y-38354701D01*
X70388382Y-38354703D01*
X70383404Y-38357024D01*
X70207319Y-38480319D01*
X70055319Y-38632319D01*
X69932024Y-38808404D01*
X69929703Y-38813382D01*
X69929701Y-38813385D01*
X69914406Y-38846185D01*
X69841178Y-39003223D01*
X69839756Y-39008531D01*
X69839755Y-39008533D01*
X69786966Y-39205543D01*
X69785542Y-39210858D01*
X69766807Y-39425000D01*
X30508500Y-39425000D01*
X30508500Y-39227885D01*
X38992000Y-39227885D01*
X38996475Y-39243124D01*
X38997865Y-39244329D01*
X39005548Y-39246000D01*
X40427885Y-39246000D01*
X40443124Y-39241525D01*
X40444329Y-39240135D01*
X40446000Y-39232452D01*
X40446000Y-39227885D01*
X40954000Y-39227885D01*
X40958475Y-39243124D01*
X40959865Y-39244329D01*
X40967548Y-39246000D01*
X42389884Y-39246000D01*
X42405123Y-39241525D01*
X42406328Y-39240135D01*
X42407999Y-39232452D01*
X42407999Y-38255331D01*
X42407629Y-38248510D01*
X42402105Y-38197648D01*
X42398479Y-38182396D01*
X42353324Y-38061946D01*
X42344786Y-38046351D01*
X42268285Y-37944276D01*
X42255724Y-37931715D01*
X42153649Y-37855214D01*
X42138054Y-37846676D01*
X42017606Y-37801522D01*
X42002351Y-37797895D01*
X41951486Y-37792369D01*
X41944672Y-37792000D01*
X40972115Y-37792000D01*
X40956876Y-37796475D01*
X40955671Y-37797865D01*
X40954000Y-37805548D01*
X40954000Y-39227885D01*
X40446000Y-39227885D01*
X40446000Y-37810116D01*
X40441525Y-37794877D01*
X40440135Y-37793672D01*
X40432452Y-37792001D01*
X39455331Y-37792001D01*
X39448510Y-37792371D01*
X39397648Y-37797895D01*
X39382396Y-37801521D01*
X39261946Y-37846676D01*
X39246351Y-37855214D01*
X39144276Y-37931715D01*
X39131715Y-37944276D01*
X39055214Y-38046351D01*
X39046676Y-38061946D01*
X39001522Y-38182394D01*
X38997895Y-38197649D01*
X38992369Y-38248514D01*
X38992000Y-38255328D01*
X38992000Y-39227885D01*
X30508500Y-39227885D01*
X30508500Y-37086062D01*
X53278493Y-37086062D01*
X53287789Y-37098077D01*
X53338994Y-37133931D01*
X53348489Y-37139414D01*
X53545947Y-37231490D01*
X53556239Y-37235236D01*
X53766688Y-37291625D01*
X53777481Y-37293528D01*
X53994525Y-37312517D01*
X54005475Y-37312517D01*
X54222519Y-37293528D01*
X54233312Y-37291625D01*
X54443761Y-37235236D01*
X54454053Y-37231490D01*
X54651511Y-37139414D01*
X54661006Y-37133931D01*
X54713048Y-37097491D01*
X54721424Y-37087012D01*
X54714356Y-37073566D01*
X54488924Y-36848134D01*
X57691500Y-36848134D01*
X57698255Y-36910316D01*
X57749385Y-37046705D01*
X57836739Y-37163261D01*
X57953295Y-37250615D01*
X58089684Y-37301745D01*
X58151866Y-37308500D01*
X59848134Y-37308500D01*
X59910316Y-37301745D01*
X60046705Y-37250615D01*
X60163261Y-37163261D01*
X60250615Y-37046705D01*
X60301745Y-36910316D01*
X60308500Y-36848134D01*
X60308500Y-36743134D01*
X80999000Y-36743134D01*
X81005755Y-36805316D01*
X81056885Y-36941705D01*
X81144239Y-37058261D01*
X81260795Y-37145615D01*
X81397184Y-37196745D01*
X81459366Y-37203500D01*
X83460634Y-37203500D01*
X83522816Y-37196745D01*
X83659205Y-37145615D01*
X83775761Y-37058261D01*
X83863115Y-36941705D01*
X83870573Y-36921811D01*
X83913213Y-36865047D01*
X83979774Y-36840346D01*
X84049123Y-36855553D01*
X84066647Y-36867158D01*
X84184670Y-36960367D01*
X84184675Y-36960370D01*
X84188724Y-36963568D01*
X84193240Y-36966061D01*
X84193243Y-36966063D01*
X84394526Y-37077177D01*
X84394530Y-37077179D01*
X84399050Y-37079674D01*
X84403919Y-37081398D01*
X84403923Y-37081400D01*
X84620640Y-37158144D01*
X84620644Y-37158145D01*
X84625515Y-37159870D01*
X84630608Y-37160777D01*
X84630611Y-37160778D01*
X84856948Y-37201095D01*
X84856954Y-37201096D01*
X84862037Y-37202001D01*
X84949400Y-37203068D01*
X85097093Y-37204873D01*
X85097095Y-37204873D01*
X85102263Y-37204936D01*
X85339744Y-37168596D01*
X85451997Y-37131906D01*
X85563183Y-37095566D01*
X85563189Y-37095563D01*
X85568101Y-37093958D01*
X85572687Y-37091571D01*
X85572691Y-37091569D01*
X85776607Y-36985416D01*
X85781200Y-36983025D01*
X85878039Y-36910316D01*
X85969185Y-36841882D01*
X85969188Y-36841880D01*
X85973320Y-36838777D01*
X86085465Y-36721424D01*
X86135730Y-36668825D01*
X86135731Y-36668824D01*
X86139301Y-36665088D01*
X86164840Y-36627649D01*
X86219751Y-36582648D01*
X86290275Y-36574477D01*
X86354022Y-36605731D01*
X86374716Y-36630210D01*
X86376085Y-36632326D01*
X86382378Y-36640498D01*
X86537050Y-36810480D01*
X86544583Y-36817506D01*
X86724944Y-36959945D01*
X86733531Y-36965650D01*
X86934722Y-37076714D01*
X86944134Y-37080944D01*
X87160768Y-37157659D01*
X87170739Y-37160293D01*
X87268163Y-37177647D01*
X87281460Y-37176187D01*
X87285543Y-37163096D01*
X87794000Y-37163096D01*
X87797918Y-37176440D01*
X87812194Y-37178427D01*
X87874515Y-37168890D01*
X87884543Y-37166501D01*
X88102988Y-37095102D01*
X88112497Y-37091105D01*
X88316344Y-36984989D01*
X88325069Y-36979495D01*
X88508852Y-36841507D01*
X88516559Y-36834664D01*
X88675339Y-36668509D01*
X88681826Y-36660499D01*
X88811330Y-36470653D01*
X88816429Y-36461679D01*
X88913187Y-36253231D01*
X88915062Y-36248134D01*
X99291500Y-36248134D01*
X99298255Y-36310316D01*
X99349385Y-36446705D01*
X99436739Y-36563261D01*
X99553295Y-36650615D01*
X99689684Y-36701745D01*
X99751866Y-36708500D01*
X102248134Y-36708500D01*
X102310316Y-36701745D01*
X102446705Y-36650615D01*
X102563261Y-36563261D01*
X102650615Y-36446705D01*
X102701745Y-36310316D01*
X102708500Y-36248134D01*
X102708500Y-33751866D01*
X102701745Y-33689684D01*
X102650615Y-33553295D01*
X102563261Y-33436739D01*
X102446705Y-33349385D01*
X102310316Y-33298255D01*
X102248134Y-33291500D01*
X99751866Y-33291500D01*
X99689684Y-33298255D01*
X99553295Y-33349385D01*
X99436739Y-33436739D01*
X99349385Y-33553295D01*
X99298255Y-33689684D01*
X99291500Y-33751866D01*
X99291500Y-36248134D01*
X88915062Y-36248134D01*
X88916750Y-36243544D01*
X88978165Y-36022092D01*
X88980096Y-36011970D01*
X88984901Y-35967013D01*
X88982253Y-35952392D01*
X88969876Y-35949000D01*
X87812115Y-35949000D01*
X87796876Y-35953475D01*
X87795671Y-35954865D01*
X87794000Y-35962548D01*
X87794000Y-37163096D01*
X87285543Y-37163096D01*
X87286000Y-37161630D01*
X87286000Y-35422885D01*
X87794000Y-35422885D01*
X87798475Y-35438124D01*
X87799865Y-35439329D01*
X87807548Y-35441000D01*
X88970412Y-35441000D01*
X88985141Y-35436675D01*
X88987202Y-35424889D01*
X88986249Y-35413296D01*
X88984567Y-35403134D01*
X88928578Y-35180229D01*
X88925259Y-35170481D01*
X88833615Y-34959711D01*
X88828749Y-34950636D01*
X88703915Y-34757673D01*
X88697622Y-34749502D01*
X88542950Y-34579520D01*
X88535417Y-34572494D01*
X88355056Y-34430055D01*
X88346469Y-34424350D01*
X88145278Y-34313286D01*
X88135866Y-34309056D01*
X87919232Y-34232341D01*
X87909261Y-34229707D01*
X87811837Y-34212353D01*
X87798540Y-34213813D01*
X87794000Y-34228370D01*
X87794000Y-35422885D01*
X87286000Y-35422885D01*
X87286000Y-34226904D01*
X87282082Y-34213560D01*
X87267806Y-34211573D01*
X87205485Y-34221110D01*
X87195457Y-34223499D01*
X86977012Y-34294898D01*
X86967503Y-34298895D01*
X86763656Y-34405011D01*
X86754931Y-34410505D01*
X86571148Y-34548493D01*
X86563441Y-34555336D01*
X86404661Y-34721491D01*
X86398177Y-34729498D01*
X86375763Y-34762356D01*
X86320852Y-34807359D01*
X86250328Y-34815532D01*
X86186580Y-34784278D01*
X86165884Y-34759796D01*
X86164311Y-34757365D01*
X86161502Y-34753023D01*
X85999814Y-34575330D01*
X85908431Y-34503160D01*
X85815330Y-34429633D01*
X85815325Y-34429630D01*
X85811276Y-34426432D01*
X85806760Y-34423939D01*
X85806757Y-34423937D01*
X85605474Y-34312823D01*
X85605470Y-34312821D01*
X85600950Y-34310326D01*
X85596081Y-34308602D01*
X85596077Y-34308600D01*
X85379360Y-34231856D01*
X85379356Y-34231855D01*
X85374485Y-34230130D01*
X85369392Y-34229223D01*
X85369389Y-34229222D01*
X85143052Y-34188905D01*
X85143046Y-34188904D01*
X85137963Y-34187999D01*
X85045474Y-34186869D01*
X84902907Y-34185127D01*
X84902905Y-34185127D01*
X84897737Y-34185064D01*
X84660256Y-34221404D01*
X84568449Y-34251411D01*
X84436817Y-34294434D01*
X84436811Y-34294437D01*
X84431899Y-34296042D01*
X84427313Y-34298429D01*
X84427309Y-34298431D01*
X84223393Y-34404584D01*
X84218800Y-34406975D01*
X84063717Y-34523415D01*
X83997235Y-34548320D01*
X83927839Y-34533328D01*
X83877565Y-34483198D01*
X83870085Y-34466885D01*
X83866269Y-34456707D01*
X83866267Y-34456703D01*
X83863115Y-34448295D01*
X83775761Y-34331739D01*
X83659205Y-34244385D01*
X83522816Y-34193255D01*
X83460634Y-34186500D01*
X81459366Y-34186500D01*
X81397184Y-34193255D01*
X81260795Y-34244385D01*
X81144239Y-34331739D01*
X81056885Y-34448295D01*
X81005755Y-34584684D01*
X80999000Y-34646866D01*
X80999000Y-36743134D01*
X60308500Y-36743134D01*
X60308500Y-35151866D01*
X60301745Y-35089684D01*
X60250615Y-34953295D01*
X60163261Y-34836739D01*
X60046705Y-34749385D01*
X59910316Y-34698255D01*
X59848134Y-34691500D01*
X58151866Y-34691500D01*
X58089684Y-34698255D01*
X57953295Y-34749385D01*
X57836739Y-34836739D01*
X57749385Y-34953295D01*
X57698255Y-35089684D01*
X57691500Y-35151866D01*
X57691500Y-36848134D01*
X54488924Y-36848134D01*
X54012812Y-36372022D01*
X53998868Y-36364408D01*
X53997035Y-36364539D01*
X53990420Y-36368790D01*
X53284923Y-37074287D01*
X53278493Y-37086062D01*
X30508500Y-37086062D01*
X30508500Y-34455151D01*
X38987296Y-34455151D01*
X38987520Y-34459817D01*
X38987520Y-34459822D01*
X38988643Y-34483198D01*
X38999480Y-34708798D01*
X39012004Y-34771759D01*
X39047585Y-34950636D01*
X39049021Y-34957857D01*
X39050600Y-34962255D01*
X39050602Y-34962262D01*
X39118677Y-35151866D01*
X39134831Y-35196858D01*
X39137048Y-35200984D01*
X39249260Y-35409821D01*
X39255025Y-35420551D01*
X39257820Y-35424294D01*
X39257822Y-35424297D01*
X39404171Y-35620282D01*
X39404176Y-35620288D01*
X39406963Y-35624020D01*
X39410272Y-35627300D01*
X39410277Y-35627306D01*
X39561769Y-35777481D01*
X39587307Y-35802797D01*
X39591069Y-35805555D01*
X39591072Y-35805558D01*
X39696764Y-35883054D01*
X39792094Y-35952953D01*
X39796229Y-35955129D01*
X39796233Y-35955131D01*
X39857164Y-35987188D01*
X40016827Y-36071191D01*
X40256568Y-36154912D01*
X40506050Y-36202278D01*
X40626532Y-36207011D01*
X40755125Y-36212064D01*
X40755130Y-36212064D01*
X40759793Y-36212247D01*
X40858774Y-36201407D01*
X41007569Y-36185112D01*
X41007575Y-36185111D01*
X41012222Y-36184602D01*
X41121680Y-36155784D01*
X41253273Y-36121138D01*
X41257793Y-36119948D01*
X41376353Y-36069011D01*
X41486807Y-36021557D01*
X41486810Y-36021555D01*
X41491110Y-36019708D01*
X41495090Y-36017245D01*
X41495094Y-36017243D01*
X41514111Y-36005475D01*
X52687483Y-36005475D01*
X52706472Y-36222519D01*
X52708375Y-36233312D01*
X52764764Y-36443761D01*
X52768510Y-36454053D01*
X52860586Y-36651511D01*
X52866069Y-36661006D01*
X52902509Y-36713048D01*
X52912988Y-36721424D01*
X52926434Y-36714356D01*
X53627978Y-36012812D01*
X53634356Y-36001132D01*
X54364408Y-36001132D01*
X54364539Y-36002965D01*
X54368790Y-36009580D01*
X55074287Y-36715077D01*
X55086062Y-36721507D01*
X55098077Y-36712211D01*
X55133931Y-36661006D01*
X55139414Y-36651511D01*
X55231490Y-36454053D01*
X55235236Y-36443761D01*
X55291625Y-36233312D01*
X55293528Y-36222519D01*
X55312517Y-36005475D01*
X55312517Y-35994525D01*
X55293528Y-35777481D01*
X55291625Y-35766688D01*
X55235236Y-35556239D01*
X55231490Y-35545947D01*
X55139414Y-35348489D01*
X55133931Y-35338994D01*
X55097491Y-35286952D01*
X55087012Y-35278576D01*
X55073566Y-35285644D01*
X54372022Y-35987188D01*
X54364408Y-36001132D01*
X53634356Y-36001132D01*
X53635592Y-35998868D01*
X53635461Y-35997035D01*
X53631210Y-35990420D01*
X52925713Y-35284923D01*
X52913938Y-35278493D01*
X52901923Y-35287789D01*
X52866069Y-35338994D01*
X52860586Y-35348489D01*
X52768510Y-35545947D01*
X52764764Y-35556239D01*
X52708375Y-35766688D01*
X52706472Y-35777481D01*
X52687483Y-35994525D01*
X52687483Y-36005475D01*
X41514111Y-36005475D01*
X41703064Y-35888547D01*
X41703066Y-35888545D01*
X41707047Y-35886082D01*
X41805428Y-35802797D01*
X41897289Y-35725031D01*
X41897291Y-35725029D01*
X41900862Y-35722006D01*
X42068295Y-35531084D01*
X42084916Y-35505245D01*
X42203141Y-35321442D01*
X42205669Y-35317512D01*
X42309967Y-35085980D01*
X42358756Y-34912988D01*
X53278576Y-34912988D01*
X53285644Y-34926434D01*
X53987188Y-35627978D01*
X54001132Y-35635592D01*
X54002965Y-35635461D01*
X54009580Y-35631210D01*
X54715077Y-34925713D01*
X54721507Y-34913938D01*
X54712211Y-34901923D01*
X54661006Y-34866069D01*
X54651511Y-34860586D01*
X54454053Y-34768510D01*
X54443761Y-34764764D01*
X54233312Y-34708375D01*
X54222519Y-34706472D01*
X54005475Y-34687483D01*
X53994525Y-34687483D01*
X53777481Y-34706472D01*
X53766688Y-34708375D01*
X53556239Y-34764764D01*
X53545947Y-34768510D01*
X53348489Y-34860586D01*
X53338994Y-34866069D01*
X53286952Y-34902509D01*
X53278576Y-34912988D01*
X42358756Y-34912988D01*
X42378896Y-34841575D01*
X42395841Y-34708375D01*
X42410545Y-34592798D01*
X42410545Y-34592792D01*
X42410943Y-34589667D01*
X42411074Y-34584684D01*
X42413208Y-34503160D01*
X42413291Y-34500000D01*
X42410074Y-34456707D01*
X42401773Y-34345000D01*
X67226807Y-34345000D01*
X67245542Y-34559142D01*
X67246966Y-34564455D01*
X67246966Y-34564457D01*
X67298739Y-34757673D01*
X67301178Y-34766777D01*
X67303500Y-34771757D01*
X67303501Y-34771759D01*
X67388826Y-34954737D01*
X67392024Y-34961596D01*
X67515319Y-35137681D01*
X67667319Y-35289681D01*
X67843403Y-35412976D01*
X67848381Y-35415297D01*
X67848384Y-35415299D01*
X68033241Y-35501499D01*
X68038223Y-35503822D01*
X68043531Y-35505244D01*
X68043533Y-35505245D01*
X68240543Y-35558034D01*
X68240545Y-35558034D01*
X68245858Y-35559458D01*
X68460000Y-35578193D01*
X68674142Y-35559458D01*
X68679455Y-35558034D01*
X68679457Y-35558034D01*
X68876467Y-35505245D01*
X68876469Y-35505244D01*
X68881777Y-35503822D01*
X68886759Y-35501499D01*
X69071616Y-35415299D01*
X69071619Y-35415297D01*
X69076597Y-35412976D01*
X69252681Y-35289681D01*
X69404681Y-35137681D01*
X69527976Y-34961596D01*
X69531175Y-34954737D01*
X69616499Y-34771759D01*
X69616500Y-34771757D01*
X69618822Y-34766777D01*
X69621262Y-34757673D01*
X69673034Y-34564457D01*
X69673034Y-34564455D01*
X69674458Y-34559142D01*
X69693193Y-34345000D01*
X72306807Y-34345000D01*
X72325542Y-34559142D01*
X72326966Y-34564455D01*
X72326966Y-34564457D01*
X72378739Y-34757673D01*
X72381178Y-34766777D01*
X72383500Y-34771757D01*
X72383501Y-34771759D01*
X72468826Y-34954737D01*
X72472024Y-34961596D01*
X72595319Y-35137681D01*
X72747319Y-35289681D01*
X72923403Y-35412976D01*
X72928381Y-35415297D01*
X72928384Y-35415299D01*
X73113241Y-35501499D01*
X73118223Y-35503822D01*
X73123531Y-35505244D01*
X73123533Y-35505245D01*
X73320543Y-35558034D01*
X73320545Y-35558034D01*
X73325858Y-35559458D01*
X73540000Y-35578193D01*
X73754142Y-35559458D01*
X73759455Y-35558034D01*
X73759457Y-35558034D01*
X73956467Y-35505245D01*
X73956469Y-35505244D01*
X73961777Y-35503822D01*
X73966759Y-35501499D01*
X74151616Y-35415299D01*
X74151619Y-35415297D01*
X74156597Y-35412976D01*
X74332681Y-35289681D01*
X74484681Y-35137681D01*
X74607976Y-34961596D01*
X74611175Y-34954737D01*
X74696499Y-34771759D01*
X74696500Y-34771757D01*
X74698822Y-34766777D01*
X74701262Y-34757673D01*
X74753034Y-34564457D01*
X74753034Y-34564455D01*
X74754458Y-34559142D01*
X74773193Y-34345000D01*
X74754458Y-34130858D01*
X74720370Y-34003639D01*
X74700245Y-33928533D01*
X74700244Y-33928531D01*
X74698822Y-33923223D01*
X74607976Y-33728404D01*
X74484681Y-33552319D01*
X74332681Y-33400319D01*
X74156597Y-33277024D01*
X74151619Y-33274703D01*
X74151616Y-33274701D01*
X73966759Y-33188501D01*
X73966758Y-33188500D01*
X73961777Y-33186178D01*
X73956469Y-33184756D01*
X73956467Y-33184755D01*
X73759457Y-33131966D01*
X73759455Y-33131966D01*
X73754142Y-33130542D01*
X73540000Y-33111807D01*
X73325858Y-33130542D01*
X73320545Y-33131966D01*
X73320543Y-33131966D01*
X73123533Y-33184755D01*
X73123531Y-33184756D01*
X73118223Y-33186178D01*
X73113243Y-33188500D01*
X73113241Y-33188501D01*
X72928385Y-33274701D01*
X72928382Y-33274703D01*
X72923404Y-33277024D01*
X72747319Y-33400319D01*
X72595319Y-33552319D01*
X72472024Y-33728404D01*
X72381178Y-33923223D01*
X72379756Y-33928531D01*
X72379755Y-33928533D01*
X72359630Y-34003639D01*
X72325542Y-34130858D01*
X72306807Y-34345000D01*
X69693193Y-34345000D01*
X69674458Y-34130858D01*
X69640370Y-34003639D01*
X69620245Y-33928533D01*
X69620244Y-33928531D01*
X69618822Y-33923223D01*
X69527976Y-33728404D01*
X69404681Y-33552319D01*
X69252681Y-33400319D01*
X69076597Y-33277024D01*
X69071619Y-33274703D01*
X69071616Y-33274701D01*
X68886759Y-33188501D01*
X68886758Y-33188500D01*
X68881777Y-33186178D01*
X68876469Y-33184756D01*
X68876467Y-33184755D01*
X68679457Y-33131966D01*
X68679455Y-33131966D01*
X68674142Y-33130542D01*
X68460000Y-33111807D01*
X68245858Y-33130542D01*
X68240545Y-33131966D01*
X68240543Y-33131966D01*
X68043533Y-33184755D01*
X68043531Y-33184756D01*
X68038223Y-33186178D01*
X68033243Y-33188500D01*
X68033241Y-33188501D01*
X67848385Y-33274701D01*
X67848382Y-33274703D01*
X67843404Y-33277024D01*
X67667319Y-33400319D01*
X67515319Y-33552319D01*
X67392024Y-33728404D01*
X67301178Y-33923223D01*
X67299756Y-33928531D01*
X67299755Y-33928533D01*
X67279630Y-34003639D01*
X67245542Y-34130858D01*
X67226807Y-34345000D01*
X42401773Y-34345000D01*
X42394818Y-34251411D01*
X42394817Y-34251407D01*
X42394472Y-34246759D01*
X42390710Y-34230130D01*
X42339459Y-34003639D01*
X42338428Y-33999082D01*
X42246391Y-33762409D01*
X42238424Y-33748469D01*
X42122702Y-33545997D01*
X42122700Y-33545995D01*
X42120383Y-33541940D01*
X41963171Y-33342517D01*
X41879625Y-33263925D01*
X41781610Y-33171722D01*
X41781608Y-33171720D01*
X41778209Y-33168523D01*
X41696453Y-33111807D01*
X41573393Y-33026437D01*
X41573390Y-33026435D01*
X41569561Y-33023779D01*
X41565384Y-33021719D01*
X41565377Y-33021715D01*
X41345996Y-32913528D01*
X41345992Y-32913527D01*
X41341810Y-32911464D01*
X41099960Y-32834047D01*
X41095355Y-32833297D01*
X40853935Y-32793980D01*
X40853934Y-32793980D01*
X40849323Y-32793229D01*
X40722365Y-32791567D01*
X40600083Y-32789966D01*
X40600080Y-32789966D01*
X40595406Y-32789905D01*
X40343787Y-32824149D01*
X40099993Y-32895208D01*
X39869380Y-33001522D01*
X39865471Y-33004085D01*
X39660928Y-33138189D01*
X39660923Y-33138193D01*
X39657015Y-33140755D01*
X39607717Y-33184755D01*
X39481507Y-33297402D01*
X39467562Y-33309848D01*
X39305183Y-33505087D01*
X39173447Y-33722182D01*
X39171638Y-33726496D01*
X39171637Y-33726498D01*
X39089144Y-33923223D01*
X39075246Y-33956365D01*
X39012738Y-34202490D01*
X38987296Y-34455151D01*
X30508500Y-34455151D01*
X30508500Y-25921553D01*
X30528502Y-25853432D01*
X30582158Y-25806939D01*
X30652432Y-25796835D01*
X30717012Y-25826329D01*
X30753281Y-25881029D01*
X30753525Y-25880933D01*
X30753981Y-25882085D01*
X30754332Y-25882614D01*
X30756206Y-25888381D01*
X30885242Y-26162598D01*
X31047630Y-26418480D01*
X31240808Y-26651992D01*
X31461729Y-26859450D01*
X31706910Y-27037584D01*
X31972483Y-27183585D01*
X31976152Y-27185038D01*
X31976157Y-27185040D01*
X32250591Y-27293696D01*
X32254261Y-27295149D01*
X32547800Y-27370516D01*
X32848470Y-27408500D01*
X33151530Y-27408500D01*
X33452200Y-27370516D01*
X33745739Y-27295149D01*
X33749409Y-27293696D01*
X34023843Y-27185040D01*
X34023848Y-27185038D01*
X34027517Y-27183585D01*
X34293090Y-27037584D01*
X34538271Y-26859450D01*
X34759192Y-26651992D01*
X34952370Y-26418480D01*
X35114758Y-26162598D01*
X35243794Y-25888381D01*
X35337445Y-25600154D01*
X35394233Y-25302462D01*
X35413262Y-25000000D01*
X35394233Y-24697538D01*
X35337445Y-24399846D01*
X35243794Y-24111619D01*
X35114758Y-23837402D01*
X34952370Y-23581520D01*
X34759192Y-23348008D01*
X34538271Y-23140550D01*
X34293090Y-22962416D01*
X34027517Y-22816415D01*
X34023848Y-22814962D01*
X34023843Y-22814960D01*
X33863945Y-22751652D01*
X33807971Y-22707977D01*
X33784495Y-22640974D01*
X33800971Y-22571916D01*
X33852167Y-22522727D01*
X33910329Y-22508500D01*
X106089671Y-22508500D01*
X106157792Y-22528502D01*
G37*
%TD.AperFunction*%
%TD*%
M02*
