%TF.GenerationSoftware,KiCad,Pcbnew,(6.0.8)*%
%TF.CreationDate,2022-12-14T21:59:01-06:00*%
%TF.ProjectId,Closet Light with timmer,436c6f73-6574-4204-9c69-676874207769,rev?*%
%TF.SameCoordinates,Original*%
%TF.FileFunction,Drillmap*%
%TF.FilePolarity,Positive*%
%FSLAX45Y45*%
G04 Gerber Fmt 4.5, Leading zero omitted, Abs format (unit mm)*
G04 Created by KiCad (PCBNEW (6.0.8)) date 2022-12-14 21:59:01*
%MOMM*%
%LPD*%
G01*
G04 APERTURE LIST*
%ADD10C,0.100000*%
%ADD11C,0.200000*%
%ADD12C,0.040000*%
%ADD13C,0.080000*%
%ADD14C,0.110000*%
%ADD15C,0.120000*%
%ADD16C,0.220000*%
G04 APERTURE END LIST*
D10*
X10700000Y-6150000D02*
G75*
G03*
X11000000Y-5850000I0J300000D01*
G01*
X3300000Y-2200000D02*
G75*
G03*
X3000000Y-2500000I0J-300000D01*
G01*
X3000000Y-2500000D02*
X3000000Y-5850000D01*
X10700000Y-6150000D02*
X3300000Y-6150000D01*
X11000000Y-2500000D02*
X11000000Y-5850000D01*
X3000000Y-5850000D02*
G75*
G03*
X3300000Y-6150000I300000J0D01*
G01*
X10700000Y-2200000D02*
X3300000Y-2200000D01*
X11000000Y-2500000D02*
G75*
G03*
X10700000Y-2200000I-300000J0D01*
G01*
D11*
D12*
X4980000Y-4580000D02*
X5020000Y-4620000D01*
X5020000Y-4580000D02*
X4980000Y-4620000D01*
X5980000Y-4630000D02*
X6020000Y-4670000D01*
X6020000Y-4630000D02*
X5980000Y-4670000D01*
D13*
X4890000Y-4400000D02*
G75*
G03*
X4890000Y-4400000I-40000J0D01*
G01*
X4940000Y-4819000D02*
G75*
G03*
X4940000Y-4819000I-40000J0D01*
G01*
X4940000Y-5581000D02*
G75*
G03*
X4940000Y-5581000I-40000J0D01*
G01*
X5390000Y-4400000D02*
G75*
G03*
X5390000Y-4400000I-40000J0D01*
G01*
X5440000Y-3600000D02*
G75*
G03*
X5440000Y-3600000I-40000J0D01*
G01*
X5940000Y-3600000D02*
G75*
G03*
X5940000Y-3600000I-40000J0D01*
G01*
X6390000Y-4519000D02*
G75*
G03*
X6390000Y-4519000I-40000J0D01*
G01*
X6390000Y-5281000D02*
G75*
G03*
X6390000Y-5281000I-40000J0D01*
G01*
X6886000Y-3434500D02*
G75*
G03*
X6886000Y-3434500I-40000J0D01*
G01*
X6960000Y-4820000D02*
G75*
G03*
X6960000Y-4820000I-40000J0D01*
G01*
X6960000Y-5074000D02*
G75*
G03*
X6960000Y-5074000I-40000J0D01*
G01*
X6960000Y-5328000D02*
G75*
G03*
X6960000Y-5328000I-40000J0D01*
G01*
X6960000Y-5582000D02*
G75*
G03*
X6960000Y-5582000I-40000J0D01*
G01*
X7140000Y-3942500D02*
G75*
G03*
X7140000Y-3942500I-40000J0D01*
G01*
X7394000Y-3434500D02*
G75*
G03*
X7394000Y-3434500I-40000J0D01*
G01*
X7722000Y-4820000D02*
G75*
G03*
X7722000Y-4820000I-40000J0D01*
G01*
X7722000Y-5074000D02*
G75*
G03*
X7722000Y-5074000I-40000J0D01*
G01*
X7722000Y-5328000D02*
G75*
G03*
X7722000Y-5328000I-40000J0D01*
G01*
X7722000Y-5582000D02*
G75*
G03*
X7722000Y-5582000I-40000J0D01*
G01*
X8090000Y-4119000D02*
G75*
G03*
X8090000Y-4119000I-40000J0D01*
G01*
X8090000Y-4881000D02*
G75*
G03*
X8090000Y-4881000I-40000J0D01*
G01*
X8490000Y-5300000D02*
G75*
G03*
X8490000Y-5300000I-40000J0D01*
G01*
X8640000Y-4119000D02*
G75*
G03*
X8640000Y-4119000I-40000J0D01*
G01*
X8640000Y-4881000D02*
G75*
G03*
X8640000Y-4881000I-40000J0D01*
G01*
X8990000Y-5300000D02*
G75*
G03*
X8990000Y-5300000I-40000J0D01*
G01*
D14*
X3975000Y-4820000D02*
X3975000Y-4930000D01*
X3920000Y-4875000D02*
X4030000Y-4875000D01*
X3975000Y-5470000D02*
X3975000Y-5580000D01*
X3920000Y-5525000D02*
X4030000Y-5525000D01*
X4425000Y-4820000D02*
X4425000Y-4930000D01*
X4370000Y-4875000D02*
X4480000Y-4875000D01*
X4425000Y-5470000D02*
X4425000Y-5580000D01*
X4370000Y-5525000D02*
X4480000Y-5525000D01*
X5400000Y-4820000D02*
X5400000Y-4930000D01*
X5345000Y-4875000D02*
X5455000Y-4875000D01*
X5400000Y-5470000D02*
X5400000Y-5580000D01*
X5345000Y-5525000D02*
X5455000Y-5525000D01*
X5850000Y-4820000D02*
X5850000Y-4930000D01*
X5795000Y-4875000D02*
X5905000Y-4875000D01*
X5850000Y-5470000D02*
X5850000Y-5580000D01*
X5795000Y-5525000D02*
X5905000Y-5525000D01*
X8246000Y-3514500D02*
X8246000Y-3624500D01*
X8191000Y-3569500D02*
X8301000Y-3569500D01*
X8500000Y-3514500D02*
X8500000Y-3624500D01*
X8445000Y-3569500D02*
X8555000Y-3569500D01*
X8754000Y-3514500D02*
X8754000Y-3624500D01*
X8699000Y-3569500D02*
X8809000Y-3569500D01*
D15*
X4112427Y-3492427D02*
X4112427Y-3407573D01*
X4027573Y-3407573D01*
X4027573Y-3492427D01*
X4112427Y-3492427D01*
X4112427Y-3992427D02*
X4112427Y-3907573D01*
X4027573Y-3907573D01*
X4027573Y-3992427D01*
X4112427Y-3992427D01*
X10142427Y-3542427D02*
X10142427Y-3457573D01*
X10057573Y-3457573D01*
X10057573Y-3542427D01*
X10142427Y-3542427D01*
X10142427Y-4042427D02*
X10142427Y-3957573D01*
X10057573Y-3957573D01*
X10057573Y-4042427D01*
X10142427Y-4042427D01*
X10147427Y-4817427D02*
X10147427Y-4732573D01*
X10062573Y-4732573D01*
X10062573Y-4817427D01*
X10147427Y-4817427D01*
X10147427Y-5317427D02*
X10147427Y-5232573D01*
X10062573Y-5232573D01*
X10062573Y-5317427D01*
X10147427Y-5317427D01*
D16*
X3300000Y-2610000D02*
X3410000Y-2500000D01*
X3300000Y-2390000D01*
X3190000Y-2500000D01*
X3300000Y-2610000D01*
X3300000Y-5960000D02*
X3410000Y-5850000D01*
X3300000Y-5740000D01*
X3190000Y-5850000D01*
X3300000Y-5960000D01*
X10700000Y-2610000D02*
X10810000Y-2500000D01*
X10700000Y-2390000D01*
X10590000Y-2500000D01*
X10700000Y-2610000D01*
X10700000Y-5960000D02*
X10810000Y-5850000D01*
X10700000Y-5740000D01*
X10590000Y-5850000D01*
X10700000Y-5960000D01*
D11*
X3252619Y-6465476D02*
X3252619Y-6265476D01*
X3300238Y-6265476D01*
X3328809Y-6275000D01*
X3347857Y-6294048D01*
X3357381Y-6313095D01*
X3366905Y-6351190D01*
X3366905Y-6379762D01*
X3357381Y-6417857D01*
X3347857Y-6436905D01*
X3328809Y-6455952D01*
X3300238Y-6465476D01*
X3252619Y-6465476D01*
X3452619Y-6465476D02*
X3452619Y-6332143D01*
X3452619Y-6370238D02*
X3462143Y-6351190D01*
X3471667Y-6341667D01*
X3490714Y-6332143D01*
X3509762Y-6332143D01*
X3576428Y-6465476D02*
X3576428Y-6332143D01*
X3576428Y-6265476D02*
X3566905Y-6275000D01*
X3576428Y-6284524D01*
X3585952Y-6275000D01*
X3576428Y-6265476D01*
X3576428Y-6284524D01*
X3700238Y-6465476D02*
X3681190Y-6455952D01*
X3671667Y-6436905D01*
X3671667Y-6265476D01*
X3805000Y-6465476D02*
X3785952Y-6455952D01*
X3776428Y-6436905D01*
X3776428Y-6265476D01*
X4033571Y-6465476D02*
X4033571Y-6265476D01*
X4100238Y-6408333D01*
X4166905Y-6265476D01*
X4166905Y-6465476D01*
X4347857Y-6465476D02*
X4347857Y-6360714D01*
X4338333Y-6341667D01*
X4319286Y-6332143D01*
X4281190Y-6332143D01*
X4262143Y-6341667D01*
X4347857Y-6455952D02*
X4328810Y-6465476D01*
X4281190Y-6465476D01*
X4262143Y-6455952D01*
X4252619Y-6436905D01*
X4252619Y-6417857D01*
X4262143Y-6398809D01*
X4281190Y-6389286D01*
X4328810Y-6389286D01*
X4347857Y-6379762D01*
X4443095Y-6332143D02*
X4443095Y-6532143D01*
X4443095Y-6341667D02*
X4462143Y-6332143D01*
X4500238Y-6332143D01*
X4519286Y-6341667D01*
X4528810Y-6351190D01*
X4538333Y-6370238D01*
X4538333Y-6427381D01*
X4528810Y-6446428D01*
X4519286Y-6455952D01*
X4500238Y-6465476D01*
X4462143Y-6465476D01*
X4443095Y-6455952D01*
X4624048Y-6446428D02*
X4633571Y-6455952D01*
X4624048Y-6465476D01*
X4614524Y-6455952D01*
X4624048Y-6446428D01*
X4624048Y-6465476D01*
X4624048Y-6341667D02*
X4633571Y-6351190D01*
X4624048Y-6360714D01*
X4614524Y-6351190D01*
X4624048Y-6341667D01*
X4624048Y-6360714D01*
D12*
X2955000Y-6775000D02*
X2995000Y-6815000D01*
X2995000Y-6775000D02*
X2955000Y-6815000D01*
D11*
X3290714Y-6685476D02*
X3309762Y-6685476D01*
X3328809Y-6695000D01*
X3338333Y-6704524D01*
X3347857Y-6723571D01*
X3357381Y-6761667D01*
X3357381Y-6809286D01*
X3347857Y-6847381D01*
X3338333Y-6866428D01*
X3328809Y-6875952D01*
X3309762Y-6885476D01*
X3290714Y-6885476D01*
X3271667Y-6875952D01*
X3262143Y-6866428D01*
X3252619Y-6847381D01*
X3243095Y-6809286D01*
X3243095Y-6761667D01*
X3252619Y-6723571D01*
X3262143Y-6704524D01*
X3271667Y-6695000D01*
X3290714Y-6685476D01*
X3443095Y-6866428D02*
X3452619Y-6875952D01*
X3443095Y-6885476D01*
X3433571Y-6875952D01*
X3443095Y-6866428D01*
X3443095Y-6885476D01*
X3624048Y-6752143D02*
X3624048Y-6885476D01*
X3576428Y-6675952D02*
X3528809Y-6818809D01*
X3652619Y-6818809D01*
X3766905Y-6685476D02*
X3785952Y-6685476D01*
X3805000Y-6695000D01*
X3814524Y-6704524D01*
X3824048Y-6723571D01*
X3833571Y-6761667D01*
X3833571Y-6809286D01*
X3824048Y-6847381D01*
X3814524Y-6866428D01*
X3805000Y-6875952D01*
X3785952Y-6885476D01*
X3766905Y-6885476D01*
X3747857Y-6875952D01*
X3738333Y-6866428D01*
X3728809Y-6847381D01*
X3719286Y-6809286D01*
X3719286Y-6761667D01*
X3728809Y-6723571D01*
X3738333Y-6704524D01*
X3747857Y-6695000D01*
X3766905Y-6685476D01*
X3957381Y-6685476D02*
X3976428Y-6685476D01*
X3995476Y-6695000D01*
X4005000Y-6704524D01*
X4014524Y-6723571D01*
X4024048Y-6761667D01*
X4024048Y-6809286D01*
X4014524Y-6847381D01*
X4005000Y-6866428D01*
X3995476Y-6875952D01*
X3976428Y-6885476D01*
X3957381Y-6885476D01*
X3938333Y-6875952D01*
X3928809Y-6866428D01*
X3919286Y-6847381D01*
X3909762Y-6809286D01*
X3909762Y-6761667D01*
X3919286Y-6723571D01*
X3928809Y-6704524D01*
X3938333Y-6695000D01*
X3957381Y-6685476D01*
X4109762Y-6885476D02*
X4109762Y-6752143D01*
X4109762Y-6771190D02*
X4119286Y-6761667D01*
X4138333Y-6752143D01*
X4166905Y-6752143D01*
X4185952Y-6761667D01*
X4195476Y-6780714D01*
X4195476Y-6885476D01*
X4195476Y-6780714D02*
X4205000Y-6761667D01*
X4224048Y-6752143D01*
X4252619Y-6752143D01*
X4271667Y-6761667D01*
X4281190Y-6780714D01*
X4281190Y-6885476D01*
X4376429Y-6885476D02*
X4376429Y-6752143D01*
X4376429Y-6771190D02*
X4385952Y-6761667D01*
X4405000Y-6752143D01*
X4433571Y-6752143D01*
X4452619Y-6761667D01*
X4462143Y-6780714D01*
X4462143Y-6885476D01*
X4462143Y-6780714D02*
X4471667Y-6761667D01*
X4490714Y-6752143D01*
X4519286Y-6752143D01*
X4538333Y-6761667D01*
X4547857Y-6780714D01*
X4547857Y-6885476D01*
X4938333Y-6675952D02*
X4766905Y-6933095D01*
X5195476Y-6685476D02*
X5214524Y-6685476D01*
X5233571Y-6695000D01*
X5243095Y-6704524D01*
X5252619Y-6723571D01*
X5262143Y-6761667D01*
X5262143Y-6809286D01*
X5252619Y-6847381D01*
X5243095Y-6866428D01*
X5233571Y-6875952D01*
X5214524Y-6885476D01*
X5195476Y-6885476D01*
X5176429Y-6875952D01*
X5166905Y-6866428D01*
X5157381Y-6847381D01*
X5147857Y-6809286D01*
X5147857Y-6761667D01*
X5157381Y-6723571D01*
X5166905Y-6704524D01*
X5176429Y-6695000D01*
X5195476Y-6685476D01*
X5347857Y-6866428D02*
X5357381Y-6875952D01*
X5347857Y-6885476D01*
X5338333Y-6875952D01*
X5347857Y-6866428D01*
X5347857Y-6885476D01*
X5481190Y-6685476D02*
X5500238Y-6685476D01*
X5519286Y-6695000D01*
X5528810Y-6704524D01*
X5538333Y-6723571D01*
X5547857Y-6761667D01*
X5547857Y-6809286D01*
X5538333Y-6847381D01*
X5528810Y-6866428D01*
X5519286Y-6875952D01*
X5500238Y-6885476D01*
X5481190Y-6885476D01*
X5462143Y-6875952D01*
X5452619Y-6866428D01*
X5443095Y-6847381D01*
X5433571Y-6809286D01*
X5433571Y-6761667D01*
X5443095Y-6723571D01*
X5452619Y-6704524D01*
X5462143Y-6695000D01*
X5481190Y-6685476D01*
X5738333Y-6885476D02*
X5624048Y-6885476D01*
X5681190Y-6885476D02*
X5681190Y-6685476D01*
X5662143Y-6714048D01*
X5643095Y-6733095D01*
X5624048Y-6742619D01*
X5919286Y-6685476D02*
X5824048Y-6685476D01*
X5814524Y-6780714D01*
X5824048Y-6771190D01*
X5843095Y-6761667D01*
X5890714Y-6761667D01*
X5909762Y-6771190D01*
X5919286Y-6780714D01*
X5928809Y-6799762D01*
X5928809Y-6847381D01*
X5919286Y-6866428D01*
X5909762Y-6875952D01*
X5890714Y-6885476D01*
X5843095Y-6885476D01*
X5824048Y-6875952D01*
X5814524Y-6866428D01*
X5995476Y-6685476D02*
X6128809Y-6685476D01*
X6043095Y-6885476D01*
X6195476Y-6685476D02*
X6195476Y-6723571D01*
X6271667Y-6685476D02*
X6271667Y-6723571D01*
X6566905Y-6961667D02*
X6557381Y-6952143D01*
X6538333Y-6923571D01*
X6528809Y-6904524D01*
X6519286Y-6875952D01*
X6509762Y-6828333D01*
X6509762Y-6790238D01*
X6519286Y-6742619D01*
X6528809Y-6714048D01*
X6538333Y-6695000D01*
X6557381Y-6666428D01*
X6566905Y-6656905D01*
X6633571Y-6704524D02*
X6643095Y-6695000D01*
X6662143Y-6685476D01*
X6709762Y-6685476D01*
X6728809Y-6695000D01*
X6738333Y-6704524D01*
X6747857Y-6723571D01*
X6747857Y-6742619D01*
X6738333Y-6771190D01*
X6624048Y-6885476D01*
X6747857Y-6885476D01*
X6985952Y-6885476D02*
X6985952Y-6685476D01*
X7071667Y-6885476D02*
X7071667Y-6780714D01*
X7062143Y-6761667D01*
X7043095Y-6752143D01*
X7014524Y-6752143D01*
X6995476Y-6761667D01*
X6985952Y-6771190D01*
X7195476Y-6885476D02*
X7176428Y-6875952D01*
X7166905Y-6866428D01*
X7157381Y-6847381D01*
X7157381Y-6790238D01*
X7166905Y-6771190D01*
X7176428Y-6761667D01*
X7195476Y-6752143D01*
X7224048Y-6752143D01*
X7243095Y-6761667D01*
X7252619Y-6771190D01*
X7262143Y-6790238D01*
X7262143Y-6847381D01*
X7252619Y-6866428D01*
X7243095Y-6875952D01*
X7224048Y-6885476D01*
X7195476Y-6885476D01*
X7376428Y-6885476D02*
X7357381Y-6875952D01*
X7347857Y-6856905D01*
X7347857Y-6685476D01*
X7528809Y-6875952D02*
X7509762Y-6885476D01*
X7471667Y-6885476D01*
X7452619Y-6875952D01*
X7443095Y-6856905D01*
X7443095Y-6780714D01*
X7452619Y-6761667D01*
X7471667Y-6752143D01*
X7509762Y-6752143D01*
X7528809Y-6761667D01*
X7538333Y-6780714D01*
X7538333Y-6799762D01*
X7443095Y-6818809D01*
X7614524Y-6875952D02*
X7633571Y-6885476D01*
X7671667Y-6885476D01*
X7690714Y-6875952D01*
X7700238Y-6856905D01*
X7700238Y-6847381D01*
X7690714Y-6828333D01*
X7671667Y-6818809D01*
X7643095Y-6818809D01*
X7624048Y-6809286D01*
X7614524Y-6790238D01*
X7614524Y-6780714D01*
X7624048Y-6761667D01*
X7643095Y-6752143D01*
X7671667Y-6752143D01*
X7690714Y-6761667D01*
X7766905Y-6961667D02*
X7776428Y-6952143D01*
X7795476Y-6923571D01*
X7805000Y-6904524D01*
X7814524Y-6875952D01*
X7824048Y-6828333D01*
X7824048Y-6790238D01*
X7814524Y-6742619D01*
X7805000Y-6714048D01*
X7795476Y-6695000D01*
X7776428Y-6666428D01*
X7766905Y-6656905D01*
D13*
X2995000Y-7059000D02*
G75*
G03*
X2995000Y-7059000I-40000J0D01*
G01*
D11*
X3290714Y-6949476D02*
X3309762Y-6949476D01*
X3328809Y-6959000D01*
X3338333Y-6968524D01*
X3347857Y-6987571D01*
X3357381Y-7025667D01*
X3357381Y-7073286D01*
X3347857Y-7111381D01*
X3338333Y-7130428D01*
X3328809Y-7139952D01*
X3309762Y-7149476D01*
X3290714Y-7149476D01*
X3271667Y-7139952D01*
X3262143Y-7130428D01*
X3252619Y-7111381D01*
X3243095Y-7073286D01*
X3243095Y-7025667D01*
X3252619Y-6987571D01*
X3262143Y-6968524D01*
X3271667Y-6959000D01*
X3290714Y-6949476D01*
X3443095Y-7130428D02*
X3452619Y-7139952D01*
X3443095Y-7149476D01*
X3433571Y-7139952D01*
X3443095Y-7130428D01*
X3443095Y-7149476D01*
X3566905Y-7035190D02*
X3547857Y-7025667D01*
X3538333Y-7016143D01*
X3528809Y-6997095D01*
X3528809Y-6987571D01*
X3538333Y-6968524D01*
X3547857Y-6959000D01*
X3566905Y-6949476D01*
X3605000Y-6949476D01*
X3624048Y-6959000D01*
X3633571Y-6968524D01*
X3643095Y-6987571D01*
X3643095Y-6997095D01*
X3633571Y-7016143D01*
X3624048Y-7025667D01*
X3605000Y-7035190D01*
X3566905Y-7035190D01*
X3547857Y-7044714D01*
X3538333Y-7054238D01*
X3528809Y-7073286D01*
X3528809Y-7111381D01*
X3538333Y-7130428D01*
X3547857Y-7139952D01*
X3566905Y-7149476D01*
X3605000Y-7149476D01*
X3624048Y-7139952D01*
X3633571Y-7130428D01*
X3643095Y-7111381D01*
X3643095Y-7073286D01*
X3633571Y-7054238D01*
X3624048Y-7044714D01*
X3605000Y-7035190D01*
X3766905Y-6949476D02*
X3785952Y-6949476D01*
X3805000Y-6959000D01*
X3814524Y-6968524D01*
X3824048Y-6987571D01*
X3833571Y-7025667D01*
X3833571Y-7073286D01*
X3824048Y-7111381D01*
X3814524Y-7130428D01*
X3805000Y-7139952D01*
X3785952Y-7149476D01*
X3766905Y-7149476D01*
X3747857Y-7139952D01*
X3738333Y-7130428D01*
X3728809Y-7111381D01*
X3719286Y-7073286D01*
X3719286Y-7025667D01*
X3728809Y-6987571D01*
X3738333Y-6968524D01*
X3747857Y-6959000D01*
X3766905Y-6949476D01*
X3957381Y-6949476D02*
X3976428Y-6949476D01*
X3995476Y-6959000D01*
X4005000Y-6968524D01*
X4014524Y-6987571D01*
X4024048Y-7025667D01*
X4024048Y-7073286D01*
X4014524Y-7111381D01*
X4005000Y-7130428D01*
X3995476Y-7139952D01*
X3976428Y-7149476D01*
X3957381Y-7149476D01*
X3938333Y-7139952D01*
X3928809Y-7130428D01*
X3919286Y-7111381D01*
X3909762Y-7073286D01*
X3909762Y-7025667D01*
X3919286Y-6987571D01*
X3928809Y-6968524D01*
X3938333Y-6959000D01*
X3957381Y-6949476D01*
X4109762Y-7149476D02*
X4109762Y-7016143D01*
X4109762Y-7035190D02*
X4119286Y-7025667D01*
X4138333Y-7016143D01*
X4166905Y-7016143D01*
X4185952Y-7025667D01*
X4195476Y-7044714D01*
X4195476Y-7149476D01*
X4195476Y-7044714D02*
X4205000Y-7025667D01*
X4224048Y-7016143D01*
X4252619Y-7016143D01*
X4271667Y-7025667D01*
X4281190Y-7044714D01*
X4281190Y-7149476D01*
X4376429Y-7149476D02*
X4376429Y-7016143D01*
X4376429Y-7035190D02*
X4385952Y-7025667D01*
X4405000Y-7016143D01*
X4433571Y-7016143D01*
X4452619Y-7025667D01*
X4462143Y-7044714D01*
X4462143Y-7149476D01*
X4462143Y-7044714D02*
X4471667Y-7025667D01*
X4490714Y-7016143D01*
X4519286Y-7016143D01*
X4538333Y-7025667D01*
X4547857Y-7044714D01*
X4547857Y-7149476D01*
X4938333Y-6939952D02*
X4766905Y-7197095D01*
X5195476Y-6949476D02*
X5214524Y-6949476D01*
X5233571Y-6959000D01*
X5243095Y-6968524D01*
X5252619Y-6987571D01*
X5262143Y-7025667D01*
X5262143Y-7073286D01*
X5252619Y-7111381D01*
X5243095Y-7130428D01*
X5233571Y-7139952D01*
X5214524Y-7149476D01*
X5195476Y-7149476D01*
X5176429Y-7139952D01*
X5166905Y-7130428D01*
X5157381Y-7111381D01*
X5147857Y-7073286D01*
X5147857Y-7025667D01*
X5157381Y-6987571D01*
X5166905Y-6968524D01*
X5176429Y-6959000D01*
X5195476Y-6949476D01*
X5347857Y-7130428D02*
X5357381Y-7139952D01*
X5347857Y-7149476D01*
X5338333Y-7139952D01*
X5347857Y-7130428D01*
X5347857Y-7149476D01*
X5481190Y-6949476D02*
X5500238Y-6949476D01*
X5519286Y-6959000D01*
X5528810Y-6968524D01*
X5538333Y-6987571D01*
X5547857Y-7025667D01*
X5547857Y-7073286D01*
X5538333Y-7111381D01*
X5528810Y-7130428D01*
X5519286Y-7139952D01*
X5500238Y-7149476D01*
X5481190Y-7149476D01*
X5462143Y-7139952D01*
X5452619Y-7130428D01*
X5443095Y-7111381D01*
X5433571Y-7073286D01*
X5433571Y-7025667D01*
X5443095Y-6987571D01*
X5452619Y-6968524D01*
X5462143Y-6959000D01*
X5481190Y-6949476D01*
X5614524Y-6949476D02*
X5738333Y-6949476D01*
X5671667Y-7025667D01*
X5700238Y-7025667D01*
X5719286Y-7035190D01*
X5728809Y-7044714D01*
X5738333Y-7063762D01*
X5738333Y-7111381D01*
X5728809Y-7130428D01*
X5719286Y-7139952D01*
X5700238Y-7149476D01*
X5643095Y-7149476D01*
X5624048Y-7139952D01*
X5614524Y-7130428D01*
X5928809Y-7149476D02*
X5814524Y-7149476D01*
X5871667Y-7149476D02*
X5871667Y-6949476D01*
X5852619Y-6978048D01*
X5833571Y-6997095D01*
X5814524Y-7006619D01*
X6109762Y-6949476D02*
X6014524Y-6949476D01*
X6005000Y-7044714D01*
X6014524Y-7035190D01*
X6033571Y-7025667D01*
X6081190Y-7025667D01*
X6100238Y-7035190D01*
X6109762Y-7044714D01*
X6119286Y-7063762D01*
X6119286Y-7111381D01*
X6109762Y-7130428D01*
X6100238Y-7139952D01*
X6081190Y-7149476D01*
X6033571Y-7149476D01*
X6014524Y-7139952D01*
X6005000Y-7130428D01*
X6195476Y-6949476D02*
X6195476Y-6987571D01*
X6271667Y-6949476D02*
X6271667Y-6987571D01*
X6566905Y-7225667D02*
X6557381Y-7216143D01*
X6538333Y-7187571D01*
X6528809Y-7168524D01*
X6519286Y-7139952D01*
X6509762Y-7092333D01*
X6509762Y-7054238D01*
X6519286Y-7006619D01*
X6528809Y-6978048D01*
X6538333Y-6959000D01*
X6557381Y-6930428D01*
X6566905Y-6920905D01*
X6633571Y-6968524D02*
X6643095Y-6959000D01*
X6662143Y-6949476D01*
X6709762Y-6949476D01*
X6728809Y-6959000D01*
X6738333Y-6968524D01*
X6747857Y-6987571D01*
X6747857Y-7006619D01*
X6738333Y-7035190D01*
X6624048Y-7149476D01*
X6747857Y-7149476D01*
X6928809Y-6949476D02*
X6833571Y-6949476D01*
X6824048Y-7044714D01*
X6833571Y-7035190D01*
X6852619Y-7025667D01*
X6900238Y-7025667D01*
X6919286Y-7035190D01*
X6928809Y-7044714D01*
X6938333Y-7063762D01*
X6938333Y-7111381D01*
X6928809Y-7130428D01*
X6919286Y-7139952D01*
X6900238Y-7149476D01*
X6852619Y-7149476D01*
X6833571Y-7139952D01*
X6824048Y-7130428D01*
X7176428Y-7149476D02*
X7176428Y-6949476D01*
X7262143Y-7149476D02*
X7262143Y-7044714D01*
X7252619Y-7025667D01*
X7233571Y-7016143D01*
X7205000Y-7016143D01*
X7185952Y-7025667D01*
X7176428Y-7035190D01*
X7385952Y-7149476D02*
X7366905Y-7139952D01*
X7357381Y-7130428D01*
X7347857Y-7111381D01*
X7347857Y-7054238D01*
X7357381Y-7035190D01*
X7366905Y-7025667D01*
X7385952Y-7016143D01*
X7414524Y-7016143D01*
X7433571Y-7025667D01*
X7443095Y-7035190D01*
X7452619Y-7054238D01*
X7452619Y-7111381D01*
X7443095Y-7130428D01*
X7433571Y-7139952D01*
X7414524Y-7149476D01*
X7385952Y-7149476D01*
X7566905Y-7149476D02*
X7547857Y-7139952D01*
X7538333Y-7120905D01*
X7538333Y-6949476D01*
X7719286Y-7139952D02*
X7700238Y-7149476D01*
X7662143Y-7149476D01*
X7643095Y-7139952D01*
X7633571Y-7120905D01*
X7633571Y-7044714D01*
X7643095Y-7025667D01*
X7662143Y-7016143D01*
X7700238Y-7016143D01*
X7719286Y-7025667D01*
X7728809Y-7044714D01*
X7728809Y-7063762D01*
X7633571Y-7082809D01*
X7805000Y-7139952D02*
X7824048Y-7149476D01*
X7862143Y-7149476D01*
X7881190Y-7139952D01*
X7890714Y-7120905D01*
X7890714Y-7111381D01*
X7881190Y-7092333D01*
X7862143Y-7082809D01*
X7833571Y-7082809D01*
X7814524Y-7073286D01*
X7805000Y-7054238D01*
X7805000Y-7044714D01*
X7814524Y-7025667D01*
X7833571Y-7016143D01*
X7862143Y-7016143D01*
X7881190Y-7025667D01*
X7957381Y-7225667D02*
X7966905Y-7216143D01*
X7985952Y-7187571D01*
X7995476Y-7168524D01*
X8005000Y-7139952D01*
X8014524Y-7092333D01*
X8014524Y-7054238D01*
X8005000Y-7006619D01*
X7995476Y-6978048D01*
X7985952Y-6959000D01*
X7966905Y-6930428D01*
X7957381Y-6920905D01*
D14*
X2940000Y-7268000D02*
X2940000Y-7378000D01*
X2885000Y-7323000D02*
X2995000Y-7323000D01*
D11*
X3357381Y-7413476D02*
X3243095Y-7413476D01*
X3300238Y-7413476D02*
X3300238Y-7213476D01*
X3281190Y-7242048D01*
X3262143Y-7261095D01*
X3243095Y-7270619D01*
X3443095Y-7394428D02*
X3452619Y-7403952D01*
X3443095Y-7413476D01*
X3433571Y-7403952D01*
X3443095Y-7394428D01*
X3443095Y-7413476D01*
X3643095Y-7413476D02*
X3528809Y-7413476D01*
X3585952Y-7413476D02*
X3585952Y-7213476D01*
X3566905Y-7242048D01*
X3547857Y-7261095D01*
X3528809Y-7270619D01*
X3766905Y-7213476D02*
X3785952Y-7213476D01*
X3805000Y-7223000D01*
X3814524Y-7232524D01*
X3824048Y-7251571D01*
X3833571Y-7289667D01*
X3833571Y-7337286D01*
X3824048Y-7375381D01*
X3814524Y-7394428D01*
X3805000Y-7403952D01*
X3785952Y-7413476D01*
X3766905Y-7413476D01*
X3747857Y-7403952D01*
X3738333Y-7394428D01*
X3728809Y-7375381D01*
X3719286Y-7337286D01*
X3719286Y-7289667D01*
X3728809Y-7251571D01*
X3738333Y-7232524D01*
X3747857Y-7223000D01*
X3766905Y-7213476D01*
X3957381Y-7213476D02*
X3976428Y-7213476D01*
X3995476Y-7223000D01*
X4005000Y-7232524D01*
X4014524Y-7251571D01*
X4024048Y-7289667D01*
X4024048Y-7337286D01*
X4014524Y-7375381D01*
X4005000Y-7394428D01*
X3995476Y-7403952D01*
X3976428Y-7413476D01*
X3957381Y-7413476D01*
X3938333Y-7403952D01*
X3928809Y-7394428D01*
X3919286Y-7375381D01*
X3909762Y-7337286D01*
X3909762Y-7289667D01*
X3919286Y-7251571D01*
X3928809Y-7232524D01*
X3938333Y-7223000D01*
X3957381Y-7213476D01*
X4109762Y-7413476D02*
X4109762Y-7280143D01*
X4109762Y-7299190D02*
X4119286Y-7289667D01*
X4138333Y-7280143D01*
X4166905Y-7280143D01*
X4185952Y-7289667D01*
X4195476Y-7308714D01*
X4195476Y-7413476D01*
X4195476Y-7308714D02*
X4205000Y-7289667D01*
X4224048Y-7280143D01*
X4252619Y-7280143D01*
X4271667Y-7289667D01*
X4281190Y-7308714D01*
X4281190Y-7413476D01*
X4376429Y-7413476D02*
X4376429Y-7280143D01*
X4376429Y-7299190D02*
X4385952Y-7289667D01*
X4405000Y-7280143D01*
X4433571Y-7280143D01*
X4452619Y-7289667D01*
X4462143Y-7308714D01*
X4462143Y-7413476D01*
X4462143Y-7308714D02*
X4471667Y-7289667D01*
X4490714Y-7280143D01*
X4519286Y-7280143D01*
X4538333Y-7289667D01*
X4547857Y-7308714D01*
X4547857Y-7413476D01*
X4938333Y-7203952D02*
X4766905Y-7461095D01*
X5195476Y-7213476D02*
X5214524Y-7213476D01*
X5233571Y-7223000D01*
X5243095Y-7232524D01*
X5252619Y-7251571D01*
X5262143Y-7289667D01*
X5262143Y-7337286D01*
X5252619Y-7375381D01*
X5243095Y-7394428D01*
X5233571Y-7403952D01*
X5214524Y-7413476D01*
X5195476Y-7413476D01*
X5176429Y-7403952D01*
X5166905Y-7394428D01*
X5157381Y-7375381D01*
X5147857Y-7337286D01*
X5147857Y-7289667D01*
X5157381Y-7251571D01*
X5166905Y-7232524D01*
X5176429Y-7223000D01*
X5195476Y-7213476D01*
X5347857Y-7394428D02*
X5357381Y-7403952D01*
X5347857Y-7413476D01*
X5338333Y-7403952D01*
X5347857Y-7394428D01*
X5347857Y-7413476D01*
X5481190Y-7213476D02*
X5500238Y-7213476D01*
X5519286Y-7223000D01*
X5528810Y-7232524D01*
X5538333Y-7251571D01*
X5547857Y-7289667D01*
X5547857Y-7337286D01*
X5538333Y-7375381D01*
X5528810Y-7394428D01*
X5519286Y-7403952D01*
X5500238Y-7413476D01*
X5481190Y-7413476D01*
X5462143Y-7403952D01*
X5452619Y-7394428D01*
X5443095Y-7375381D01*
X5433571Y-7337286D01*
X5433571Y-7289667D01*
X5443095Y-7251571D01*
X5452619Y-7232524D01*
X5462143Y-7223000D01*
X5481190Y-7213476D01*
X5719286Y-7280143D02*
X5719286Y-7413476D01*
X5671667Y-7203952D02*
X5624048Y-7346809D01*
X5747857Y-7346809D01*
X5805000Y-7213476D02*
X5928809Y-7213476D01*
X5862143Y-7289667D01*
X5890714Y-7289667D01*
X5909762Y-7299190D01*
X5919286Y-7308714D01*
X5928809Y-7327762D01*
X5928809Y-7375381D01*
X5919286Y-7394428D01*
X5909762Y-7403952D01*
X5890714Y-7413476D01*
X5833571Y-7413476D01*
X5814524Y-7403952D01*
X5805000Y-7394428D01*
X5995476Y-7213476D02*
X6119286Y-7213476D01*
X6052619Y-7289667D01*
X6081190Y-7289667D01*
X6100238Y-7299190D01*
X6109762Y-7308714D01*
X6119286Y-7327762D01*
X6119286Y-7375381D01*
X6109762Y-7394428D01*
X6100238Y-7403952D01*
X6081190Y-7413476D01*
X6024048Y-7413476D01*
X6005000Y-7403952D01*
X5995476Y-7394428D01*
X6195476Y-7213476D02*
X6195476Y-7251571D01*
X6271667Y-7213476D02*
X6271667Y-7251571D01*
X6566905Y-7489667D02*
X6557381Y-7480143D01*
X6538333Y-7451571D01*
X6528809Y-7432524D01*
X6519286Y-7403952D01*
X6509762Y-7356333D01*
X6509762Y-7318238D01*
X6519286Y-7270619D01*
X6528809Y-7242048D01*
X6538333Y-7223000D01*
X6557381Y-7194428D01*
X6566905Y-7184905D01*
X6747857Y-7413476D02*
X6633571Y-7413476D01*
X6690714Y-7413476D02*
X6690714Y-7213476D01*
X6671667Y-7242048D01*
X6652619Y-7261095D01*
X6633571Y-7270619D01*
X6938333Y-7413476D02*
X6824048Y-7413476D01*
X6881190Y-7413476D02*
X6881190Y-7213476D01*
X6862143Y-7242048D01*
X6843095Y-7261095D01*
X6824048Y-7270619D01*
X7176428Y-7413476D02*
X7176428Y-7213476D01*
X7262143Y-7413476D02*
X7262143Y-7308714D01*
X7252619Y-7289667D01*
X7233571Y-7280143D01*
X7205000Y-7280143D01*
X7185952Y-7289667D01*
X7176428Y-7299190D01*
X7385952Y-7413476D02*
X7366905Y-7403952D01*
X7357381Y-7394428D01*
X7347857Y-7375381D01*
X7347857Y-7318238D01*
X7357381Y-7299190D01*
X7366905Y-7289667D01*
X7385952Y-7280143D01*
X7414524Y-7280143D01*
X7433571Y-7289667D01*
X7443095Y-7299190D01*
X7452619Y-7318238D01*
X7452619Y-7375381D01*
X7443095Y-7394428D01*
X7433571Y-7403952D01*
X7414524Y-7413476D01*
X7385952Y-7413476D01*
X7566905Y-7413476D02*
X7547857Y-7403952D01*
X7538333Y-7384905D01*
X7538333Y-7213476D01*
X7719286Y-7403952D02*
X7700238Y-7413476D01*
X7662143Y-7413476D01*
X7643095Y-7403952D01*
X7633571Y-7384905D01*
X7633571Y-7308714D01*
X7643095Y-7289667D01*
X7662143Y-7280143D01*
X7700238Y-7280143D01*
X7719286Y-7289667D01*
X7728809Y-7308714D01*
X7728809Y-7327762D01*
X7633571Y-7346809D01*
X7805000Y-7403952D02*
X7824048Y-7413476D01*
X7862143Y-7413476D01*
X7881190Y-7403952D01*
X7890714Y-7384905D01*
X7890714Y-7375381D01*
X7881190Y-7356333D01*
X7862143Y-7346809D01*
X7833571Y-7346809D01*
X7814524Y-7337286D01*
X7805000Y-7318238D01*
X7805000Y-7308714D01*
X7814524Y-7289667D01*
X7833571Y-7280143D01*
X7862143Y-7280143D01*
X7881190Y-7289667D01*
X7957381Y-7489667D02*
X7966905Y-7480143D01*
X7985952Y-7451571D01*
X7995476Y-7432524D01*
X8005000Y-7403952D01*
X8014524Y-7356333D01*
X8014524Y-7318238D01*
X8005000Y-7270619D01*
X7995476Y-7242048D01*
X7985952Y-7223000D01*
X7966905Y-7194428D01*
X7957381Y-7184905D01*
D15*
X2977427Y-7629427D02*
X2977427Y-7544573D01*
X2892573Y-7544573D01*
X2892573Y-7629427D01*
X2977427Y-7629427D01*
D11*
X3357381Y-7677476D02*
X3243095Y-7677476D01*
X3300238Y-7677476D02*
X3300238Y-7477476D01*
X3281190Y-7506048D01*
X3262143Y-7525095D01*
X3243095Y-7534619D01*
X3443095Y-7658428D02*
X3452619Y-7667952D01*
X3443095Y-7677476D01*
X3433571Y-7667952D01*
X3443095Y-7658428D01*
X3443095Y-7677476D01*
X3528809Y-7496524D02*
X3538333Y-7487000D01*
X3557381Y-7477476D01*
X3605000Y-7477476D01*
X3624048Y-7487000D01*
X3633571Y-7496524D01*
X3643095Y-7515571D01*
X3643095Y-7534619D01*
X3633571Y-7563190D01*
X3519286Y-7677476D01*
X3643095Y-7677476D01*
X3766905Y-7477476D02*
X3785952Y-7477476D01*
X3805000Y-7487000D01*
X3814524Y-7496524D01*
X3824048Y-7515571D01*
X3833571Y-7553667D01*
X3833571Y-7601286D01*
X3824048Y-7639381D01*
X3814524Y-7658428D01*
X3805000Y-7667952D01*
X3785952Y-7677476D01*
X3766905Y-7677476D01*
X3747857Y-7667952D01*
X3738333Y-7658428D01*
X3728809Y-7639381D01*
X3719286Y-7601286D01*
X3719286Y-7553667D01*
X3728809Y-7515571D01*
X3738333Y-7496524D01*
X3747857Y-7487000D01*
X3766905Y-7477476D01*
X3957381Y-7477476D02*
X3976428Y-7477476D01*
X3995476Y-7487000D01*
X4005000Y-7496524D01*
X4014524Y-7515571D01*
X4024048Y-7553667D01*
X4024048Y-7601286D01*
X4014524Y-7639381D01*
X4005000Y-7658428D01*
X3995476Y-7667952D01*
X3976428Y-7677476D01*
X3957381Y-7677476D01*
X3938333Y-7667952D01*
X3928809Y-7658428D01*
X3919286Y-7639381D01*
X3909762Y-7601286D01*
X3909762Y-7553667D01*
X3919286Y-7515571D01*
X3928809Y-7496524D01*
X3938333Y-7487000D01*
X3957381Y-7477476D01*
X4109762Y-7677476D02*
X4109762Y-7544143D01*
X4109762Y-7563190D02*
X4119286Y-7553667D01*
X4138333Y-7544143D01*
X4166905Y-7544143D01*
X4185952Y-7553667D01*
X4195476Y-7572714D01*
X4195476Y-7677476D01*
X4195476Y-7572714D02*
X4205000Y-7553667D01*
X4224048Y-7544143D01*
X4252619Y-7544143D01*
X4271667Y-7553667D01*
X4281190Y-7572714D01*
X4281190Y-7677476D01*
X4376429Y-7677476D02*
X4376429Y-7544143D01*
X4376429Y-7563190D02*
X4385952Y-7553667D01*
X4405000Y-7544143D01*
X4433571Y-7544143D01*
X4452619Y-7553667D01*
X4462143Y-7572714D01*
X4462143Y-7677476D01*
X4462143Y-7572714D02*
X4471667Y-7553667D01*
X4490714Y-7544143D01*
X4519286Y-7544143D01*
X4538333Y-7553667D01*
X4547857Y-7572714D01*
X4547857Y-7677476D01*
X4938333Y-7467952D02*
X4766905Y-7725095D01*
X5195476Y-7477476D02*
X5214524Y-7477476D01*
X5233571Y-7487000D01*
X5243095Y-7496524D01*
X5252619Y-7515571D01*
X5262143Y-7553667D01*
X5262143Y-7601286D01*
X5252619Y-7639381D01*
X5243095Y-7658428D01*
X5233571Y-7667952D01*
X5214524Y-7677476D01*
X5195476Y-7677476D01*
X5176429Y-7667952D01*
X5166905Y-7658428D01*
X5157381Y-7639381D01*
X5147857Y-7601286D01*
X5147857Y-7553667D01*
X5157381Y-7515571D01*
X5166905Y-7496524D01*
X5176429Y-7487000D01*
X5195476Y-7477476D01*
X5347857Y-7658428D02*
X5357381Y-7667952D01*
X5347857Y-7677476D01*
X5338333Y-7667952D01*
X5347857Y-7658428D01*
X5347857Y-7677476D01*
X5481190Y-7477476D02*
X5500238Y-7477476D01*
X5519286Y-7487000D01*
X5528810Y-7496524D01*
X5538333Y-7515571D01*
X5547857Y-7553667D01*
X5547857Y-7601286D01*
X5538333Y-7639381D01*
X5528810Y-7658428D01*
X5519286Y-7667952D01*
X5500238Y-7677476D01*
X5481190Y-7677476D01*
X5462143Y-7667952D01*
X5452619Y-7658428D01*
X5443095Y-7639381D01*
X5433571Y-7601286D01*
X5433571Y-7553667D01*
X5443095Y-7515571D01*
X5452619Y-7496524D01*
X5462143Y-7487000D01*
X5481190Y-7477476D01*
X5719286Y-7544143D02*
X5719286Y-7677476D01*
X5671667Y-7467952D02*
X5624048Y-7610809D01*
X5747857Y-7610809D01*
X5805000Y-7477476D02*
X5938333Y-7477476D01*
X5852619Y-7677476D01*
X6005000Y-7496524D02*
X6014524Y-7487000D01*
X6033571Y-7477476D01*
X6081190Y-7477476D01*
X6100238Y-7487000D01*
X6109762Y-7496524D01*
X6119286Y-7515571D01*
X6119286Y-7534619D01*
X6109762Y-7563190D01*
X5995476Y-7677476D01*
X6119286Y-7677476D01*
X6195476Y-7477476D02*
X6195476Y-7515571D01*
X6271667Y-7477476D02*
X6271667Y-7515571D01*
X6566905Y-7753667D02*
X6557381Y-7744143D01*
X6538333Y-7715571D01*
X6528809Y-7696524D01*
X6519286Y-7667952D01*
X6509762Y-7620333D01*
X6509762Y-7582238D01*
X6519286Y-7534619D01*
X6528809Y-7506048D01*
X6538333Y-7487000D01*
X6557381Y-7458428D01*
X6566905Y-7448905D01*
X6728809Y-7477476D02*
X6690714Y-7477476D01*
X6671667Y-7487000D01*
X6662143Y-7496524D01*
X6643095Y-7525095D01*
X6633571Y-7563190D01*
X6633571Y-7639381D01*
X6643095Y-7658428D01*
X6652619Y-7667952D01*
X6671667Y-7677476D01*
X6709762Y-7677476D01*
X6728809Y-7667952D01*
X6738333Y-7658428D01*
X6747857Y-7639381D01*
X6747857Y-7591762D01*
X6738333Y-7572714D01*
X6728809Y-7563190D01*
X6709762Y-7553667D01*
X6671667Y-7553667D01*
X6652619Y-7563190D01*
X6643095Y-7572714D01*
X6633571Y-7591762D01*
X6985952Y-7677476D02*
X6985952Y-7477476D01*
X7071667Y-7677476D02*
X7071667Y-7572714D01*
X7062143Y-7553667D01*
X7043095Y-7544143D01*
X7014524Y-7544143D01*
X6995476Y-7553667D01*
X6985952Y-7563190D01*
X7195476Y-7677476D02*
X7176428Y-7667952D01*
X7166905Y-7658428D01*
X7157381Y-7639381D01*
X7157381Y-7582238D01*
X7166905Y-7563190D01*
X7176428Y-7553667D01*
X7195476Y-7544143D01*
X7224048Y-7544143D01*
X7243095Y-7553667D01*
X7252619Y-7563190D01*
X7262143Y-7582238D01*
X7262143Y-7639381D01*
X7252619Y-7658428D01*
X7243095Y-7667952D01*
X7224048Y-7677476D01*
X7195476Y-7677476D01*
X7376428Y-7677476D02*
X7357381Y-7667952D01*
X7347857Y-7648905D01*
X7347857Y-7477476D01*
X7528809Y-7667952D02*
X7509762Y-7677476D01*
X7471667Y-7677476D01*
X7452619Y-7667952D01*
X7443095Y-7648905D01*
X7443095Y-7572714D01*
X7452619Y-7553667D01*
X7471667Y-7544143D01*
X7509762Y-7544143D01*
X7528809Y-7553667D01*
X7538333Y-7572714D01*
X7538333Y-7591762D01*
X7443095Y-7610809D01*
X7614524Y-7667952D02*
X7633571Y-7677476D01*
X7671667Y-7677476D01*
X7690714Y-7667952D01*
X7700238Y-7648905D01*
X7700238Y-7639381D01*
X7690714Y-7620333D01*
X7671667Y-7610809D01*
X7643095Y-7610809D01*
X7624048Y-7601286D01*
X7614524Y-7582238D01*
X7614524Y-7572714D01*
X7624048Y-7553667D01*
X7643095Y-7544143D01*
X7671667Y-7544143D01*
X7690714Y-7553667D01*
X7766905Y-7753667D02*
X7776428Y-7744143D01*
X7795476Y-7715571D01*
X7805000Y-7696524D01*
X7814524Y-7667952D01*
X7824048Y-7620333D01*
X7824048Y-7582238D01*
X7814524Y-7534619D01*
X7805000Y-7506048D01*
X7795476Y-7487000D01*
X7776428Y-7458428D01*
X7766905Y-7448905D01*
X2895000Y-7951000D02*
X2995000Y-7851000D01*
X2895000Y-7751000D01*
X2795000Y-7851000D01*
X2895000Y-7951000D01*
X3243095Y-7760524D02*
X3252619Y-7751000D01*
X3271667Y-7741476D01*
X3319286Y-7741476D01*
X3338333Y-7751000D01*
X3347857Y-7760524D01*
X3357381Y-7779571D01*
X3357381Y-7798619D01*
X3347857Y-7827190D01*
X3233571Y-7941476D01*
X3357381Y-7941476D01*
X3443095Y-7922428D02*
X3452619Y-7931952D01*
X3443095Y-7941476D01*
X3433571Y-7931952D01*
X3443095Y-7922428D01*
X3443095Y-7941476D01*
X3528809Y-7760524D02*
X3538333Y-7751000D01*
X3557381Y-7741476D01*
X3605000Y-7741476D01*
X3624048Y-7751000D01*
X3633571Y-7760524D01*
X3643095Y-7779571D01*
X3643095Y-7798619D01*
X3633571Y-7827190D01*
X3519286Y-7941476D01*
X3643095Y-7941476D01*
X3766905Y-7741476D02*
X3785952Y-7741476D01*
X3805000Y-7751000D01*
X3814524Y-7760524D01*
X3824048Y-7779571D01*
X3833571Y-7817667D01*
X3833571Y-7865286D01*
X3824048Y-7903381D01*
X3814524Y-7922428D01*
X3805000Y-7931952D01*
X3785952Y-7941476D01*
X3766905Y-7941476D01*
X3747857Y-7931952D01*
X3738333Y-7922428D01*
X3728809Y-7903381D01*
X3719286Y-7865286D01*
X3719286Y-7817667D01*
X3728809Y-7779571D01*
X3738333Y-7760524D01*
X3747857Y-7751000D01*
X3766905Y-7741476D01*
X3957381Y-7741476D02*
X3976428Y-7741476D01*
X3995476Y-7751000D01*
X4005000Y-7760524D01*
X4014524Y-7779571D01*
X4024048Y-7817667D01*
X4024048Y-7865286D01*
X4014524Y-7903381D01*
X4005000Y-7922428D01*
X3995476Y-7931952D01*
X3976428Y-7941476D01*
X3957381Y-7941476D01*
X3938333Y-7931952D01*
X3928809Y-7922428D01*
X3919286Y-7903381D01*
X3909762Y-7865286D01*
X3909762Y-7817667D01*
X3919286Y-7779571D01*
X3928809Y-7760524D01*
X3938333Y-7751000D01*
X3957381Y-7741476D01*
X4109762Y-7941476D02*
X4109762Y-7808143D01*
X4109762Y-7827190D02*
X4119286Y-7817667D01*
X4138333Y-7808143D01*
X4166905Y-7808143D01*
X4185952Y-7817667D01*
X4195476Y-7836714D01*
X4195476Y-7941476D01*
X4195476Y-7836714D02*
X4205000Y-7817667D01*
X4224048Y-7808143D01*
X4252619Y-7808143D01*
X4271667Y-7817667D01*
X4281190Y-7836714D01*
X4281190Y-7941476D01*
X4376429Y-7941476D02*
X4376429Y-7808143D01*
X4376429Y-7827190D02*
X4385952Y-7817667D01*
X4405000Y-7808143D01*
X4433571Y-7808143D01*
X4452619Y-7817667D01*
X4462143Y-7836714D01*
X4462143Y-7941476D01*
X4462143Y-7836714D02*
X4471667Y-7817667D01*
X4490714Y-7808143D01*
X4519286Y-7808143D01*
X4538333Y-7817667D01*
X4547857Y-7836714D01*
X4547857Y-7941476D01*
X4938333Y-7731952D02*
X4766905Y-7989095D01*
X5195476Y-7741476D02*
X5214524Y-7741476D01*
X5233571Y-7751000D01*
X5243095Y-7760524D01*
X5252619Y-7779571D01*
X5262143Y-7817667D01*
X5262143Y-7865286D01*
X5252619Y-7903381D01*
X5243095Y-7922428D01*
X5233571Y-7931952D01*
X5214524Y-7941476D01*
X5195476Y-7941476D01*
X5176429Y-7931952D01*
X5166905Y-7922428D01*
X5157381Y-7903381D01*
X5147857Y-7865286D01*
X5147857Y-7817667D01*
X5157381Y-7779571D01*
X5166905Y-7760524D01*
X5176429Y-7751000D01*
X5195476Y-7741476D01*
X5347857Y-7922428D02*
X5357381Y-7931952D01*
X5347857Y-7941476D01*
X5338333Y-7931952D01*
X5347857Y-7922428D01*
X5347857Y-7941476D01*
X5481190Y-7741476D02*
X5500238Y-7741476D01*
X5519286Y-7751000D01*
X5528810Y-7760524D01*
X5538333Y-7779571D01*
X5547857Y-7817667D01*
X5547857Y-7865286D01*
X5538333Y-7903381D01*
X5528810Y-7922428D01*
X5519286Y-7931952D01*
X5500238Y-7941476D01*
X5481190Y-7941476D01*
X5462143Y-7931952D01*
X5452619Y-7922428D01*
X5443095Y-7903381D01*
X5433571Y-7865286D01*
X5433571Y-7817667D01*
X5443095Y-7779571D01*
X5452619Y-7760524D01*
X5462143Y-7751000D01*
X5481190Y-7741476D01*
X5662143Y-7827190D02*
X5643095Y-7817667D01*
X5633571Y-7808143D01*
X5624048Y-7789095D01*
X5624048Y-7779571D01*
X5633571Y-7760524D01*
X5643095Y-7751000D01*
X5662143Y-7741476D01*
X5700238Y-7741476D01*
X5719286Y-7751000D01*
X5728809Y-7760524D01*
X5738333Y-7779571D01*
X5738333Y-7789095D01*
X5728809Y-7808143D01*
X5719286Y-7817667D01*
X5700238Y-7827190D01*
X5662143Y-7827190D01*
X5643095Y-7836714D01*
X5633571Y-7846238D01*
X5624048Y-7865286D01*
X5624048Y-7903381D01*
X5633571Y-7922428D01*
X5643095Y-7931952D01*
X5662143Y-7941476D01*
X5700238Y-7941476D01*
X5719286Y-7931952D01*
X5728809Y-7922428D01*
X5738333Y-7903381D01*
X5738333Y-7865286D01*
X5728809Y-7846238D01*
X5719286Y-7836714D01*
X5700238Y-7827190D01*
X5909762Y-7741476D02*
X5871667Y-7741476D01*
X5852619Y-7751000D01*
X5843095Y-7760524D01*
X5824048Y-7789095D01*
X5814524Y-7827190D01*
X5814524Y-7903381D01*
X5824048Y-7922428D01*
X5833571Y-7931952D01*
X5852619Y-7941476D01*
X5890714Y-7941476D01*
X5909762Y-7931952D01*
X5919286Y-7922428D01*
X5928809Y-7903381D01*
X5928809Y-7855762D01*
X5919286Y-7836714D01*
X5909762Y-7827190D01*
X5890714Y-7817667D01*
X5852619Y-7817667D01*
X5833571Y-7827190D01*
X5824048Y-7836714D01*
X5814524Y-7855762D01*
X6100238Y-7741476D02*
X6062143Y-7741476D01*
X6043095Y-7751000D01*
X6033571Y-7760524D01*
X6014524Y-7789095D01*
X6005000Y-7827190D01*
X6005000Y-7903381D01*
X6014524Y-7922428D01*
X6024048Y-7931952D01*
X6043095Y-7941476D01*
X6081190Y-7941476D01*
X6100238Y-7931952D01*
X6109762Y-7922428D01*
X6119286Y-7903381D01*
X6119286Y-7855762D01*
X6109762Y-7836714D01*
X6100238Y-7827190D01*
X6081190Y-7817667D01*
X6043095Y-7817667D01*
X6024048Y-7827190D01*
X6014524Y-7836714D01*
X6005000Y-7855762D01*
X6195476Y-7741476D02*
X6195476Y-7779571D01*
X6271667Y-7741476D02*
X6271667Y-7779571D01*
X6566905Y-8017667D02*
X6557381Y-8008143D01*
X6538333Y-7979571D01*
X6528809Y-7960524D01*
X6519286Y-7931952D01*
X6509762Y-7884333D01*
X6509762Y-7846238D01*
X6519286Y-7798619D01*
X6528809Y-7770048D01*
X6538333Y-7751000D01*
X6557381Y-7722428D01*
X6566905Y-7712905D01*
X6728809Y-7808143D02*
X6728809Y-7941476D01*
X6681190Y-7731952D02*
X6633571Y-7874809D01*
X6757381Y-7874809D01*
X6985952Y-7941476D02*
X6985952Y-7741476D01*
X7071667Y-7941476D02*
X7071667Y-7836714D01*
X7062143Y-7817667D01*
X7043095Y-7808143D01*
X7014524Y-7808143D01*
X6995476Y-7817667D01*
X6985952Y-7827190D01*
X7195476Y-7941476D02*
X7176428Y-7931952D01*
X7166905Y-7922428D01*
X7157381Y-7903381D01*
X7157381Y-7846238D01*
X7166905Y-7827190D01*
X7176428Y-7817667D01*
X7195476Y-7808143D01*
X7224048Y-7808143D01*
X7243095Y-7817667D01*
X7252619Y-7827190D01*
X7262143Y-7846238D01*
X7262143Y-7903381D01*
X7252619Y-7922428D01*
X7243095Y-7931952D01*
X7224048Y-7941476D01*
X7195476Y-7941476D01*
X7376428Y-7941476D02*
X7357381Y-7931952D01*
X7347857Y-7912905D01*
X7347857Y-7741476D01*
X7528809Y-7931952D02*
X7509762Y-7941476D01*
X7471667Y-7941476D01*
X7452619Y-7931952D01*
X7443095Y-7912905D01*
X7443095Y-7836714D01*
X7452619Y-7817667D01*
X7471667Y-7808143D01*
X7509762Y-7808143D01*
X7528809Y-7817667D01*
X7538333Y-7836714D01*
X7538333Y-7855762D01*
X7443095Y-7874809D01*
X7614524Y-7931952D02*
X7633571Y-7941476D01*
X7671667Y-7941476D01*
X7690714Y-7931952D01*
X7700238Y-7912905D01*
X7700238Y-7903381D01*
X7690714Y-7884333D01*
X7671667Y-7874809D01*
X7643095Y-7874809D01*
X7624048Y-7865286D01*
X7614524Y-7846238D01*
X7614524Y-7836714D01*
X7624048Y-7817667D01*
X7643095Y-7808143D01*
X7671667Y-7808143D01*
X7690714Y-7817667D01*
X7766905Y-8017667D02*
X7776428Y-8008143D01*
X7795476Y-7979571D01*
X7805000Y-7960524D01*
X7814524Y-7931952D01*
X7824048Y-7884333D01*
X7824048Y-7846238D01*
X7814524Y-7798619D01*
X7805000Y-7770048D01*
X7795476Y-7751000D01*
X7776428Y-7722428D01*
X7766905Y-7712905D01*
M02*
