%TF.GenerationSoftware,KiCad,Pcbnew,(6.0.8)*%
%TF.CreationDate,2022-12-14T21:59:04-06:00*%
%TF.ProjectId,Closet Light with timmer,436c6f73-6574-4204-9c69-676874207769,rev?*%
%TF.SameCoordinates,Original*%
%TF.FileFunction,Copper,L1,Top*%
%TF.FilePolarity,Positive*%
%FSLAX46Y46*%
G04 Gerber Fmt 4.6, Leading zero omitted, Abs format (unit mm)*
G04 Created by KiCad (PCBNEW (6.0.8)) date 2022-12-14 21:59:04*
%MOMM*%
%LPD*%
G01*
G04 APERTURE LIST*
%TA.AperFunction,ComponentPad*%
%ADD10C,2.000000*%
%TD*%
%TA.AperFunction,ComponentPad*%
%ADD11R,2.400000X2.400000*%
%TD*%
%TA.AperFunction,ComponentPad*%
%ADD12C,2.400000*%
%TD*%
%TA.AperFunction,ComponentPad*%
%ADD13R,1.905000X2.000000*%
%TD*%
%TA.AperFunction,ComponentPad*%
%ADD14O,1.905000X2.000000*%
%TD*%
%TA.AperFunction,ComponentPad*%
%ADD15R,1.600000X1.600000*%
%TD*%
%TA.AperFunction,ComponentPad*%
%ADD16O,1.600000X1.600000*%
%TD*%
%TA.AperFunction,ComponentPad*%
%ADD17C,1.600000*%
%TD*%
%TA.AperFunction,ConnectorPad*%
%ADD18C,3.800000*%
%TD*%
%TA.AperFunction,ComponentPad*%
%ADD19C,2.600000*%
%TD*%
%TA.AperFunction,ComponentPad*%
%ADD20C,1.440000*%
%TD*%
%TA.AperFunction,ViaPad*%
%ADD21C,0.800000*%
%TD*%
%TA.AperFunction,Conductor*%
%ADD22C,0.300000*%
%TD*%
%TA.AperFunction,Conductor*%
%ADD23C,0.250000*%
%TD*%
%TA.AperFunction,Conductor*%
%ADD24C,1.000000*%
%TD*%
G04 APERTURE END LIST*
D10*
%TO.P,SW2,1,1*%
%TO.N,GND*%
X39750000Y-55250000D03*
X39750000Y-48750000D03*
%TO.P,SW2,2,2*%
%TO.N,/START*%
X44250000Y-48750000D03*
X44250000Y-55250000D03*
%TD*%
D11*
%TO.P,J1,1,Pin_1*%
%TO.N,GND*%
X40700000Y-39500000D03*
D12*
%TO.P,J1,2,Pin_2*%
%TO.N,+12V*%
X40700000Y-34500000D03*
%TD*%
D13*
%TO.P,Q1,1,G*%
%TO.N,/Gate*%
X82460000Y-35695000D03*
D14*
%TO.P,Q1,2,D*%
%TO.N,/Drain*%
X85000000Y-35695000D03*
%TO.P,Q1,3,S*%
%TO.N,GND*%
X87540000Y-35695000D03*
%TD*%
D15*
%TO.P,U1,1,GND*%
%TO.N,GND*%
X69200000Y-48200000D03*
D16*
%TO.P,U1,2,TR*%
%TO.N,/START*%
X69200000Y-50740000D03*
%TO.P,U1,3,Q*%
%TO.N,Net-(R4-Pad2)*%
X69200000Y-53280000D03*
%TO.P,U1,4,R*%
%TO.N,/RST*%
X69200000Y-55820000D03*
%TO.P,U1,5,CV*%
%TO.N,Net-(C2-Pad2)*%
X76820000Y-55820000D03*
%TO.P,U1,6,THR*%
%TO.N,Net-(C3-Pad1)*%
X76820000Y-53280000D03*
%TO.P,U1,7,DIS*%
X76820000Y-50740000D03*
%TO.P,U1,8,VCC*%
%TO.N,+12V*%
X76820000Y-48200000D03*
%TD*%
D17*
%TO.P,R5,1*%
%TO.N,GND*%
X86000000Y-48810000D03*
D16*
%TO.P,R5,2*%
%TO.N,/Gate*%
X86000000Y-41190000D03*
%TD*%
D17*
%TO.P,C2,1*%
%TO.N,GND*%
X89500000Y-53000000D03*
%TO.P,C2,2*%
%TO.N,Net-(C2-Pad2)*%
X84500000Y-53000000D03*
%TD*%
D11*
%TO.P,J2,1,Pin_1*%
%TO.N,/START*%
X101000000Y-35000000D03*
D12*
%TO.P,J2,2,Pin_2*%
%TO.N,/RST*%
X101000000Y-40000000D03*
%TD*%
D18*
%TO.P,H3,1*%
%TO.N,N/C*%
X107000000Y-25000000D03*
D19*
X107000000Y-25000000D03*
%TD*%
%TO.P,H1,1*%
%TO.N,N/C*%
X107000000Y-58500000D03*
D18*
X107000000Y-58500000D03*
%TD*%
D17*
%TO.P,R2,1*%
%TO.N,/START*%
X49000000Y-48190000D03*
D16*
%TO.P,R2,2*%
%TO.N,+12V*%
X49000000Y-55810000D03*
%TD*%
D17*
%TO.P,C1,1*%
%TO.N,/START*%
X48500000Y-44000000D03*
%TO.P,C1,2*%
%TO.N,GND*%
X53500000Y-44000000D03*
%TD*%
D10*
%TO.P,SW1,1,1*%
%TO.N,GND*%
X54000000Y-55250000D03*
X54000000Y-48750000D03*
%TO.P,SW1,2,2*%
%TO.N,/RST*%
X58500000Y-55250000D03*
X58500000Y-48750000D03*
%TD*%
D20*
%TO.P,RV1,1,1*%
%TO.N,Net-(C3-Pad1)*%
X68460000Y-34345000D03*
%TO.P,RV1,2,2*%
%TO.N,+12V*%
X71000000Y-39425000D03*
%TO.P,RV1,3,3*%
%TO.N,unconnected-(RV1-Pad3)*%
X73540000Y-34345000D03*
%TD*%
D19*
%TO.P,H4,1*%
%TO.N,N/C*%
X33000000Y-58500000D03*
D18*
X33000000Y-58500000D03*
%TD*%
D17*
%TO.P,R4,1*%
%TO.N,/Gate*%
X80500000Y-41190000D03*
D16*
%TO.P,R4,2*%
%TO.N,Net-(R4-Pad2)*%
X80500000Y-48810000D03*
%TD*%
D15*
%TO.P,C3,1*%
%TO.N,Net-(C3-Pad1)*%
X59000000Y-36000000D03*
D17*
%TO.P,C3,2*%
%TO.N,GND*%
X54000000Y-36000000D03*
%TD*%
D19*
%TO.P,H2,1*%
%TO.N,N/C*%
X33000000Y-25000000D03*
D18*
X33000000Y-25000000D03*
%TD*%
D11*
%TO.P,J3,1,Pin_1*%
%TO.N,+12V*%
X101050000Y-47750000D03*
D12*
%TO.P,J3,2,Pin_2*%
%TO.N,/Drain*%
X101050000Y-52750000D03*
%TD*%
D17*
%TO.P,R1,1*%
%TO.N,/RST*%
X63500000Y-52810000D03*
D16*
%TO.P,R1,2*%
%TO.N,+12V*%
X63500000Y-45190000D03*
%TD*%
D21*
%TO.N,/START*%
X50000000Y-46000000D03*
X60000000Y-46500000D03*
%TD*%
D22*
%TO.N,/START*%
X96000000Y-35000000D02*
X101000000Y-35000000D01*
X48500000Y-44000000D02*
X48500000Y-45000000D01*
D23*
X69200000Y-50740000D02*
X64240000Y-50740000D01*
D22*
X48500000Y-44000000D02*
X36000000Y-44000000D01*
X87000000Y-26000000D02*
X96000000Y-35000000D01*
X34000000Y-32000000D02*
X36000000Y-30000000D01*
D23*
X49500000Y-46000000D02*
X48500000Y-45000000D01*
D22*
X48500000Y-47690000D02*
X49000000Y-48190000D01*
D23*
X64240000Y-50740000D02*
X60000000Y-46500000D01*
D22*
X36000000Y-44000000D02*
X34000000Y-42000000D01*
X44250000Y-48750000D02*
X44250000Y-55250000D01*
D23*
X50000000Y-46000000D02*
X49500000Y-46000000D01*
D22*
X36000000Y-30000000D02*
X38000000Y-30000000D01*
X42000000Y-26000000D02*
X87000000Y-26000000D01*
X49000000Y-48190000D02*
X44810000Y-48190000D01*
X48500000Y-45000000D02*
X48500000Y-47690000D01*
X38000000Y-30000000D02*
X42000000Y-26000000D01*
X44810000Y-48190000D02*
X44250000Y-48750000D01*
X34000000Y-42000000D02*
X34000000Y-32000000D01*
%TO.N,Net-(C2-Pad2)*%
X84500000Y-53000000D02*
X83000000Y-53000000D01*
X77000000Y-56000000D02*
X76820000Y-55820000D01*
X80000000Y-56000000D02*
X77000000Y-56000000D01*
X83000000Y-53000000D02*
X80000000Y-56000000D01*
%TO.N,/RST*%
X107000000Y-55000000D02*
X104000000Y-58000000D01*
X60940000Y-52810000D02*
X58500000Y-55250000D01*
X63500000Y-52810000D02*
X60940000Y-52810000D01*
X104000000Y-58000000D02*
X71000000Y-58000000D01*
X71000000Y-58000000D02*
X71000000Y-57620000D01*
X66510000Y-55820000D02*
X63500000Y-52810000D01*
X71000000Y-57620000D02*
X69200000Y-55820000D01*
X107000000Y-46000000D02*
X107000000Y-55000000D01*
X101000000Y-40000000D02*
X107000000Y-46000000D01*
X69200000Y-55820000D02*
X66510000Y-55820000D01*
D23*
X58500000Y-48750000D02*
X58500000Y-55250000D01*
D22*
%TO.N,+12V*%
X76820000Y-40820000D02*
X76820000Y-28180000D01*
X76820000Y-28180000D02*
X77000000Y-28000000D01*
D24*
X45500000Y-34500000D02*
X52000000Y-28000000D01*
D23*
X63500000Y-45190000D02*
X59190000Y-45190000D01*
D22*
X52000000Y-46000000D02*
X58000000Y-46000000D01*
X75425000Y-39425000D02*
X71000000Y-39425000D01*
X52000000Y-46000000D02*
X51500000Y-46500000D01*
D24*
X52000000Y-28000000D02*
X77000000Y-28000000D01*
D22*
X52000000Y-41000000D02*
X45500000Y-34500000D01*
X50810000Y-54000000D02*
X49000000Y-55810000D01*
X76820000Y-40820000D02*
X75425000Y-39425000D01*
D24*
X86000000Y-28000000D02*
X93000000Y-35000000D01*
D22*
X58000000Y-46000000D02*
X59000000Y-45000000D01*
X59000000Y-45000000D02*
X55000000Y-41000000D01*
D24*
X93000000Y-35000000D02*
X93000000Y-45000000D01*
D22*
X51500000Y-46500000D02*
X51500000Y-54000000D01*
D23*
X59190000Y-45190000D02*
X59000000Y-45000000D01*
D24*
X40700000Y-34500000D02*
X45500000Y-34500000D01*
X95750000Y-47750000D02*
X101050000Y-47750000D01*
X93000000Y-45000000D02*
X95750000Y-47750000D01*
D22*
X76820000Y-48200000D02*
X76820000Y-40820000D01*
D24*
X77000000Y-28000000D02*
X86000000Y-28000000D01*
D22*
X55000000Y-41000000D02*
X52000000Y-41000000D01*
X51500000Y-54000000D02*
X50810000Y-54000000D01*
D23*
%TO.N,Net-(R4-Pad2)*%
X80500000Y-48810000D02*
X80500000Y-51500000D01*
D22*
X70490000Y-54570000D02*
X69200000Y-53280000D01*
X77337767Y-54570000D02*
X76930000Y-54570000D01*
D23*
X80500000Y-51500000D02*
X77430000Y-54570000D01*
X77430000Y-54570000D02*
X76930000Y-54570000D01*
D22*
X76930000Y-54570000D02*
X70490000Y-54570000D01*
%TO.N,Net-(C3-Pad1)*%
X59000000Y-39000000D02*
X59000000Y-36000000D01*
X60000000Y-36000000D02*
X66805000Y-36000000D01*
X63000000Y-43000000D02*
X59000000Y-39000000D01*
X59000000Y-36000000D02*
X60000000Y-36000000D01*
X73000000Y-43000000D02*
X63000000Y-43000000D01*
X76820000Y-50740000D02*
X75000000Y-48920000D01*
X66805000Y-36000000D02*
X68460000Y-34345000D01*
X76820000Y-50740000D02*
X76820000Y-53280000D01*
X75000000Y-48920000D02*
X75000000Y-45000000D01*
X75000000Y-45000000D02*
X73000000Y-43000000D01*
D24*
%TO.N,/Drain*%
X85000000Y-35695000D02*
X85000000Y-37000000D01*
X85000000Y-37000000D02*
X87000000Y-39000000D01*
X90000000Y-39000000D02*
X90000000Y-46000000D01*
X96750000Y-52750000D02*
X101050000Y-52750000D01*
X90000000Y-46000000D02*
X96750000Y-52750000D01*
X87000000Y-39000000D02*
X90000000Y-39000000D01*
D22*
%TO.N,/Gate*%
X80500000Y-37655000D02*
X82460000Y-35695000D01*
X80500000Y-41190000D02*
X86000000Y-41190000D01*
X80500000Y-41190000D02*
X80500000Y-37655000D01*
%TD*%
M02*
