%TF.GenerationSoftware,KiCad,Pcbnew,(6.0.8)*%
%TF.CreationDate,2022-12-14T21:59:04-06:00*%
%TF.ProjectId,Closet Light with timmer,436c6f73-6574-4204-9c69-676874207769,rev?*%
%TF.SameCoordinates,Original*%
%TF.FileFunction,Soldermask,Bot*%
%TF.FilePolarity,Negative*%
%FSLAX46Y46*%
G04 Gerber Fmt 4.6, Leading zero omitted, Abs format (unit mm)*
G04 Created by KiCad (PCBNEW (6.0.8)) date 2022-12-14 21:59:04*
%MOMM*%
%LPD*%
G01*
G04 APERTURE LIST*
%ADD10C,2.000000*%
%ADD11R,2.400000X2.400000*%
%ADD12C,2.400000*%
%ADD13R,1.905000X2.000000*%
%ADD14O,1.905000X2.000000*%
%ADD15R,1.600000X1.600000*%
%ADD16O,1.600000X1.600000*%
%ADD17C,1.600000*%
%ADD18C,2.600000*%
%ADD19C,3.800000*%
%ADD20C,1.440000*%
G04 APERTURE END LIST*
D10*
%TO.C,SW2*%
X39750000Y-55250000D03*
X39750000Y-48750000D03*
X44250000Y-48750000D03*
X44250000Y-55250000D03*
%TD*%
D11*
%TO.C,J1*%
X40700000Y-39500000D03*
D12*
X40700000Y-34500000D03*
%TD*%
D13*
%TO.C,Q1*%
X82460000Y-35695000D03*
D14*
X85000000Y-35695000D03*
X87540000Y-35695000D03*
%TD*%
D15*
%TO.C,U1*%
X69200000Y-48200000D03*
D16*
X69200000Y-50740000D03*
X69200000Y-53280000D03*
X69200000Y-55820000D03*
X76820000Y-55820000D03*
X76820000Y-53280000D03*
X76820000Y-50740000D03*
X76820000Y-48200000D03*
%TD*%
D17*
%TO.C,R5*%
X86000000Y-48810000D03*
D16*
X86000000Y-41190000D03*
%TD*%
D17*
%TO.C,C2*%
X89500000Y-53000000D03*
X84500000Y-53000000D03*
%TD*%
D11*
%TO.C,J2*%
X101000000Y-35000000D03*
D12*
X101000000Y-40000000D03*
%TD*%
D18*
%TO.C,H3*%
X107000000Y-25000000D03*
D19*
X107000000Y-25000000D03*
%TD*%
D18*
%TO.C,H1*%
X107000000Y-58500000D03*
D19*
X107000000Y-58500000D03*
%TD*%
D17*
%TO.C,R2*%
X49000000Y-48190000D03*
D16*
X49000000Y-55810000D03*
%TD*%
D17*
%TO.C,C1*%
X48500000Y-44000000D03*
X53500000Y-44000000D03*
%TD*%
D10*
%TO.C,SW1*%
X54000000Y-55250000D03*
X54000000Y-48750000D03*
X58500000Y-55250000D03*
X58500000Y-48750000D03*
%TD*%
D20*
%TO.C,RV1*%
X68460000Y-34345000D03*
X71000000Y-39425000D03*
X73540000Y-34345000D03*
%TD*%
D18*
%TO.C,H4*%
X33000000Y-58500000D03*
D19*
X33000000Y-58500000D03*
%TD*%
D17*
%TO.C,R4*%
X80500000Y-41190000D03*
D16*
X80500000Y-48810000D03*
%TD*%
D15*
%TO.C,C3*%
X59000000Y-36000000D03*
D17*
X54000000Y-36000000D03*
%TD*%
D18*
%TO.C,H2*%
X33000000Y-25000000D03*
D19*
X33000000Y-25000000D03*
%TD*%
D11*
%TO.C,J3*%
X101050000Y-47750000D03*
D12*
X101050000Y-52750000D03*
%TD*%
D17*
%TO.C,R1*%
X63500000Y-52810000D03*
D16*
X63500000Y-45190000D03*
%TD*%
M02*
